Russolo-24ptMedium.ufo
<glyph name="exclam" format="2">
  <advance width="517.1"/>
  <unicode hex="0021"/>
  <note>
exclam
</note>
  <outline>
    <contour>
      <point x="226.4" y="312.7" type="curve"/>
      <point x="292.4" y="312.7" type="line"/>
      <point x="286.5" y="766.6"/>
      <point x="374.1" y="1061.3"/>
      <point x="374.1" y="1209.6" type="curve" smooth="yes"/>
      <point x="374.1" y="1308.7"/>
      <point x="286.8" y="1294.0"/>
      <point x="310.7" y="1463.7" type="curve"/>
      <point x="207.7" y="1463.7" type="line"/>
      <point x="231.6" y="1294.0"/>
      <point x="143.7" y="1308.7"/>
      <point x="143.7" y="1209.6" type="curve" smooth="yes"/>
      <point x="143.7" y="1061.3"/>
      <point x="231.3" y="766.6"/>
    </contour>
    <contour>
      <point x="258.9" y="-19.6" type="curve" smooth="yes"/>
      <point x="312.5" y="-19.6"/>
      <point x="352.8" y="31.3"/>
      <point x="352.8" y="93.3" type="curve" smooth="yes"/>
      <point x="352.8" y="154.3"/>
      <point x="311.8" y="204.2"/>
      <point x="258.9" y="204.2" type="curve" smooth="yes"/>
      <point x="206.0" y="204.2"/>
      <point x="165.0" y="154.3"/>
      <point x="165.0" y="93.3" type="curve" smooth="yes"/>
      <point x="165.0" y="31.3"/>
      <point x="205.3" y="-19.6"/>
    </contour>
  </outline>
</glyph>
<glyph name="quotedbl" format="2">
  <advance width="613.3"/>
  <unicode hex="0022"/>
  <note>
quotedbl
</note>
  <outline>
    <contour>
      <point x="364.6" y="816.0" type="line"/>
      <point x="458.7" y="816.0" type="line"/>
      <point x="480.3" y="1359.9" type="line"/>
      <point x="347.7" y="1359.9" type="line"/>
    </contour>
    <contour>
      <point x="151.6" y="816.0" type="line"/>
      <point x="243.7" y="816.0" type="line"/>
      <point x="265.6" y="1359.9" type="line"/>
      <point x="134.0" y="1359.9" type="line"/>
    </contour>
  </outline>
</glyph>
<glyph name="numbersign" format="2">
  <advance width="1335.2"/>
  <unicode hex="0023"/>
  <note>
numbersign
</note>
  <outline>
    <contour>
      <point x="707.5" y="0.0" type="line"/>
      <point x="852.6" y="0.0" type="line"/>
      <point x="1141.2" y="1433.0" type="line"/>
      <point x="996.1" y="1433.0" type="line"/>
    </contour>
    <contour>
      <point x="102.0" y="468.0" type="line"/>
      <point x="1170.7" y="468.0" type="line"/>
      <point x="1170.7" y="558.6" type="line"/>
      <point x="102.0" y="558.6" type="line"/>
    </contour>
    <contour>
      <point x="200.4" y="0.0" type="line"/>
      <point x="346.2" y="0.0" type="line"/>
      <point x="636.1" y="1433.0" type="line"/>
      <point x="491.0" y="1433.0" type="line"/>
    </contour>
    <contour>
      <point x="161.4" y="881.3" type="line"/>
      <point x="1231.1" y="881.3" type="line"/>
      <point x="1231.1" y="972.9" type="line"/>
      <point x="161.4" y="972.9" type="line"/>
    </contour>
  </outline>
</glyph>
<glyph name="percent" format="2">
  <advance width="1625.7"/>
  <unicode hex="0025"/>
  <note>
percent
</note>
  <outline>
    <contour>
      <point x="245.0" y="-29.3" type="line"/>
      <point x="393.2" y="-29.3" type="line"/>
      <point x="1361.3" y="1444.5" type="line"/>
      <point x="1213.4" y="1444.5" type="line"/>
    </contour>
    <contour>
      <point x="1186.9" y="-26.0" type="curve" smooth="yes"/>
      <point x="1377.5" y="-26.0"/>
      <point x="1494.4" y="146.1"/>
      <point x="1494.4" y="379.8" type="curve" smooth="yes"/>
      <point x="1494.4" y="613.0"/>
      <point x="1371.8" y="786.6"/>
      <point x="1186.9" y="786.6" type="curve" smooth="yes"/>
      <point x="1004.3" y="786.6"/>
      <point x="880.4" y="611.7"/>
      <point x="880.4" y="379.8" type="curve" smooth="yes"/>
      <point x="880.4" y="147.5"/>
      <point x="996.9" y="-26.0"/>
    </contour>
    <contour>
      <point x="1186.9" y="58.900000000000006" type="curve" smooth="yes"/>
      <point x="1090.8" y="58.900000000000006"/>
      <point x="1034.8" y="184.0"/>
      <point x="1034.8" y="379.8" type="curve" smooth="yes"/>
      <point x="1034.8" y="577.6"/>
      <point x="1090.8" y="702.7"/>
      <point x="1186.9" y="702.7" type="curve" smooth="yes"/>
      <point x="1284.0" y="702.7"/>
      <point x="1341.0" y="576.6"/>
      <point x="1341.0" y="379.8" type="curve" smooth="yes"/>
      <point x="1341.0" y="184.0"/>
      <point x="1285.0" y="58.900000000000006"/>
    </contour>
    <contour>
      <point x="438.8" y="649.9" type="curve" smooth="yes"/>
      <point x="629.1" y="649.9"/>
      <point x="747.0" y="821.7"/>
      <point x="747.0" y="1056.7" type="curve" smooth="yes"/>
      <point x="747.0" y="1288.6"/>
      <point x="622.7" y="1463.2"/>
      <point x="438.8" y="1463.2" type="curve" smooth="yes"/>
      <point x="254.9" y="1463.2"/>
      <point x="131.3" y="1287.6"/>
      <point x="131.3" y="1056.7" type="curve" smooth="yes"/>
      <point x="131.3" y="823.4"/>
      <point x="247.8" y="649.9"/>
    </contour>
    <contour>
      <point x="438.8" y="734.8" type="curve" smooth="yes"/>
      <point x="342.7" y="734.8"/>
      <point x="286.7" y="859.6"/>
      <point x="286.7" y="1056.7" type="curve" smooth="yes"/>
      <point x="286.7" y="1255.5"/>
      <point x="342.7" y="1378.3"/>
      <point x="438.8" y="1378.3" type="curve" smooth="yes"/>
      <point x="534.9" y="1378.3"/>
      <point x="591.9" y="1253.2"/>
      <point x="591.9" y="1056.7" type="curve" smooth="yes"/>
      <point x="591.9" y="862.3"/>
      <point x="535.6" y="734.8"/>
    </contour>
  </outline>
</glyph>
<glyph name="ampersand" format="2">
  <advance width="1364.8"/>
  <unicode hex="0026"/>
  <note>
ampersand
</note>
  <outline>
    <contour>
      <point x="600.6" y="-30.7" type="curve" smooth="yes"/>
      <point x="746.5" y="-30.7"/>
      <point x="871.8" y="-7.8"/>
      <point x="949.9" y="43.5" type="curve"/>
      <point x="883.2" y="128.7" type="line"/>
      <point x="839.3" y="89.1"/>
      <point x="675.9" y="60.6"/>
      <point x="594.6" y="60.6" type="curve" smooth="yes"/>
      <point x="388.9" y="60.6"/>
      <point x="334.0" y="213.1"/>
      <point x="334.0" y="398.6" type="curve" smooth="yes"/>
      <point x="334.0" y="609.4"/>
      <point x="438.0" y="733.3"/>
      <point x="617.0" y="731.6" type="curve"/>
      <point x="622.1" y="826.6" type="line"/>
      <point x="472.3" y="822.0"/>
      <point x="412.6" y="943.9"/>
      <point x="412.6" y="1084.8" type="curve" smooth="yes"/>
      <point x="412.6" y="1244.0"/>
      <point x="496.2" y="1370.4"/>
      <point x="642.3" y="1370.4" type="curve" smooth="yes"/>
      <point x="823.5" y="1370.4" type="line"/>
      <point x="823.5" y="1461.7" type="line"/>
      <point x="638.3" y="1461.7" type="line" smooth="yes"/>
      <point x="364.3" y="1461.7"/>
      <point x="226.3" y="1310.6"/>
      <point x="226.3" y="1084.1" type="curve" smooth="yes"/>
      <point x="226.3" y="952.3"/>
      <point x="281.3" y="836.5"/>
      <point x="410.3" y="786.6" type="curve"/>
      <point x="255.3" y="739.1"/>
      <point x="133.1" y="597.6"/>
      <point x="133.1" y="392.6" type="curve" smooth="yes"/>
      <point x="133.1" y="136.6"/>
      <point x="298.0" y="-30.7"/>
    </contour>
    <contour>
      <point x="1041.7" y="-28.7" type="curve" smooth="yes"/>
      <point x="1122.5" y="-28.7"/>
      <point x="1196.3" y="-14.0"/>
      <point x="1246.3" y="14.6" type="curve"/>
      <point x="1246.3" y="139.5" type="line"/>
      <point x="1156.7" y="80.5"/>
      <point x="1116.1" y="68.6"/>
      <point x="1080.2" y="68.6" type="curve" smooth="yes"/>
      <point x="1045.7" y="68.6"/>
      <point x="1053.2" y="229.9"/>
      <point x="1053.2" y="334.0" type="curve" smooth="yes"/>
      <point x="1053.2" y="731.6" type="line"/>
      <point x="1195.4" y="731.6" type="line"/>
      <point x="1195.4" y="825.6" type="line"/>
      <point x="1053.2" y="825.6" type="line"/>
      <point x="1053.2" y="1111.3" type="line"/>
      <point x="939.9" y="1111.3" type="line"/>
      <point x="957.2" y="882.0"/>
      <point x="901.8" y="825.6"/>
      <point x="740.9" y="825.6" type="curve" smooth="yes"/>
      <point x="598.7" y="825.6" type="line"/>
      <point x="587.7" y="731.6" type="line"/>
      <point x="862.3" y="731.6" type="line"/>
      <point x="862.3" y="211.7" type="line" smooth="yes"/>
      <point x="862.3" y="36.7"/>
      <point x="919.0" y="-28.7"/>
    </contour>
  </outline>
</glyph>
<glyph name="quotesingle" format="2">
  <advance width="397.6"/>
  <unicode hex="0027"/>
  <note>
quotesingle
</note>
  <outline>
    <contour>
      <point x="151.6" y="816.0" type="line"/>
      <point x="243.7" y="816.0" type="line"/>
      <point x="265.6" y="1359.9" type="line"/>
      <point x="134.0" y="1359.9" type="line"/>
    </contour>
  </outline>
</glyph>
<glyph name="parenleft" format="2">
  <advance width="600.6"/>
  <unicode hex="0028"/>
  <note>
parenleft
</note>
  <outline>
    <contour>
      <point x="450.0" y="-390.8" type="curve"/>
      <point x="522.3" y="-356.8" type="line"/>
      <point x="375.2" y="-101.9"/>
      <point x="251.8" y="234.0"/>
      <point x="251.8" y="571.8" type="curve" smooth="yes"/>
      <point x="251.8" y="909.2"/>
      <point x="376.4" y="1251.8"/>
      <point x="523.9" y="1516.4" type="curve"/>
      <point x="448.8" y="1542.0" type="line"/>
      <point x="206.4" y="1211.3"/>
      <point x="98.7" y="927.1"/>
      <point x="98.7" y="576.8" type="curve" smooth="yes"/>
      <point x="98.7" y="228.6"/>
      <point x="205.0" y="-61.8"/>
    </contour>
  </outline>
</glyph>
<glyph name="parenright" format="2">
  <advance width="601.3"/>
  <unicode hex="0029"/>
  <note>
parenright
</note>
  <outline>
    <contour>
      <point x="151.6" y="-390.8" type="line"/>
      <point x="398.0" y="-61.1"/>
      <point x="502.6" y="228.6"/>
      <point x="502.6" y="576.8" type="curve" smooth="yes"/>
      <point x="502.6" y="926.1"/>
      <point x="395.9" y="1211.3"/>
      <point x="152.5" y="1542.3" type="curve"/>
      <point x="76.7" y="1516.4" type="line"/>
      <point x="225.5" y="1252.9"/>
      <point x="350.5" y="907.8"/>
      <point x="350.5" y="571.8" type="curve" smooth="yes"/>
      <point x="350.5" y="233.0"/>
      <point x="225.4" y="-104.3"/>
      <point x="78.3" y="-356.8" type="curve"/>
    </contour>
  </outline>
</glyph>
<glyph name="asterisk" format="2">
  <advance width="787.2"/>
  <unicode hex="002A"/>
  <note>
asterisk
</note>
  <outline>
    <contour>
      <point x="396.2" y="1114.7" type="line"/>
      <point x="517.1" y="1187.0"/>
      <point x="581.8" y="1183.1"/>
      <point x="622.1" y="1205.7" type="curve" smooth="yes"/>
      <point x="642.2" y="1217.4"/>
      <point x="626.5" y="1250.0"/>
      <point x="664.6" y="1272.2" type="curve"/>
      <point x="647.4" y="1302.2" type="line"/>
      <point x="610.0" y="1280.7"/>
      <point x="599.2" y="1312.8"/>
      <point x="569.6" y="1295.8" type="curve" smooth="yes"/>
      <point x="525.8" y="1270.4"/>
      <point x="499.4" y="1217.3"/>
      <point x="377.0" y="1147.8" type="curve"/>
    </contour>
    <contour>
      <point x="125.80000000000001" y="961.0" type="line"/>
      <point x="162.9" y="982.2"/>
      <point x="182.4" y="953.3"/>
      <point x="203.9" y="965.4" type="curve" smooth="yes"/>
      <point x="246.3" y="989.4"/>
      <point x="274.2" y="1045.9"/>
      <point x="396.2" y="1114.7" type="curve"/>
      <point x="377.0" y="1147.8" type="line"/>
      <point x="255.4" y="1076.5"/>
      <point x="193.4" y="1078.5"/>
      <point x="152.1" y="1055.5" type="curve" smooth="yes"/>
      <point x="130.5" y="1042.7"/>
      <point x="146.0" y="1012.5"/>
      <point x="108.6" y="991.0" type="curve"/>
    </contour>
    <contour>
      <point x="368.7" y="819.4" type="curve"/>
      <point x="403.5" y="819.4" type="line"/>
      <point x="403.5" y="862.8"/>
      <point x="439.1" y="864.4"/>
      <point x="439.1" y="889.6" type="curve" smooth="yes"/>
      <point x="439.1" y="932.3"/>
      <point x="404.0" y="990.2"/>
      <point x="405.8" y="1130.6" type="curve"/>
      <point x="366.4" y="1130.6" type="line"/>
      <point x="368.2" y="989.8"/>
      <point x="335.1" y="932.7"/>
      <point x="335.1" y="889.6" type="curve" smooth="yes"/>
      <point x="335.1" y="864.1"/>
      <point x="368.7" y="862.1"/>
    </contour>
    <contour>
      <point x="376.0" y="1114.7" type="curve"/>
      <point x="396.2" y="1147.8" type="line"/>
      <point x="273.8" y="1217.3"/>
      <point x="247.4" y="1271.1"/>
      <point x="203.6" y="1295.8" type="curve" smooth="yes"/>
      <point x="185.9" y="1305.8"/>
      <point x="162.2" y="1280.0"/>
      <point x="124.80000000000001" y="1301.2" type="curve"/>
      <point x="108.6" y="1271.5" type="line"/>
      <point x="145.7" y="1250.0"/>
      <point x="132.4" y="1217.4"/>
      <point x="151.8" y="1205.7" type="curve" smooth="yes"/>
      <point x="194.9" y="1180.3"/>
      <point x="255.8" y="1185.3"/>
    </contour>
    <contour>
      <point x="569.3" y="965.4" type="curve" smooth="yes"/>
      <point x="592.9" y="951.9"/>
      <point x="610.3" y="982.2"/>
      <point x="647.4" y="960.3" type="curve"/>
      <point x="664.6" y="990.0" type="line"/>
      <point x="627.2" y="1011.5"/>
      <point x="650.4" y="1037.8"/>
      <point x="621.1" y="1054.8" type="curve" smooth="yes"/>
      <point x="586.8" y="1072.9"/>
      <point x="517.5" y="1076.5"/>
      <point x="396.2" y="1147.8" type="curve"/>
      <point x="376.0" y="1114.7" type="line"/>
      <point x="499.7" y="1044.9"/>
      <point x="528.3" y="989.4"/>
    </contour>
    <contour>
      <point x="366.4" y="1130.6" type="curve"/>
      <point x="405.8" y="1130.6" type="line"/>
      <point x="404.0" y="1271.7"/>
      <point x="439.1" y="1328.6"/>
      <point x="439.1" y="1371.6" type="curve" smooth="yes"/>
      <point x="439.1" y="1396.8"/>
      <point x="403.5" y="1398.4"/>
      <point x="403.5" y="1441.8" type="curve"/>
      <point x="368.7" y="1441.8" type="line"/>
      <point x="368.7" y="1398.1"/>
      <point x="335.1" y="1396.1"/>
      <point x="335.1" y="1371.6" type="curve" smooth="yes"/>
      <point x="335.1" y="1329.2"/>
      <point x="368.2" y="1272.1"/>
    </contour>
  </outline>
</glyph>
<glyph name="plus" format="2">
  <advance width="1070.3"/>
  <unicode hex="002B"/>
  <note>
plus
</note>
  <outline>
    <contour>
      <point x="121.8" y="590.6" type="line"/>
      <point x="948.5" y="590.6" type="line"/>
      <point x="948.5" y="744.3" type="line"/>
      <point x="121.8" y="744.3" type="line"/>
    </contour>
    <contour>
      <point x="480.3" y="254.1" type="line"/>
      <point x="590.0" y="254.1" type="line"/>
      <point x="590.0" y="1080.8" type="line"/>
      <point x="480.3" y="1080.8" type="line"/>
    </contour>
  </outline>
</glyph>
<glyph name="comma" format="2">
  <advance width="539.2"/>
  <unicode hex="002C"/>
  <note>
comma
</note>
  <outline>
    <contour>
      <point x="133.6" y="-157.0" type="curve"/>
      <point x="272.5" y="-157.0" type="line"/>
      <point x="331.5" y="-53.0"/>
      <point x="384.6" y="79.2"/>
      <point x="411.4" y="182.8" type="curve"/>
      <point x="234.3" y="182.8" type="line"/>
      <point x="194.9" y="95.6"/>
      <point x="152.4" y="-51.1"/>
    </contour>
  </outline>
</glyph>
<glyph name="period" format="2">
  <advance width="500.5"/>
  <unicode hex="002E"/>
  <note>
period
</note>
  <outline>
    <contour>
      <point x="249.9" y="-6.6" type="curve" smooth="yes"/>
      <point x="314.2" y="-6.6"/>
      <point x="370.5" y="41.0"/>
      <point x="370.5" y="114.3" type="curve" smooth="yes"/>
      <point x="370.5" y="188.3"/>
      <point x="313.5" y="235.2"/>
      <point x="249.9" y="235.2" type="curve" smooth="yes"/>
      <point x="187.0" y="235.2"/>
      <point x="130.0" y="187.6"/>
      <point x="130.0" y="114.3" type="curve" smooth="yes"/>
      <point x="130.0" y="41.3"/>
      <point x="185.3" y="-6.6"/>
    </contour>
  </outline>
</glyph>
<glyph name="slash" format="2">
  <advance width="699.5"/>
  <unicode hex="002F"/>
  <note>
slash
</note>
  <outline>
    <contour>
      <point x="47.1" y="-398.5" type="line"/>
      <point x="158.3" y="-398.5" type="line"/>
      <point x="652.4" y="1497.1" type="line"/>
      <point x="541.5" y="1497.1" type="line"/>
    </contour>
  </outline>
</glyph>
<glyph name="zero" format="2">
  <advance width="1346.3"/>
  <unicode hex="0030"/>
  <note>
zero
</note>
  <anchor x="662.8" y="715.7" name="center"/>
  <outline>
    <contour>
      <point x="672.8" y="-27.6" type="curve" smooth="yes"/>
      <point x="1015.1" y="-27.6"/>
      <point x="1255.0" y="277.0"/>
      <point x="1255.0" y="715.7" type="curve" smooth="yes"/>
      <point x="1255.0" y="1142.1"/>
      <point x="1003.8" y="1459.0"/>
      <point x="672.8" y="1459.0" type="curve" smooth="yes"/>
      <point x="340.2" y="1459.0"/>
      <point x="91.3" y="1143.4"/>
      <point x="91.3" y="715.7" type="curve" smooth="yes"/>
      <point x="91.3" y="281.0"/>
      <point x="334.2" y="-27.6"/>
    </contour>
    <contour>
      <point x="672.8" y="66.4" type="curve" smooth="yes"/>
      <point x="446.1" y="66.4"/>
      <point x="289.7" y="331.0"/>
      <point x="289.7" y="715.7" type="curve" smooth="yes"/>
      <point x="289.7" y="1099.4"/>
      <point x="446.1" y="1365.3"/>
      <point x="672.8" y="1365.3" type="curve" smooth="yes"/>
      <point x="900.2" y="1365.3"/>
      <point x="1057.0" y="1098.1"/>
      <point x="1057.0" y="715.7" type="curve" smooth="yes"/>
      <point x="1057.0" y="333.0"/>
      <point x="901.2" y="66.4"/>
    </contour>
  </outline>
</glyph>
<glyph name="one" format="2">
  <advance width="623.7"/>
  <unicode hex="0031"/>
  <note>
one
</note>
  <outline>
    <contour>
      <point x="280.0" y="-0.30000000000000004" type="line"/>
      <point x="468.4" y="-0.30000000000000004" type="line"/>
      <point x="468.4" y="1426.0" type="line"/>
      <point x="382.8" y="1426.0" type="line"/>
      <point x="45.6" y="953.9" type="line"/>
      <point x="89.0" y="916.0" type="line"/>
      <point x="300.9" y="1192.2" type="line"/>
      <point x="280.0" y="1218.3" type="line"/>
    </contour>
  </outline>
</glyph>
<glyph name="two" format="2">
  <advance width="1118.3"/>
  <unicode hex="0032"/>
  <note>
two
</note>
  <outline>
    <contour>
      <point x="56.800000000000004" y="0.0" type="line"/>
      <point x="1044.0" y="0.0" type="line"/>
      <point x="1044.0" y="151.6" type="line"/>
      <point x="247.4" y="152.3" type="line"/>
      <point x="232.4" y="91.9" type="line"/>
      <point x="430.9" y="251.0"/>
      <point x="670.2" y="488.8"/>
      <point x="774.6" y="607.5" type="curve" smooth="yes"/>
      <point x="882.9" y="730.7"/>
      <point x="1006.4" y="857.9"/>
      <point x="1006.4" y="1058.7" type="curve" smooth="yes"/>
      <point x="1006.4" y="1281.0"/>
      <point x="864.3" y="1461.7"/>
      <point x="579.6" y="1461.7" type="curve" smooth="yes"/>
      <point x="313.8" y="1461.7"/>
      <point x="128.3" y="1276.4"/>
      <point x="128.3" y="1043.1" type="curve" smooth="yes"/>
      <point x="128.3" y="1020.9"/>
      <point x="129.3" y="1012.8"/>
      <point x="133.5" y="984.9" type="curve"/>
      <point x="293.4" y="987.9" type="line"/>
      <point x="293.4" y="1020.1" type="line" smooth="yes"/>
      <point x="293.4" y="1212.0"/>
      <point x="381.8" y="1380.6"/>
      <point x="558.0" y="1380.6" type="curve" smooth="yes"/>
      <point x="655.8" y="1380.6"/>
      <point x="822.6" y="1350.1"/>
      <point x="822.6" y="1096.2" type="curve" smooth="yes"/>
      <point x="822.6" y="881.6"/>
      <point x="696.5" y="668.8"/>
      <point x="447.9" y="406.5" type="curve" smooth="yes"/>
    </contour>
  </outline>
</glyph>
<glyph name="three" format="2">
  <advance width="1083.3"/>
  <unicode hex="0033"/>
  <note>
three
</note>
  <outline>
    <contour>
      <point x="513.0" y="-28.0" type="curve" smooth="yes"/>
      <point x="816.0" y="-28.0"/>
      <point x="991.9" y="146.6"/>
      <point x="991.9" y="390.8" type="curve" smooth="yes"/>
      <point x="991.9" y="607.0"/>
      <point x="855.1" y="745.2"/>
      <point x="647.5" y="787.4" type="curve"/>
      <point x="662.7" y="731.8" type="line"/>
      <point x="806.7" y="756.1"/>
      <point x="955.5" y="873.6"/>
      <point x="955.5" y="1087.1" type="curve" smooth="yes"/>
      <point x="955.5" y="1296.5"/>
      <point x="816.8" y="1459.0"/>
      <point x="547.3" y="1459.0" type="curve" smooth="yes"/>
      <point x="280.1" y="1459.0"/>
      <point x="112.3" y="1303.9"/>
      <point x="100.3" y="1079.3" type="curve"/>
      <point x="259.4" y="1078.3" type="line"/>
      <point x="260.1" y="1230.9"/>
      <point x="355.8" y="1374.7"/>
      <point x="543.0" y="1374.7" type="curve" smooth="yes"/>
      <point x="731.1" y="1374.7"/>
      <point x="792.0" y="1235.5"/>
      <point x="792.0" y="1083.3" type="curve" smooth="yes"/>
      <point x="792.0" y="886.5"/>
      <point x="689.2" y="791.4"/>
      <point x="498.3" y="791.4" type="curve" smooth="yes"/>
      <point x="294.5" y="791.4" type="line"/>
      <point x="294.5" y="724.1" type="line"/>
      <point x="502.3" y="724.1" type="line" smooth="yes"/>
      <point x="686.0" y="724.1"/>
      <point x="806.2" y="598.0"/>
      <point x="806.2" y="390.4" type="curve" smooth="yes"/>
      <point x="806.2" y="192.1"/>
      <point x="693.5" y="53.300000000000004"/>
      <point x="519.0" y="53.300000000000004" type="curve" smooth="yes"/>
      <point x="350.1" y="53.300000000000004"/>
      <point x="247.1" y="182.2"/>
      <point x="247.1" y="355.9" type="curve" smooth="yes"/>
      <point x="247.1" y="369.4" type="line"/>
      <point x="72.3" y="369.4" type="line"/>
      <point x="72.3" y="348.9" type="line" smooth="yes"/>
      <point x="72.3" y="110.2"/>
      <point x="240.3" y="-28.0"/>
    </contour>
  </outline>
</glyph>
<glyph name="four" format="2">
  <advance width="1083.8"/>
  <unicode hex="0034"/>
  <note>
four
</note>
  <outline>
    <contour>
      <point x="723.0" y="0.0" type="line"/>
      <point x="854.4" y="0.0" type="line"/>
      <point x="854.4" y="452.4" type="line"/>
      <point x="752.4" y="360.4" type="line"/>
      <point x="1032.1" y="360.4" type="line"/>
      <point x="1032.1" y="497.7" type="line"/>
      <point x="752.4" y="497.7" type="line"/>
      <point x="854.4" y="381.2" type="line"/>
      <point x="854.4" y="851.7" type="line"/>
      <point x="723.0" y="851.7" type="line"/>
      <point x="723.0" y="381.2" type="line"/>
      <point x="814.2" y="497.7" type="line"/>
      <point x="176.5" y="497.7" type="line"/>
      <point x="234.7" y="435.3" type="line"/>
      <point x="391.1" y="729.0"/>
      <point x="573.3" y="1091.4"/>
      <point x="716.5" y="1451.3" type="curve"/>
      <point x="585.9" y="1451.3" type="line"/>
      <point x="419.1" y="1054.3"/>
      <point x="220.3" y="670.2"/>
      <point x="44.2" y="360.4" type="curve"/>
      <point x="814.2" y="360.4" type="line"/>
      <point x="723.0" y="452.4" type="line"/>
    </contour>
  </outline>
</glyph>
<glyph name="five" format="2">
  <advance width="1004.1"/>
  <unicode hex="0035"/>
  <note>
five
</note>
  <outline>
    <contour>
      <point x="417.9" y="-28.5" type="curve" smooth="yes"/>
      <point x="716.8" y="-28.5"/>
      <point x="929.4" y="185.4"/>
      <point x="929.4" y="455.2" type="curve" smooth="yes"/>
      <point x="929.4" y="737.3"/>
      <point x="712.5" y="873.3"/>
      <point x="480.9" y="873.3" type="curve" smooth="yes"/>
      <point x="362.0" y="873.3"/>
      <point x="260.9" y="831.2"/>
      <point x="190.7" y="770.4" type="curve"/>
      <point x="230.9" y="772.1" type="line"/>
      <point x="349.5" y="1336.0" type="line"/>
      <point x="242.4" y="1271.2" type="line"/>
      <point x="835.6" y="1271.2" type="line"/>
      <point x="835.6" y="1430.0" type="line"/>
      <point x="259.0" y="1430.0" type="line"/>
      <point x="118.1" y="746.4" type="line"/>
      <point x="180.5" y="709.5" type="line"/>
      <point x="262.4" y="757.3"/>
      <point x="378.0" y="776.5"/>
      <point x="437.9" y="776.5" type="curve" smooth="yes"/>
      <point x="645.1" y="776.5"/>
      <point x="755.0" y="655.0"/>
      <point x="755.0" y="441.2" type="curve" smooth="yes"/>
      <point x="755.0" y="211.1"/>
      <point x="611.8" y="70.80000000000001"/>
      <point x="414.9" y="70.80000000000001" type="curve" smooth="yes"/>
      <point x="286.6" y="70.80000000000001"/>
      <point x="157.3" y="127.6"/>
      <point x="94.2" y="180.0" type="curve"/>
      <point x="57.5" y="103.3" type="line"/>
      <point x="140.1" y="39.5"/>
      <point x="251.4" y="-28.5"/>
    </contour>
  </outline>
</glyph>
<glyph name="six" format="2">
  <advance width="1095.2"/>
  <unicode hex="0036"/>
  <note>
six
</note>
  <outline>
    <contour>
      <point x="544.7" y="-33.0" type="curve" smooth="yes"/>
      <point x="846.8" y="-35.7"/>
      <point x="1025.8" y="165.0"/>
      <point x="1025.8" y="440.7" type="curve" smooth="yes"/>
      <point x="1025.8" y="709.2"/>
      <point x="855.8" y="902.0"/>
      <point x="577.4" y="902.0" type="curve" smooth="yes"/>
      <point x="410.8" y="902.0"/>
      <point x="265.2" y="810.4"/>
      <point x="176.7" y="627.8" type="curve"/>
      <point x="246.1" y="654.6" type="line"/>
      <point x="251.9" y="733.6"/>
      <point x="261.5" y="782.7"/>
      <point x="290.8" y="880.8" type="curve" smooth="yes"/>
      <point x="380.2" y="1118.2"/>
      <point x="553.2" y="1281.0"/>
      <point x="782.8" y="1332.0" type="curve"/>
      <point x="780.8" y="1456.3" type="line"/>
      <point x="485.4" y="1412.1"/>
      <point x="320.0" y="1238.4"/>
      <point x="209.9" y="1041.6" type="curve" smooth="yes"/>
      <point x="130.0" y="874.9"/>
      <point x="86.0" y="705.0"/>
      <point x="86.0" y="518.0" type="curve" smooth="yes"/>
      <point x="86.0" y="147.3"/>
      <point x="262.1" y="-30.3"/>
    </contour>
    <contour>
      <point x="556.7" y="69.6" type="curve" smooth="yes"/>
      <point x="350.0" y="72.30000000000001"/>
      <point x="264.9" y="250.0"/>
      <point x="266.9" y="460.0" type="curve" smooth="yes"/>
      <point x="268.2" y="630.7"/>
      <point x="391.0" y="792.7"/>
      <point x="579.1" y="792.7" type="curve" smooth="yes"/>
      <point x="779.4" y="792.7"/>
      <point x="851.9" y="601.0"/>
      <point x="851.9" y="433.0" type="curve" smooth="yes"/>
      <point x="851.9" y="245.5"/>
      <point x="763.1" y="67.2"/>
    </contour>
  </outline>
</glyph>
<glyph name="seven" format="2">
  <advance width="996.6"/>
  <unicode hex="0037"/>
  <note>
seven
</note>
  <outline>
    <contour>
      <point x="246.0" y="0.0" type="curve"/>
      <point x="403.3" y="0.0" type="line"/>
      <point x="524.1" y="551.2"/>
      <point x="724.6" y="1060.2"/>
      <point x="951.0" y="1419.0" type="curve"/>
      <point x="50.6" y="1419.0" type="line"/>
      <point x="50.6" y="1254.6" type="line"/>
      <point x="796.4" y="1254.6" type="line"/>
      <point x="755.1" y="1330.3" type="line"/>
      <point x="569.3" y="1048.1"/>
      <point x="380.7" y="557.5"/>
    </contour>
  </outline>
</glyph>
<glyph name="eight" format="2">
  <advance width="1074.8"/>
  <unicode hex="0038"/>
  <note>
eight
</note>
  <outline>
    <contour>
      <point x="522.9" y="-31.7" type="curve" smooth="yes"/>
      <point x="808.8" y="-31.7"/>
      <point x="989.6" y="127.1"/>
      <point x="989.6" y="390.8" type="curve" smooth="yes"/>
      <point x="989.6" y="590.9"/>
      <point x="880.3" y="739.0"/>
      <point x="627.1" y="830.1" type="curve" smooth="yes"/>
      <point x="404.4" y="918.8"/>
      <point x="320.7" y="995.3"/>
      <point x="320.7" y="1111.5" type="curve" smooth="yes"/>
      <point x="320.7" y="1256.3"/>
      <point x="416.1" y="1366.0"/>
      <point x="564.6" y="1366.0" type="curve" smooth="yes"/>
      <point x="704.5" y="1366.0"/>
      <point x="811.8" y="1240.4"/>
      <point x="811.8" y="1107.9" type="curve" smooth="yes"/>
      <point x="811.8" y="999.1"/>
      <point x="758.4" y="870.7"/>
      <point x="503.0" y="802.5" type="curve"/>
      <point x="662.0" y="767.0" type="line"/>
      <point x="815.7" y="825.4"/>
      <point x="917.1" y="957.4"/>
      <point x="917.1" y="1107.5" type="curve" smooth="yes"/>
      <point x="917.1" y="1300.0"/>
      <point x="755.0" y="1445.6"/>
      <point x="549.1" y="1445.6" type="curve" smooth="yes"/>
      <point x="324.3" y="1444.6"/>
      <point x="156.8" y="1314.8"/>
      <point x="156.8" y="1090.9" type="curve" smooth="yes"/>
      <point x="156.8" y="918.9"/>
      <point x="256.0" y="783.7"/>
      <point x="441.0" y="713.7" type="curve" smooth="yes"/>
      <point x="750.7" y="586.4"/>
      <point x="815.7" y="495.5"/>
      <point x="815.7" y="368.6" type="curve" smooth="yes"/>
      <point x="815.7" y="185.6"/>
      <point x="706.8" y="62.5"/>
      <point x="511.9" y="59.0" type="curve" smooth="yes"/>
      <point x="287.6" y="55.5"/>
      <point x="203.2" y="220.0"/>
      <point x="203.2" y="369.8" type="curve" smooth="yes"/>
      <point x="202.2" y="520.2"/>
      <point x="268.2" y="653.2"/>
      <point x="487.5" y="763.1" type="curve"/>
      <point x="391.2" y="791.2" type="line"/>
      <point x="190.6" y="708.6"/>
      <point x="79.6" y="565.6"/>
      <point x="79.6" y="372.3" type="curve" smooth="yes"/>
      <point x="79.6" y="148.3"/>
      <point x="223.2" y="-31.7"/>
    </contour>
  </outline>
</glyph>
<glyph name="nine" format="2">
  <advance width="1098.0"/>
  <unicode hex="0039"/>
  <note>
nine
</note>
  <outline>
    <contour>
      <point x="274.3" y="-36.8" type="line"/>
      <point x="477.0" y="-8.600000000000001"/>
      <point x="617.4" y="40.80000000000001"/>
      <point x="723.0" y="142.7" type="curve" smooth="yes"/>
      <point x="783.4" y="197.6"/>
      <point x="836.0" y="272.6"/>
      <point x="879.0" y="350.1" type="curve" smooth="yes"/>
      <point x="968.9" y="508.0"/>
      <point x="1010.6" y="696.0"/>
      <point x="1010.6" y="888.2" type="curve" smooth="yes"/>
      <point x="1010.6" y="1242.1"/>
      <point x="846.1" y="1451.2"/>
      <point x="544.9" y="1451.1" type="curve" smooth="yes"/>
      <point x="258.2" y="1450.3"/>
      <point x="69.4" y="1247.5"/>
      <point x="69.4" y="976.2" type="curve" smooth="yes"/>
      <point x="69.4" y="695.9"/>
      <point x="254.0" y="503.1"/>
      <point x="517.5" y="503.1" type="curve" smooth="yes"/>
      <point x="684.4" y="503.1"/>
      <point x="813.5" y="617.1"/>
      <point x="912.9" y="780.1" type="curve"/>
      <point x="844.8" y="803.4" type="line"/>
      <point x="860.8" y="587.3"/>
      <point x="758.7" y="433.4"/>
      <point x="728.0" y="369.9" type="curve" smooth="yes"/>
      <point x="628.1" y="203.9"/>
      <point x="508.5" y="132.8"/>
      <point x="291.3" y="100.1" type="curve"/>
    </contour>
    <contour>
      <point x="521.7" y="622.2" type="curve" smooth="yes"/>
      <point x="318.9" y="622.2"/>
      <point x="247.3" y="818.5"/>
      <point x="247.3" y="983.2" type="curve" smooth="yes"/>
      <point x="247.3" y="1170.6"/>
      <point x="341.1" y="1341.2"/>
      <point x="533.6" y="1341.3" type="curve" smooth="yes"/>
      <point x="729.2" y="1342.4"/>
      <point x="826.0" y="1161.2"/>
      <point x="826.8" y="986.3" type="curve" smooth="yes"/>
      <point x="827.6" y="785.6"/>
      <point x="705.8" y="622.2"/>
    </contour>
  </outline>
</glyph>
<glyph name="greater" format="2">
  <advance width="1070.3"/>
  <unicode hex="003E"/>
  <note>
greater
</note>
  <outline>
    <contour>
      <point x="121.8" y="280.8" type="line"/>
      <point x="933.0" y="631.4" type="line"/>
      <point x="933.0" y="733.9" type="line"/>
      <point x="121.8" y="1082.8" type="line"/>
      <point x="121.8" y="947.0" type="line"/>
      <point x="740.0" y="682.3" type="line"/>
      <point x="121.8" y="416.6" type="line"/>
    </contour>
  </outline>
</glyph>
<glyph name="question" format="2">
  <advance width="962.4"/>
  <unicode hex="003F"/>
  <note>
question
</note>
  <outline>
    <contour>
      <point x="387.8" y="448.7" type="curve"/>
      <point x="486.7" y="448.7" type="line"/>
      <point x="467.9" y="473.2"/>
      <point x="443.6" y="572.8"/>
      <point x="443.6" y="616.4" type="curve" smooth="yes"/>
      <point x="443.6" y="956.9"/>
      <point x="857.5" y="855.2"/>
      <point x="857.5" y="1166.6" type="curve" smooth="yes"/>
      <point x="857.5" y="1379.1"/>
      <point x="683.4" y="1462.0"/>
      <point x="435.4" y="1462.0" type="curve" smooth="yes"/>
      <point x="161.60000000000002" y="1462.0"/>
      <point x="57.400000000000006" y="1357.0"/>
      <point x="57.400000000000006" y="1167.2" type="curve" smooth="yes"/>
      <point x="57.400000000000006" y="1155.1"/>
      <point x="57.400000000000006" y="1146.1"/>
      <point x="57.400000000000006" y="1109.8" type="curve"/>
      <point x="217.8" y="1109.8" type="line"/>
      <point x="206.9" y="1161.2"/>
      <point x="204.5" y="1196.6"/>
      <point x="204.5" y="1193.9" type="curve" smooth="yes"/>
      <point x="204.5" y="1311.8"/>
      <point x="297.2" y="1367.9"/>
      <point x="433.4" y="1367.9" type="curve" smooth="yes"/>
      <point x="571.1" y="1367.9"/>
      <point x="673.9" y="1302.2"/>
      <point x="673.9" y="1163.3" type="curve" smooth="yes"/>
      <point x="673.9" y="905.4"/>
      <point x="358.0" y="1040.2"/>
      <point x="358.0" y="604.7" type="curve" smooth="yes"/>
      <point x="358.0" y="559.7"/>
      <point x="361.8" y="508.3"/>
    </contour>
    <contour>
      <point x="439.7" y="-19.6" type="curve" smooth="yes"/>
      <point x="493.3" y="-19.6"/>
      <point x="533.6" y="31.3"/>
      <point x="533.6" y="93.3" type="curve" smooth="yes"/>
      <point x="533.6" y="154.3"/>
      <point x="492.6" y="204.2"/>
      <point x="439.7" y="204.2" type="curve" smooth="yes"/>
      <point x="386.8" y="204.2"/>
      <point x="345.8" y="154.3"/>
      <point x="345.8" y="93.3" type="curve" smooth="yes"/>
      <point x="345.8" y="31.3"/>
      <point x="386.1" y="-19.6"/>
    </contour>
  </outline>
</glyph>
<glyph name="at" format="2">
  <advance width="1778.5"/>
  <unicode hex="0040"/>
  <note>
at
</note>
  <outline>
    <contour>
      <point x="927.8" y="-36.0" type="curve" smooth="yes"/>
      <point x="1232.8" y="-36.0"/>
      <point x="1505.8" y="131.0"/>
      <point x="1642.8" y="392.0" type="curve"/>
      <point x="1521.2" y="387.4" type="line"/>
      <point x="1399.0" y="188.4"/>
      <point x="1179.3" y="62.2"/>
      <point x="927.9" y="62.2" type="curve" smooth="yes"/>
      <point x="549.6" y="62.2"/>
      <point x="240.4" y="354.7"/>
      <point x="240.4" y="713.0" type="curve" smooth="yes"/>
      <point x="240.4" y="1071.3"/>
      <point x="549.6" y="1363.8"/>
      <point x="927.9" y="1363.8" type="curve" smooth="yes"/>
      <point x="1261.1" y="1363.8"/>
      <point x="1507.2" y="1141.1"/>
      <point x="1507.2" y="835.2" type="curve" smooth="yes"/>
      <point x="1507.2" y="740.4"/>
      <point x="1481.2" y="650.0"/>
      <point x="1432.4" y="578.1" type="curve" smooth="yes"/>
      <point x="1392.9" y="515.8"/>
      <point x="1325.1" y="444.5"/>
      <point x="1252.7" y="414.5" type="curve" smooth="yes"/>
      <point x="1220.7" y="419.5"/>
      <point x="1173.7" y="446.0"/>
      <point x="1176.7" y="498.0" type="curve"/>
      <point x="1331.7" y="1095.0" type="line"/>
      <point x="1145.8" y="1095.0" type="line"/>
      <point x="1124.8" y="1022.0" type="line"/>
      <point x="1096.8" y="1089.0"/>
      <point x="1041.8" y="1115.0"/>
      <point x="954.8" y="1115.0" type="curve" smooth="yes"/>
      <point x="678.8" y="1115.0"/>
      <point x="463.8" y="843.0"/>
      <point x="463.8" y="584.0" type="curve" smooth="yes"/>
      <point x="463.8" y="405.0"/>
      <point x="575.8" y="291.0"/>
      <point x="762.8" y="291.0" type="curve" smooth="yes"/>
      <point x="868.8" y="291.0"/>
      <point x="946.7" y="318.1"/>
      <point x="1020.8" y="438.0" type="curve"/>
      <point x="1048.8" y="344.0"/>
      <point x="1102.8" y="304.0"/>
      <point x="1186.8" y="304.0" type="curve" smooth="yes"/>
      <point x="1260.8" y="304.0"/>
      <point x="1330.8" y="331.0"/>
      <point x="1395.8" y="380.0" type="curve" smooth="yes"/>
      <point x="1464.8" y="431.0"/>
      <point x="1509.8" y="487.0"/>
      <point x="1549.8" y="564.0" type="curve" smooth="yes"/>
      <point x="1591.8" y="647.0"/>
      <point x="1612.8" y="736.0"/>
      <point x="1612.8" y="830.0" type="curve" smooth="yes"/>
      <point x="1612.8" y="1209.0"/>
      <point x="1330.8" y="1461.0"/>
      <point x="927.8" y="1461.0" type="curve" smooth="yes"/>
      <point x="488.8" y="1461.0"/>
      <point x="135.8" y="1128.0"/>
      <point x="135.8" y="713.0" type="curve" smooth="yes"/>
      <point x="135.8" y="297.0"/>
      <point x="487.8" y="-36.0"/>
    </contour>
    <contour>
      <point x="798.4" y="393.9" type="curve" smooth="yes"/>
      <point x="702.4" y="393.9"/>
      <point x="641.8" y="456.8"/>
      <point x="641.8" y="566.1" type="curve" smooth="yes"/>
      <point x="641.8" y="797.1"/>
      <point x="800.6" y="1017.3"/>
      <point x="975.5" y="1017.3" type="curve" smooth="yes"/>
      <point x="1044.7" y="1017.3"/>
      <point x="1066.8" y="958.4"/>
      <point x="1066.8" y="860.8" type="curve" smooth="yes"/>
      <point x="1066.8" y="683.1"/>
      <point x="954.2" y="393.9"/>
    </contour>
  </outline>
</glyph>
<glyph name="A" format="2">
  <advance width="1478.0"/>
  <unicode hex="0041"/>
  <note>
A
</note>
  <anchor x="720.3" y="24.0" name="bottom"/>
  <anchor x="1205.7" y="0.0" name="ogonek"/>
  <anchor x="736.4" y="1430.0" name="top"/>
  <outline>
    <contour>
      <point x="79.6" y="0.0" type="line"/>
      <point x="168.8" y="0.0" type="line"/>
      <point x="687.9" y="1206.7" type="line"/>
      <point x="670.6" y="1206.2" type="line"/>
      <point x="1173.2" y="0.0" type="line"/>
      <point x="1398.4" y="0.0" type="line"/>
      <point x="737.5" y="1483.2" type="line"/>
    </contour>
    <contour>
      <point x="280.5" y="394.2" type="line"/>
      <point x="1081.5" y="394.2" type="line"/>
      <point x="1043.5" y="491.5" type="line"/>
      <point x="321.8" y="491.5" type="line"/>
    </contour>
  </outline>
</glyph>
<glyph name="B" format="2">
  <advance width="1242.1"/>
  <unicode hex="0042"/>
  <note>
B
</note>
  <anchor x="587.7" y="24.0" name="bottom"/>
  <anchor x="587.7" y="1430.0" name="top"/>
  <outline>
    <contour>
      <point x="163.4" y="0.0" type="line"/>
      <point x="588.0" y="0.0" type="line" smooth="yes"/>
      <point x="945.2" y="0.0"/>
      <point x="1137.6" y="143.1"/>
      <point x="1137.6" y="408.5" type="curve" smooth="yes"/>
      <point x="1137.6" y="610.9"/>
      <point x="1014.8" y="755.0"/>
      <point x="817.6" y="782.6" type="curve"/>
      <point x="808.7" y="732.1" type="line"/>
      <point x="976.1" y="776.6"/>
      <point x="1082.8" y="883.3"/>
      <point x="1082.8" y="1052.2" type="curve" smooth="yes"/>
      <point x="1082.8" y="1283.2"/>
      <point x="903.1" y="1433.0"/>
      <point x="599.4" y="1433.0" type="curve" smooth="yes"/>
      <point x="163.4" y="1433.0" type="line"/>
    </contour>
    <contour>
      <point x="361.3" y="9.9" type="line"/>
      <point x="361.3" y="776.6" type="line"/>
      <point x="277.6" y="712.9" type="line"/>
      <point x="626.5" y="712.9" type="line" smooth="yes"/>
      <point x="799.7" y="712.9"/>
      <point x="921.4" y="609.3"/>
      <point x="921.4" y="413.9" type="curve" smooth="yes"/>
      <point x="921.4" y="228.5"/>
      <point x="808.1" y="91.30000000000001"/>
      <point x="564.6" y="91.30000000000001" type="curve" smooth="yes"/>
      <point x="208.9" y="91.30000000000001" type="line"/>
    </contour>
    <contour>
      <point x="361.3" y="737.5" type="line"/>
      <point x="361.3" y="1416.4" type="line"/>
      <point x="207.2" y="1341.7" type="line"/>
      <point x="588.0" y="1341.7" type="line" smooth="yes"/>
      <point x="821.8" y="1341.7"/>
      <point x="871.3" y="1174.8"/>
      <point x="871.3" y="1042.3" type="curve" smooth="yes"/>
      <point x="871.3" y="855.1"/>
      <point x="765.7" y="801.5"/>
      <point x="599.4" y="801.5" type="curve" smooth="yes"/>
      <point x="297.3" y="801.5" type="line"/>
    </contour>
  </outline>
</glyph>
<glyph name="C" format="2">
  <advance width="1500.5"/>
  <unicode hex="0043"/>
  <note>
C
</note>
  <anchor x="738.8" y="24.0" name="bottom"/>
  <anchor x="753.79" y="1430.0" name="top"/>
  <outline>
    <contour>
      <point x="810.9" y="-22.2" type="curve" smooth="yes"/>
      <point x="1089.8" y="-22.2"/>
      <point x="1296.3" y="112.9"/>
      <point x="1414.0" y="360.3" type="curve"/>
      <point x="1220.8" y="360.3" type="line"/>
      <point x="1120.4" y="150.7"/>
      <point x="972.0" y="74.5"/>
      <point x="812.3" y="74.5" type="curve" smooth="yes"/>
      <point x="507.9" y="74.5"/>
      <point x="306.0" y="336.4"/>
      <point x="306.0" y="714.7" type="curve" smooth="yes"/>
      <point x="306.0" y="1099.3"/>
      <point x="512.5" y="1355.2"/>
      <point x="808.6" y="1355.2" type="curve" smooth="yes"/>
      <point x="967.4" y="1355.2"/>
      <point x="1125.8" y="1279.1"/>
      <point x="1219.1" y="1069.7" type="curve"/>
      <point x="1403.9" y="1069.7" type="line"/>
      <point x="1313.6" y="1315.2"/>
      <point x="1072.8" y="1450.9"/>
      <point x="808.6" y="1450.9" type="curve" smooth="yes"/>
      <point x="397.9" y="1450.9"/>
      <point x="105.4" y="1144.3"/>
      <point x="105.4" y="713.3" type="curve" smooth="yes"/>
      <point x="105.4" y="267.5"/>
      <point x="406.5" y="-22.2"/>
    </contour>
  </outline>
</glyph>
<glyph name="D" format="2">
  <advance width="1442.4"/>
  <unicode hex="0044"/>
  <note>
D
</note>
  <anchor x="727.2" y="3.0" name="bottom"/>
  <anchor x="269.9" y="715.0" name="center"/>
  <anchor x="727.2" y="1430.0" name="top"/>
  <outline>
    <contour>
      <point x="163.4" y="0.0" type="line"/>
      <point x="552.8" y="0.0" type="line" smooth="yes"/>
      <point x="802.1" y="0.0"/>
      <point x="924.4" y="20.9"/>
      <point x="1066.7" y="113.1" type="curve" smooth="yes"/>
      <point x="1218.8" y="209.0"/>
      <point x="1332.5" y="397.3"/>
      <point x="1332.5" y="716.7" type="curve" smooth="yes"/>
      <point x="1332.5" y="976.0"/>
      <point x="1254.5" y="1169.6"/>
      <point x="1118.1" y="1281.1" type="curve" smooth="yes"/>
      <point x="966.4" y="1405.3"/>
      <point x="816.3" y="1433.0"/>
      <point x="490.5" y="1433.0" type="curve" smooth="yes"/>
      <point x="163.4" y="1433.0" type="line"/>
    </contour>
    <contour>
      <point x="370.3" y="8.3" type="line"/>
      <point x="370.3" y="1424.7" type="line"/>
      <point x="216.5" y="1341.7" type="line"/>
      <point x="546.2" y="1341.7" type="line" smooth="yes"/>
      <point x="959.9" y="1341.7"/>
      <point x="1136.4" y="1152.1"/>
      <point x="1136.4" y="722.0" type="curve" smooth="yes"/>
      <point x="1136.4" y="285.2"/>
      <point x="952.4" y="91.30000000000001"/>
      <point x="540.8" y="91.30000000000001" type="curve" smooth="yes"/>
      <point x="216.5" y="91.30000000000001" type="line"/>
    </contour>
  </outline>
</glyph>
<glyph name="E" format="2">
  <advance width="1129.1"/>
  <unicode hex="0045"/>
  <note>
E
</note>
  <anchor x="570.2" y="24.0" name="bottom"/>
  <anchor x="926.7" y="0.0" name="ogonek"/>
  <anchor x="586.2" y="1430.0" name="top"/>
  <anchor x="1.0" y="1430.0" name="topleft"/>
  <outline>
    <contour>
      <point x="163.4" y="0.0" type="line"/>
      <point x="1029.8" y="0.0" type="line"/>
      <point x="1029.8" y="91.30000000000001" type="line"/>
      <point x="262.0" y="91.30000000000001" type="line"/>
      <point x="361.3" y="9.2" type="line"/>
      <point x="361.3" y="772.7" type="line"/>
      <point x="220.8" y="684.2" type="line"/>
      <point x="1029.8" y="684.2" type="line"/>
      <point x="1029.8" y="775.5" type="line"/>
      <point x="262.0" y="775.5" type="line"/>
      <point x="361.3" y="693.4" type="line"/>
      <point x="361.3" y="1422.7" type="line"/>
      <point x="193.4" y="1341.7" type="line"/>
      <point x="1029.8" y="1341.7" type="line"/>
      <point x="1029.8" y="1433.0" type="line"/>
      <point x="163.4" y="1433.0" type="line"/>
    </contour>
  </outline>
</glyph>
<glyph name="F" format="2">
  <advance width="1095.1"/>
  <unicode hex="0046"/>
  <note>
F
</note>
  <anchor x="559.8" y="24.0" name="bottom"/>
  <anchor x="559.8" y="1430.0" name="top"/>
  <outline>
    <contour>
      <point x="163.4" y="0.0" type="line"/>
      <point x="361.3" y="0.0" type="line"/>
      <point x="361.3" y="761.3" type="line"/>
      <point x="200.0" y="676.2" type="line"/>
      <point x="1005.1" y="676.2" type="line"/>
      <point x="1005.1" y="766.5" type="line"/>
      <point x="207.7" y="766.5" type="line"/>
      <point x="361.3" y="682.8" type="line"/>
      <point x="361.3" y="1416.7" type="line"/>
      <point x="193.4" y="1341.7" type="line"/>
      <point x="1005.1" y="1341.7" type="line"/>
      <point x="1005.1" y="1433.0" type="line"/>
      <point x="163.4" y="1433.0" type="line"/>
    </contour>
  </outline>
</glyph>
<glyph name="G" format="2">
  <advance width="1579.3"/>
  <unicode hex="0047"/>
  <note>
G
</note>
  <anchor x="775.5" y="24.0" name="bottom"/>
  <anchor x="775.5" y="1430.0" name="top"/>
  <outline>
    <contour>
      <point x="806.2" y="-22.2" type="curve" smooth="yes"/>
      <point x="1204.4" y="-22.2"/>
      <point x="1460.9" y="253.0"/>
      <point x="1491.5" y="636.0" type="curve"/>
      <point x="1299.2" y="636.0" type="line"/>
      <point x="1269.7" y="299.9"/>
      <point x="1078.8" y="75.9"/>
      <point x="805.2" y="69.5" type="curve"/>
      <point x="509.0" y="76.9"/>
      <point x="311.0" y="337.4"/>
      <point x="311.0" y="713.7" type="curve" smooth="yes"/>
      <point x="311.0" y="1095.2"/>
      <point x="513.8" y="1354.8"/>
      <point x="805.2" y="1359.2" type="curve"/>
      <point x="989.2" y="1356.5"/>
      <point x="1135.4" y="1254.1"/>
      <point x="1219.8" y="1075.0" type="curve"/>
      <point x="1424.5" y="1075.0" type="line"/>
      <point x="1323.6" y="1299.7"/>
      <point x="1082.7" y="1450.9"/>
      <point x="805.2" y="1450.9" type="curve" smooth="yes"/>
      <point x="385.6" y="1450.9"/>
      <point x="105.4" y="1128.2"/>
      <point x="105.4" y="714.7" type="curve" smooth="yes"/>
      <point x="105.4" y="292.6"/>
      <point x="376.6" y="-22.2"/>
    </contour>
    <contour>
      <point x="909.6" y="544.4" type="line"/>
      <point x="1398.1" y="544.4" type="line"/>
      <point x="1398.1" y="635.7" type="line"/>
      <point x="909.6" y="635.7" type="line"/>
    </contour>
  </outline>
</glyph>
<glyph name="H" format="2">
  <advance width="1559.9"/>
  <unicode hex="0048"/>
  <note>
H
</note>
  <anchor x="780.1" y="24.0" name="bottom"/>
  <anchor x="780.1" y="715.0" name="center"/>
  <anchor x="780.1" y="1430.0" name="top"/>
  <anchor x="57.0" y="1430.0" name="topleft"/>
  <outline>
    <contour>
      <point x="163.4" y="0.0" type="line"/>
      <point x="359.3" y="0.0" type="line"/>
      <point x="359.3" y="775.5" type="line"/>
      <point x="222.6" y="688.2" type="line"/>
      <point x="1338.5" y="688.2" type="line"/>
      <point x="1199.9" y="775.5" type="line"/>
      <point x="1199.9" y="0.0" type="line"/>
      <point x="1396.5" y="0.0" type="line"/>
      <point x="1396.5" y="1433.0" type="line"/>
      <point x="1199.9" y="1433.0" type="line"/>
      <point x="1199.9" y="693.2" type="line"/>
      <point x="1338.5" y="780.5" type="line"/>
      <point x="222.6" y="780.5" type="line"/>
      <point x="359.3" y="693.2" type="line"/>
      <point x="359.3" y="1433.0" type="line"/>
      <point x="163.4" y="1433.0" type="line"/>
    </contour>
  </outline>
</glyph>
<glyph name="I" format="2">
  <advance width="523.7"/>
  <unicode hex="0049"/>
  <note>
I
</note>
  <anchor x="262.0" y="24.0" name="bottom"/>
  <anchor x="289.8" y="0.0" name="ogonek"/>
  <anchor x="262.0" y="1430.0" name="top"/>
  <anchor x="27.299999999999997" y="1430.0" name="topleft"/>
  <outline>
    <contour>
      <point x="163.4" y="0.0" type="line"/>
      <point x="361.3" y="0.0" type="line"/>
      <point x="361.3" y="1433.0" type="line"/>
      <point x="163.4" y="1433.0" type="line"/>
    </contour>
  </outline>
</glyph>
<glyph name="J" format="2">
  <advance width="823.9"/>
  <unicode hex="004A"/>
  <note>
J
</note>
  <anchor x="441.7" y="21.200000000000003" name="bottom"/>
  <anchor x="441.7" y="1434.2" name="top"/>
  <outline>
    <contour>
      <point x="80.1" y="-29.6" type="line"/>
      <point x="143.4" y="-110.6"/>
      <point x="265.5" y="-154.2"/>
      <point x="358.0" y="-154.2" type="curve" smooth="yes"/>
      <point x="568.9" y="-154.2"/>
      <point x="663.5" y="23.700000000000003"/>
      <point x="663.5" y="346.7" type="curve" smooth="yes"/>
      <point x="663.5" y="1433.7" type="line"/>
      <point x="466.3" y="1433.7" type="line"/>
      <point x="466.3" y="254.6" type="line" smooth="yes"/>
      <point x="466.3" y="-29.0"/>
      <point x="394.2" y="-50.4"/>
      <point x="339.2" y="-50.4" type="curve" smooth="yes"/>
      <point x="241.6" y="-50.4"/>
      <point x="147.5" y="17.900000000000006"/>
      <point x="80.1" y="99.1" type="curve"/>
    </contour>
  </outline>
</glyph>
<glyph name="K" format="2">
  <advance width="1405.8"/>
  <unicode hex="004B"/>
  <note>
K
</note>
  <anchor x="666.3" y="24.0" name="bottom"/>
  <anchor x="666.3" y="1430.0" name="top"/>
  <outline>
    <contour>
      <point x="163.4" y="0.0" type="line"/>
      <point x="361.3" y="0.0" type="line"/>
      <point x="361.3" y="1433.0" type="line"/>
      <point x="163.4" y="1433.0" type="line"/>
    </contour>
    <contour>
      <point x="338.7" y="378.3" type="line"/>
      <point x="1242.5" y="1433.0" type="line"/>
      <point x="1095.2" y="1433.0" type="line"/>
      <point x="254.4" y="441.5" type="line"/>
    </contour>
    <contour>
      <point x="1108.3" y="0.0" type="line"/>
      <point x="1329.3" y="0.0" type="line"/>
      <point x="678.4" y="820.1" type="line"/>
      <point x="546.1" y="712.4" type="line"/>
    </contour>
  </outline>
</glyph>
<glyph name="L" format="2">
  <advance width="1046.0"/>
  <unicode hex="004C"/>
  <note>
L
</note>
  <anchor x="523.5" y="24.0" name="bottom"/>
  <anchor x="254.5" y="715.0" name="center"/>
  <anchor x="704.6" y="735.0" name="dot"/>
  <anchor x="951.8" y="10.0" name="ogonek"/>
  <anchor x="366.5" y="1430.0" name="top"/>
  <anchor x="-4.300000000000004" y="1430.0" name="topleft"/>
  <anchor x="821.0" y="1430.0" name="topright"/>
  <outline>
    <contour>
      <point x="163.4" y="0.0" type="line"/>
      <point x="968.3" y="0.0" type="line"/>
      <point x="968.3" y="81.30000000000001" type="line"/>
      <point x="206.2" y="81.30000000000001" type="line"/>
      <point x="361.8" y="17.3" type="line"/>
      <point x="361.8" y="1430.0" type="line"/>
      <point x="163.4" y="1430.0" type="line"/>
    </contour>
  </outline>
</glyph>
<glyph name="M" format="2">
  <advance width="1682.6"/>
  <unicode hex="004D"/>
  <note>
M
</note>
  <anchor x="841.3" y="24.0" name="bottom"/>
  <anchor x="841.3" y="1430.0" name="top"/>
  <outline>
    <contour>
      <point x="163.4" y="0.0" type="line"/>
      <point x="299.5" y="0.0" type="line"/>
      <point x="299.5" y="1296.4" type="line"/>
      <point x="210.9" y="1271.5" type="line"/>
      <point x="827.4" y="38.7" type="line"/>
      <point x="1402.2" y="1305.5" type="line"/>
      <point x="1326.3" y="1258.4" type="line"/>
      <point x="1326.3" y="0.0" type="line"/>
      <point x="1519.2" y="0.0" type="line"/>
      <point x="1519.2" y="1433.0" type="line"/>
      <point x="1317.3" y="1433.0" type="line"/>
      <point x="777.7" y="250.1" type="line"/>
      <point x="913.8" y="283.7" type="line"/>
      <point x="342.1" y="1433.0" type="line"/>
      <point x="163.4" y="1433.0" type="line"/>
    </contour>
  </outline>
</glyph>
<glyph name="N" format="2">
  <advance width="1509.9"/>
  <unicode hex="004E"/>
  <note>
N
</note>
  <anchor x="755.1" y="24.0" name="bottom"/>
  <anchor x="755.1" y="1430.0" name="top"/>
  <outline>
    <contour>
      <point x="168.4" y="0.0" type="line"/>
      <point x="303.5" y="0.0" type="line"/>
      <point x="303.5" y="1222.4" type="line"/>
      <point x="204.2" y="1268.6" type="line"/>
      <point x="1179.6" y="0.0" type="line"/>
      <point x="1346.5" y="0.0" type="line"/>
      <point x="1346.5" y="1433.0" type="line"/>
      <point x="1210.4" y="1433.0" type="line"/>
      <point x="1210.4" y="145.2" type="line"/>
      <point x="1298.0" y="164.1" type="line"/>
      <point x="335.0" y="1433.0" type="line"/>
      <point x="163.4" y="1433.0" type="line"/>
    </contour>
  </outline>
</glyph>
<glyph name="O" format="2">
  <advance width="1607.4"/>
  <unicode hex="004F"/>
  <note>
O
</note>
  <anchor x="804.2" y="3.0" name="bottom"/>
  <anchor x="804.2" y="715.0" name="center"/>
  <anchor x="926.3" y="0.0" name="ogonek"/>
  <anchor x="804.2" y="1430.0" name="top"/>
  <anchor x="64.19999999999999" y="1430.0" name="topleft"/>
  <anchor x="1400.0" y="1430.0" name="topright"/>
  <outline>
    <contour>
      <point x="804.2" y="-22.2" type="curve" smooth="yes"/>
      <point x="1230.1" y="-22.2"/>
      <point x="1502.0" y="293.9"/>
      <point x="1502.0" y="711.7" type="curve" smooth="yes"/>
      <point x="1502.0" y="1129.8"/>
      <point x="1227.8" y="1450.9"/>
      <point x="804.2" y="1450.9" type="curve" smooth="yes"/>
      <point x="382.6" y="1450.9"/>
      <point x="105.4" y="1130.2"/>
      <point x="105.4" y="711.7" type="curve" smooth="yes"/>
      <point x="105.4" y="294.6"/>
      <point x="378.6" y="-22.2"/>
    </contour>
    <contour>
      <point x="804.2" y="70.5" type="curve"/>
      <point x="509.0" y="77.9"/>
      <point x="311.0" y="338.4"/>
      <point x="311.0" y="712.7" type="curve" smooth="yes"/>
      <point x="311.0" y="1093.2"/>
      <point x="513.8" y="1353.8"/>
      <point x="804.2" y="1359.2" type="curve"/>
      <point x="1094.6" y="1353.8"/>
      <point x="1297.4" y="1093.2"/>
      <point x="1297.4" y="712.7" type="curve" smooth="yes"/>
      <point x="1297.4" y="337.4"/>
      <point x="1100.4" y="77.9"/>
    </contour>
  </outline>
</glyph>
<glyph name="P" format="2">
  <advance width="1118.3"/>
  <unicode hex="0050"/>
  <note>
P
</note>
  <anchor x="546.3" y="-56.0" name="bottom"/>
  <anchor x="546.3" y="1430.0" name="top"/>
  <outline>
    <contour>
      <point x="163.4" y="0.0" type="line"/>
      <point x="356.3" y="0.0" type="line"/>
      <point x="356.3" y="638.5" type="line"/>
      <point x="268.7" y="581.8" type="line"/>
      <point x="543.5" y="581.8" type="line" smooth="yes"/>
      <point x="674.9" y="581.8"/>
      <point x="773.1" y="607.9"/>
      <point x="859.0" y="660.2" type="curve" smooth="yes"/>
      <point x="966.1" y="726.4"/>
      <point x="1023.3" y="861.2"/>
      <point x="1023.3" y="1006.4" type="curve" smooth="yes"/>
      <point x="1023.3" y="1141.9"/>
      <point x="977.9" y="1252.9"/>
      <point x="896.1" y="1320.8" type="curve" smooth="yes"/>
      <point x="803.9" y="1394.8"/>
      <point x="685.6" y="1433.0"/>
      <point x="520.8" y="1433.0" type="curve" smooth="yes"/>
      <point x="163.4" y="1433.0" type="line"/>
    </contour>
    <contour>
      <point x="356.3" y="600.7" type="line"/>
      <point x="356.3" y="1417.0" type="line"/>
      <point x="186.2" y="1348.7" type="line"/>
      <point x="501.7" y="1348.7" type="line" smooth="yes"/>
      <point x="735.7" y="1348.7"/>
      <point x="828.1" y="1233.7"/>
      <point x="828.1" y="996.8" type="curve" smooth="yes"/>
      <point x="828.1" y="806.6"/>
      <point x="744.3" y="671.1"/>
      <point x="501.7" y="671.1" type="curve" smooth="yes"/>
      <point x="306.1" y="671.1" type="line"/>
    </contour>
  </outline>
</glyph>
<glyph name="Q" format="2">
  <advance width="1607.4"/>
  <unicode hex="0051"/>
  <note>
Q
</note>
  <anchor x="789.8" y="47.5" name="bottom"/>
  <anchor x="789.8" y="1401.5" name="top"/>
  <anchor x="804.2" y="738.65285" name="center"/>
  <anchor x="926.3" y="20.8" name="ogonek"/>
  <anchor x="64.19999999999999" y="1456.5057" name="topleft"/>
  <anchor x="1400.0" y="1456.5057" name="topright"/>
  <outline>
    <contour>
      <point x="1047.3" y="-385.6" type="curve" smooth="yes"/>
      <point x="1154.9" y="-385.6"/>
      <point x="1185.9" y="-372.6"/>
      <point x="1181.3" y="-285.1" type="curve"/>
      <point x="1148.1" y="-285.1"/>
      <point x="1114.9" y="-285.1"/>
      <point x="1081.7" y="-285.1" type="curve" smooth="yes"/>
      <point x="951.0" y="-285.1"/>
      <point x="871.7" y="-250.3"/>
      <point x="871.7" y="-146.8" type="curve" smooth="yes"/>
      <point x="871.7" y="52.400000000000006" type="line"/>
      <point x="686.8" y="52.400000000000006" type="line"/>
      <point x="686.8" y="-150.0" type="line" smooth="yes"/>
      <point x="686.8" y="-245.0"/>
      <point x="746.7" y="-312.1"/>
      <point x="824.4" y="-346.6" type="curve" smooth="yes"/>
      <point x="886.0" y="-374.2"/>
      <point x="941.7" y="-385.6"/>
    </contour>
    <component base="O" yScale="1.00399" yOffset="20.8"/>
  </outline>
</glyph>
<glyph name="R" format="2">
  <advance width="1179.3"/>
  <unicode hex="0052"/>
  <note>
R
</note>
  <anchor x="581.8" y="24.0" name="bottom"/>
  <anchor x="581.8" y="1430.0" name="top"/>
  <outline>
    <contour>
      <point x="163.4" y="0.0" type="line"/>
      <point x="356.3" y="0.0" type="line"/>
      <point x="356.3" y="705.3" type="line"/>
      <point x="253.8" y="649.8" type="line"/>
      <point x="617.1" y="649.8" type="line"/>
      <point x="631.7" y="649.8" type="line"/>
      <point x="818.4" y="671.5"/>
      <point x="1023.3" y="761.3"/>
      <point x="1023.3" y="1048.4" type="curve" smooth="yes"/>
      <point x="1023.3" y="1312.6"/>
      <point x="788.9" y="1433.0"/>
      <point x="520.8" y="1433.0" type="curve" smooth="yes"/>
      <point x="163.4" y="1433.0" type="line"/>
    </contour>
    <contour>
      <point x="290.8" y="734.1" type="line"/>
      <point x="356.3" y="669.5" type="line"/>
      <point x="356.3" y="1422.2" type="line"/>
      <point x="186.8" y="1348.7" type="line"/>
      <point x="501.7" y="1348.7" type="line" smooth="yes"/>
      <point x="693.7" y="1348.7"/>
      <point x="828.1" y="1273.2"/>
      <point x="828.1" y="1052.8" type="curve" smooth="yes"/>
      <point x="828.1" y="837.1"/>
      <point x="709.3" y="734.1"/>
      <point x="529.7" y="734.1" type="curve" smooth="yes"/>
    </contour>
    <contour>
      <point x="470.3" y="649.8" type="line"/>
      <point x="529.0" y="649.8"/>
      <point x="609.1" y="651.0"/>
      <point x="681.7" y="603.9" type="curve" smooth="yes"/>
      <point x="741.1" y="565.5"/>
      <point x="779.7" y="533.9"/>
      <point x="844.0" y="229.0" type="curve" smooth="yes"/>
      <point x="846.8" y="214.39999999999998"/>
      <point x="881.7" y="42.0"/>
      <point x="891.1" y="0.0" type="curve"/>
      <point x="1078.8" y="0.0" type="line"/>
      <point x="1058.4" y="85.2"/>
      <point x="1032.1" y="201.2"/>
      <point x="1012.5" y="300.5" type="curve" smooth="yes"/>
      <point x="978.4" y="469.0"/>
      <point x="936.2" y="564.6"/>
      <point x="891.7" y="611.6" type="curve" smooth="yes"/>
      <point x="827.0" y="677.4"/>
      <point x="779.9" y="675.3"/>
      <point x="741.4" y="681.4" type="curve"/>
    </contour>
  </outline>
</glyph>
<glyph name="S" format="2">
  <advance width="1188.7"/>
  <unicode hex="0053"/>
  <note>
S
</note>
  <anchor x="585.4" y="24.0" name="bottom"/>
  <anchor x="585.4" y="1430.0" name="top"/>
  <outline>
    <contour>
      <point x="594.4" y="-32.7" type="curve" smooth="yes"/>
      <point x="937.5" y="-32.7"/>
      <point x="1087.4" y="146.3"/>
      <point x="1087.4" y="409.0" type="curve" smooth="yes"/>
      <point x="1087.4" y="643.5"/>
      <point x="918.4" y="756.4"/>
      <point x="633.1" y="822.8" type="curve" smooth="yes"/>
      <point x="417.4" y="874.0"/>
      <point x="328.9" y="987.0"/>
      <point x="328.9" y="1106.7" type="curve" smooth="yes"/>
      <point x="328.9" y="1272.8"/>
      <point x="426.5" y="1368.8"/>
      <point x="574.9" y="1368.8" type="curve" smooth="yes"/>
      <point x="759.9" y="1368.8"/>
      <point x="872.9" y="1233.1"/>
      <point x="880.4" y="1102.7" type="curve"/>
      <point x="1054.8" y="1102.7" type="line"/>
      <point x="1026.3" y="1319.5"/>
      <point x="846.0" y="1464.7"/>
      <point x="586.5" y="1464.7" type="curve" smooth="yes"/>
      <point x="287.8" y="1464.7"/>
      <point x="144.1" y="1306.4"/>
      <point x="144.1" y="1077.8" type="curve" smooth="yes"/>
      <point x="144.1" y="870.7"/>
      <point x="301.9" y="753.4"/>
      <point x="550.7" y="684.8" type="curve" smooth="yes"/>
      <point x="787.7" y="614.6"/>
      <point x="906.5" y="555.9"/>
      <point x="906.5" y="362.9" type="curve" smooth="yes"/>
      <point x="906.5" y="200.9"/>
      <point x="825.7" y="67.2"/>
      <point x="602.0" y="67.2" type="curve" smooth="yes"/>
      <point x="411.3" y="67.2"/>
      <point x="288.2" y="173.7"/>
      <point x="266.2" y="393.3" type="curve"/>
      <point x="93.8" y="393.3" type="line"/>
      <point x="111.0" y="119.5"/>
      <point x="282.7" y="-32.7"/>
    </contour>
  </outline>
</glyph>
<glyph name="T" format="2">
  <advance width="1271.1"/>
  <unicode hex="0054"/>
  <note>
T
</note>
  <anchor x="635.7" y="24.0" name="bottom"/>
  <anchor x="635.7" y="715.0" name="center"/>
  <anchor x="635.7" y="1430.0" name="top"/>
  <outline>
    <contour>
      <point x="536.1" y="0.0" type="line"/>
      <point x="735.0" y="0.0" type="line"/>
      <point x="735.0" y="1411.4" type="line"/>
      <point x="592.8" y="1298.7" type="line"/>
      <point x="1192.4" y="1298.7" type="line"/>
      <point x="1192.4" y="1433.0" type="line"/>
      <point x="78.7" y="1433.0" type="line"/>
      <point x="78.7" y="1298.7" type="line"/>
      <point x="678.3" y="1298.7" type="line"/>
      <point x="536.1" y="1411.4" type="line"/>
    </contour>
  </outline>
</glyph>
<glyph name="U" format="2">
  <advance width="1489.4"/>
  <unicode hex="0055"/>
  <note>
U
</note>
  <anchor x="745.7" y="24.0" name="bottom"/>
  <anchor x="895.4" y="0.0" name="ogonek"/>
  <anchor x="745.7" y="1430.0" name="top"/>
  <anchor x="1384.7" y="1430.0" name="topright"/>
  <outline>
    <contour>
      <point x="745.4" y="-32.0" type="curve" smooth="yes"/>
      <point x="1082.4" y="-32.0"/>
      <point x="1349.9" y="236.8"/>
      <point x="1349.9" y="548.7" type="curve" smooth="yes"/>
      <point x="1349.9" y="1433.0" type="line"/>
      <point x="1212.4" y="1433.0" type="line"/>
      <point x="1208.4" y="527.2" type="line" smooth="yes"/>
      <point x="1207.4" y="269.2"/>
      <point x="996.7" y="60.300000000000004"/>
      <point x="744.0" y="60.300000000000004" type="curve" smooth="yes"/>
      <point x="507.9" y="60.300000000000004"/>
      <point x="322.8" y="244.2"/>
      <point x="322.8" y="542.2" type="curve" smooth="yes"/>
      <point x="322.8" y="1433.0" type="line"/>
      <point x="140.9" y="1433.0" type="line"/>
      <point x="140.9" y="538.7" type="line" smooth="yes"/>
      <point x="140.9" y="199.2"/>
      <point x="430.6" y="-32.0"/>
    </contour>
  </outline>
</glyph>
<glyph name="V" format="2">
  <advance width="1431.9"/>
  <unicode hex="0056"/>
  <note>
V
</note>
  <anchor x="716.8" y="24.0" name="bottom"/>
  <anchor x="716.8" y="1430.0" name="top"/>
  <outline>
    <contour>
      <point x="720.7" y="-35.5" type="line"/>
      <point x="1350.6" y="1432.3" type="line"/>
      <point x="1244.2" y="1432.3" type="line"/>
      <point x="715.5" y="172.0" type="line"/>
      <point x="794.9" y="242.5" type="line"/>
      <point x="289.7" y="1433.0" type="line"/>
      <point x="80.6" y="1432.3" type="line"/>
    </contour>
  </outline>
</glyph>
<glyph name="W" format="2">
  <advance width="2023.9"/>
  <unicode hex="0057"/>
  <note>
W
</note>
  <anchor x="1012.1" y="24.0" name="bottom"/>
  <anchor x="1012.1" y="1430.0" name="top"/>
  <outline>
    <contour>
      <point x="1352.2" y="-30.5" type="line"/>
      <point x="1942.6" y="1432.3" type="line"/>
      <point x="1876.6" y="1432.3" type="line"/>
      <point x="1357.4" y="155.1" type="line"/>
      <point x="1414.0" y="272.0" type="line"/>
      <point x="918.4" y="1433.0" type="line"/>
      <point x="710.0" y="1432.3" type="line"/>
    </contour>
    <contour>
      <point x="719.8" y="-30.5" type="line"/>
      <point x="1061.6" y="819.1" type="line"/>
      <point x="1040.5" y="934.6" type="line"/>
      <point x="725.4" y="156.3" type="line"/>
      <point x="785.6" y="266.0" type="line"/>
      <point x="289.0" y="1433.0" type="line"/>
      <point x="80.6" y="1432.3" type="line"/>
    </contour>
    <contour>
      <point x="1080.5" y="794.1" type="line"/>
      <point x="1330.7" y="1432.3" type="line"/>
      <point x="1263.7" y="1432.3" type="line"/>
      <point x="1058.7" y="909.6" type="line"/>
    </contour>
  </outline>
</glyph>
<glyph name="X" format="2">
  <advance width="1321.9"/>
  <unicode hex="0058"/>
  <note>
X
</note>
  <anchor x="660.3" y="24.0" name="bottom"/>
  <anchor x="660.3" y="1430.0" name="top"/>
  <outline>
    <contour>
      <point x="993.8" y="0.0" type="line"/>
      <point x="1239.2" y="0.0" type="line"/>
      <point x="328.4" y="1429.4" type="line"/>
      <point x="82.7" y="1429.4" type="line"/>
    </contour>
    <contour>
      <point x="95.6" y="0.0" type="line"/>
      <point x="217.2" y="0.0" type="line"/>
      <point x="689.6" y="732.8" type="line"/>
      <point x="621.0" y="816.0" type="line"/>
    </contour>
    <contour>
      <point x="669.2" y="675.9" type="line"/>
      <point x="1155.5" y="1433.0" type="line"/>
      <point x="1034.9" y="1433.0" type="line"/>
      <point x="599.6" y="759.1" type="line"/>
    </contour>
  </outline>
</glyph>
<glyph name="Y" format="2">
  <advance width="1115.4"/>
  <unicode hex="0059"/>
  <note>
Y
</note>
  <anchor x="563.7" y="10.0" name="bottom"/>
  <anchor x="557.2" y="1430.0" name="top"/>
  <anchor x="30.4" y="1430.0" name="topleft"/>
  <outline>
    <contour>
      <point x="471.9" y="0.0" type="line"/>
      <point x="669.8" y="0.0" type="line"/>
      <point x="669.8" y="618.1" type="line"/>
      <point x="1035.5" y="1433.0" type="line"/>
      <point x="937.0" y="1433.0" type="line"/>
      <point x="536.2" y="536.7" type="line"/>
      <point x="652.1" y="685.3" type="line"/>
      <point x="311.9" y="1433.0" type="line"/>
      <point x="78.9" y="1433.0" type="line"/>
      <point x="471.9" y="610.0" type="line"/>
    </contour>
  </outline>
</glyph>
<glyph name="Z" format="2">
  <advance width="1284.4"/>
  <unicode hex="005A"/>
  <note>
Z
</note>
  <anchor x="642.2" y="24.0" name="bottom"/>
  <anchor x="642.2" y="715.0" name="center"/>
  <anchor x="642.2" y="1430.0" name="top"/>
  <outline>
    <contour>
      <point x="77.5" y="0.0" type="line"/>
      <point x="1190.5" y="0.0" type="line"/>
      <point x="1190.9" y="123.4" type="line"/>
      <point x="146.7" y="123.4" type="line"/>
      <point x="263.2" y="13.7" type="line"/>
      <point x="1187.0" y="1433.0" type="line"/>
      <point x="177.1" y="1433.0" type="line"/>
      <point x="177.1" y="1309.6" type="line"/>
      <point x="1084.9" y="1309.6" type="line"/>
      <point x="998.9" y="1416.2" type="line"/>
    </contour>
  </outline>
</glyph>
<glyph name="bracketright" format="2">
  <advance width="626.8"/>
  <unicode hex="005D"/>
  <note>
bracketright
</note>
  <outline>
    <contour>
      <point x="79.9" y="-395.8" type="line"/>
      <point x="467.4" y="-395.8" type="line"/>
      <point x="467.4" y="1463.7" type="line"/>
      <point x="79.9" y="1463.7" type="line"/>
      <point x="79.9" y="1343.1" type="line"/>
      <point x="346.1" y="1343.1" type="line"/>
      <point x="346.1" y="-274.2" type="line"/>
      <point x="79.9" y="-274.2" type="line"/>
    </contour>
  </outline>
</glyph>
<glyph name="asciicircum" format="2">
  <advance width="1107.4"/>
  <unicode hex="005E"/>
  <note>
asciicircum
</note>
  <outline>
    <contour>
      <point x="122.5" y="815.1" type="line"/>
      <point x="265.9" y="815.1" type="line"/>
      <point x="598.9" y="1373.8" type="line"/>
      <point x="505.7" y="1376.4" type="line"/>
      <point x="841.5" y="815.1" type="line"/>
      <point x="984.9" y="815.1" type="line"/>
      <point x="607.2" y="1448.9" type="line"/>
      <point x="498.2" y="1448.9" type="line"/>
    </contour>
  </outline>
</glyph>
<glyph name="underscore" format="2">
  <advance width="1442.4"/>
  <unicode hex="005F"/>
  <note>
underscore
</note>
  <outline>
    <contour>
      <point x="81.7" y="-369.4" type="line"/>
      <point x="1360.7" y="-369.4" type="line"/>
      <point x="1360.7" y="-254.2" type="line"/>
      <point x="81.7" y="-254.2" type="line"/>
    </contour>
  </outline>
</glyph>
<glyph name="a" format="2">
  <advance width="1170.5"/>
  <unicode hex="0061"/>
  <note>
a
</note>
  <anchor x="536.2" y="11.0" name="bottom"/>
  <anchor x="976.2" y="0.0" name="ogonek"/>
  <anchor x="539.2" y="949.5" name="top"/>
  <outline>
    <contour>
      <point x="515.1" y="-31.2" type="curve" smooth="yes"/>
      <point x="730.9" y="-31.2"/>
      <point x="863.6" y="86.6"/>
      <point x="914.4" y="300.7" type="curve"/>
      <point x="870.3" y="342.1" type="line"/>
      <point x="864.7" y="0.0" type="line"/>
      <point x="1048.2" y="0.0" type="line"/>
      <point x="1048.2" y="946.4" type="line"/>
      <point x="863.0" y="946.4" type="line"/>
      <point x="863.0" y="587.0" type="line"/>
      <point x="911.0" y="624.6" type="line"/>
      <point x="863.6" y="841.5"/>
      <point x="726.6" y="973.4"/>
      <point x="512.8" y="973.4" type="curve" smooth="yes"/>
      <point x="241.9" y="973.4"/>
      <point x="75.3" y="757.2"/>
      <point x="75.3" y="460.4" type="curve" smooth="yes"/>
      <point x="75.3" y="166.0"/>
      <point x="243.8" y="-31.2"/>
    </contour>
    <contour>
      <point x="539.3" y="65.7" type="curve" smooth="yes"/>
      <point x="357.8" y="65.7"/>
      <point x="255.1" y="200.0"/>
      <point x="255.1" y="468.4" type="curve" smooth="yes"/>
      <point x="255.1" y="741.0"/>
      <point x="362.7" y="875.5"/>
      <point x="537.0" y="875.5" type="curve" smooth="yes"/>
      <point x="715.1" y="875.5"/>
      <point x="838.9" y="705.2"/>
      <point x="838.9" y="458.4" type="curve" smooth="yes"/>
      <point x="838.9" y="211.1"/>
      <point x="711.0" y="65.7"/>
    </contour>
  </outline>
</glyph>
<glyph name="b" format="2">
  <advance width="1177.7"/>
  <unicode hex="0062"/>
  <note>
b
</note>
  <anchor x="555.4" y="33.0" name="bottom"/>
  <anchor x="555.4" y="1518.0" name="top"/>
  <outline>
    <contour>
      <point x="663.3" y="-27.2" type="curve" smooth="yes"/>
      <point x="934.3" y="-27.2"/>
      <point x="1103.1" y="169.7"/>
      <point x="1103.1" y="462.4" type="curve" smooth="yes"/>
      <point x="1103.1" y="757.5"/>
      <point x="936.8" y="973.4"/>
      <point x="665.6" y="973.4" type="curve" smooth="yes"/>
      <point x="452.1" y="973.4"/>
      <point x="315.2" y="841.9"/>
      <point x="267.1" y="626.3" type="curve"/>
      <point x="315.4" y="587.0" type="line"/>
      <point x="315.4" y="1518.0" type="line"/>
      <point x="132.2" y="1518.0" type="line"/>
      <point x="132.2" y="0.0" type="line"/>
      <point x="313.1" y="0.0" type="line"/>
      <point x="313.1" y="341.8" type="line"/>
      <point x="264.1" y="303.2" type="line"/>
      <point x="315.2" y="91.2"/>
      <point x="448.3" y="-27.2"/>
    </contour>
    <contour>
      <point x="639.1" y="68.7" type="curve" smooth="yes"/>
      <point x="466.7" y="68.7"/>
      <point x="338.8" y="214.4"/>
      <point x="338.8" y="461.4" type="curve" smooth="yes"/>
      <point x="338.8" y="706.8"/>
      <point x="462.6" y="876.8"/>
      <point x="641.4" y="876.8" type="curve" smooth="yes"/>
      <point x="815.4" y="876.8"/>
      <point x="928.9" y="743.0"/>
      <point x="928.9" y="470.4" type="curve" smooth="yes"/>
      <point x="928.9" y="203.0"/>
      <point x="820.6" y="68.7"/>
    </contour>
  </outline>
</glyph>
<glyph name="c" format="2">
  <advance width="887.0"/>
  <unicode hex="0063"/>
  <note>
c
</note>
  <anchor x="488.1" y="-23.0" name="bottom"/>
  <anchor x="522.1" y="949.5" name="top"/>
  <outline>
    <contour>
      <point x="532.4" y="-34.7" type="curve" smooth="yes"/>
      <point x="639.3" y="-34.7"/>
      <point x="742.7" y="-3.0999999999999996"/>
      <point x="821.6" y="64.7" type="curve"/>
      <point x="821.6" y="177.1" type="line"/>
      <point x="741.4" y="108.9"/>
      <point x="634.6" y="61.900000000000006"/>
      <point x="539.7" y="61.900000000000006" type="curve" smooth="yes"/>
      <point x="368.6" y="61.900000000000006"/>
      <point x="258.5" y="215.7"/>
      <point x="258.5" y="465.8" type="curve" smooth="yes"/>
      <point x="258.5" y="725.9"/>
      <point x="368.9" y="875.8"/>
      <point x="539.0" y="875.8" type="curve" smooth="yes"/>
      <point x="636.0" y="875.8"/>
      <point x="741.0" y="829.1"/>
      <point x="821.3" y="761.2" type="curve"/>
      <point x="821.3" y="873.0" type="line"/>
      <point x="743.1" y="940.1"/>
      <point x="638.1" y="973.4"/>
      <point x="533.1" y="973.4" type="curve" smooth="yes"/>
      <point x="279.4" y="973.4"/>
      <point x="75.3" y="787.7"/>
      <point x="75.3" y="466.5" type="curve" smooth="yes"/>
      <point x="75.3" y="146.0"/>
      <point x="280.1" y="-34.7"/>
    </contour>
  </outline>
</glyph>
<glyph name="d" format="2">
  <advance width="1177.4"/>
  <unicode hex="0064"/>
  <note>
d
</note>
  <anchor x="564.0" y="33.0" name="bottom"/>
  <anchor x="947.2" y="1313.6" name="center"/>
  <anchor x="621.9" y="1518.0" name="top"/>
  <anchor x="1194.5" y="1518.0" name="topright"/>
  <outline>
    <contour>
      <point x="515.1" y="-34.9" type="curve" smooth="yes"/>
      <point x="729.8" y="-34.9"/>
      <point x="863.5" y="85.8"/>
      <point x="914.6" y="299.8" type="curve"/>
      <point x="864.3" y="338.8" type="line"/>
      <point x="864.3" y="-7.0" type="line"/>
      <point x="1045.2" y="-7.0" type="line"/>
      <point x="1045.2" y="1525.7" type="line"/>
      <point x="863.3" y="1525.7" type="line"/>
      <point x="863.3" y="586.3" type="line"/>
      <point x="911.3" y="625.3" type="line"/>
      <point x="863.2" y="843.2"/>
      <point x="726.6" y="974.4"/>
      <point x="512.8" y="974.4" type="curve" smooth="yes"/>
      <point x="241.9" y="974.4"/>
      <point x="75.3" y="757.7"/>
      <point x="75.3" y="459.2" type="curve" smooth="yes"/>
      <point x="75.3" y="164.5"/>
      <point x="244.1" y="-34.9"/>
    </contour>
    <contour>
      <point x="539.3" y="62.0" type="curve" smooth="yes"/>
      <point x="357.8" y="62.0"/>
      <point x="249.5" y="198.5"/>
      <point x="249.5" y="466.9" type="curve" smooth="yes"/>
      <point x="249.5" y="741.8"/>
      <point x="362.7" y="877.5"/>
      <point x="537.0" y="877.5" type="curve" smooth="yes"/>
      <point x="715.4" y="877.5"/>
      <point x="838.9" y="707.2"/>
      <point x="838.9" y="458.4" type="curve" smooth="yes"/>
      <point x="838.9" y="209.7"/>
      <point x="711.0" y="62.0"/>
    </contour>
  </outline>
</glyph>
<glyph name="e" format="2">
  <advance width="1067.0"/>
  <unicode hex="0065"/>
  <note>
e
</note>
  <anchor x="538.4" y="-17.0" name="bottom"/>
  <anchor x="691.7" y="3.0" name="ogonek"/>
  <anchor x="538.4" y="949.5" name="top"/>
  <outline>
    <contour>
      <point x="541.6" y="-31.2" type="curve" smooth="yes"/>
      <point x="761.8" y="-31.2"/>
      <point x="915.3" y="83.3"/>
      <point x="974.4" y="266.7" type="curve"/>
      <point x="816.1" y="266.7" type="line"/>
      <point x="780.5" y="147.9"/>
      <point x="678.7" y="64.7"/>
      <point x="545.2" y="64.7" type="curve" smooth="yes"/>
      <point x="357.5" y="64.7"/>
      <point x="261.5" y="238.3"/>
      <point x="261.5" y="468.1" type="curve" smooth="yes"/>
      <point x="261.5" y="721.2"/>
      <point x="375.7" y="875.8"/>
      <point x="541.6" y="875.8" type="curve" smooth="yes"/>
      <point x="687.8" y="875.8"/>
      <point x="798.5" y="756.1"/>
      <point x="823.4" y="492.5" type="curve"/>
      <point x="1000.9" y="492.5" type="line"/>
      <point x="972.4" y="805.3"/>
      <point x="795.4" y="973.4"/>
      <point x="538.6" y="973.4" type="curve" smooth="yes"/>
      <point x="246.2" y="973.4"/>
      <point x="75.3" y="755.7"/>
      <point x="75.3" y="464.4" type="curve" smooth="yes"/>
      <point x="75.3" y="164.8"/>
      <point x="251.7" y="-31.2"/>
    </contour>
    <contour>
      <point x="242.3" y="491.5" type="line"/>
      <point x="953.3" y="492.5" type="line"/>
      <point x="953.4" y="570.1" type="line"/>
      <point x="209.3" y="570.1" type="line"/>
    </contour>
  </outline>
</glyph>
<glyph name="f" format="2">
  <advance width="669.6"/>
  <unicode hex="0066"/>
  <note>
f
</note>
  <anchor x="335.3" y="33.0" name="bottom"/>
  <anchor x="335.3" y="1518.0" name="top"/>
  <outline>
    <contour>
      <point x="204.8" y="0.0" type="line"/>
      <point x="385.7" y="0.0" type="line"/>
      <point x="385.7" y="1084.0" type="line" smooth="yes"/>
      <point x="385.7" y="1310.7"/>
      <point x="358.6" y="1444.4"/>
      <point x="472.2" y="1444.4" type="curve" smooth="yes"/>
      <point x="533.4" y="1437.4"/>
      <point x="574.0" y="1394.7"/>
      <point x="574.0" y="1331.4" type="curve" smooth="yes"/>
      <point x="574.0" y="1304.0"/>
      <point x="568.3" y="1268.8"/>
      <point x="558.9" y="1240.9" type="curve"/>
      <point x="674.1" y="1240.9" type="line"/>
      <point x="690.1" y="1283.8"/>
      <point x="694.2" y="1333.8"/>
      <point x="694.2" y="1360.9" type="curve" smooth="yes"/>
      <point x="694.2" y="1479.1"/>
      <point x="597.1" y="1548.3"/>
      <point x="450.9" y="1548.3" type="curve" smooth="yes"/>
      <point x="262.8" y="1548.3"/>
      <point x="204.8" y="1395.1"/>
      <point x="204.8" y="1133.7" type="curve" smooth="yes"/>
    </contour>
    <contour>
      <point x="54.6" y="825.9" type="line"/>
      <point x="561.4" y="825.9" type="line"/>
      <point x="561.4" y="920.8" type="line"/>
      <point x="54.6" y="920.8" type="line"/>
    </contour>
  </outline>
</glyph>
<glyph name="g" format="2">
  <advance width="1182.8"/>
  <unicode hex="0067"/>
  <note>
g
</note>
  <anchor x="583.9" y="-493.0" name="bottom"/>
  <anchor x="554.4" y="949.5" name="top"/>
  <outline>
    <contour>
      <point x="559.1" y="-567.3" type="curve" smooth="yes"/>
      <point x="909.2" y="-567.3"/>
      <point x="1051.9" y="-315.3"/>
      <point x="1051.9" y="77.9" type="curve" smooth="yes"/>
      <point x="1051.9" y="946.4" type="line"/>
      <point x="867.0" y="946.4" type="line"/>
      <point x="867.0" y="667.2" type="line"/>
      <point x="894.8" y="700.9" type="line"/>
      <point x="833.1" y="868.7"/>
      <point x="703.9" y="973.4"/>
      <point x="514.5" y="973.4" type="curve" smooth="yes"/>
      <point x="243.8" y="973.4"/>
      <point x="76.0" y="757.2"/>
      <point x="76.0" y="460.4" type="curve" smooth="yes"/>
      <point x="76.0" y="165.7"/>
      <point x="246.3" y="-32.2"/>
      <point x="517.8" y="-32.2" type="curve" smooth="yes"/>
      <point x="711.8" y="-32.2"/>
      <point x="841.4" y="64.7"/>
      <point x="900.5" y="240.7" type="curve"/>
      <point x="873.3" y="272.7" type="line"/>
      <point x="869.0" y="33.800000000000004" type="line"/>
      <point x="869.0" y="-258.7"/>
      <point x="790.0" y="-470.7"/>
      <point x="539.5" y="-470.7" type="curve" smooth="yes"/>
      <point x="363.3" y="-470.7"/>
      <point x="295.2" y="-400.0"/>
      <point x="264.2" y="-302.8" type="curve"/>
      <point x="90.9" y="-302.8" type="line"/>
      <point x="165.6" y="-524.2"/>
      <point x="386.3" y="-567.3"/>
    </contour>
    <contour>
      <point x="536.0" y="64.7" type="curve" smooth="yes"/>
      <point x="355.6" y="64.7"/>
      <point x="251.2" y="201.1"/>
      <point x="251.2" y="468.4" type="curve" smooth="yes"/>
      <point x="251.2" y="742.0"/>
      <point x="363.9" y="875.8"/>
      <point x="533.7" y="875.8" type="curve" smooth="yes"/>
      <point x="710.4" y="875.8"/>
      <point x="831.6" y="704.4"/>
      <point x="831.6" y="458.4" type="curve" smooth="yes"/>
      <point x="831.6" y="210.0"/>
      <point x="704.2" y="64.7"/>
    </contour>
  </outline>
</glyph>
<glyph name="h" format="2">
  <advance width="1091.2"/>
  <unicode hex="0068"/>
  <note>
h
</note>
  <anchor x="543.6" y="0.0" name="bottom"/>
  <anchor x="231.2" y="1311.5" name="center"/>
  <anchor x="543.6" y="1518.0" name="top"/>
  <outline>
    <contour>
      <point x="131.5" y="0.0" type="line"/>
      <point x="319.7" y="0.0" type="line"/>
      <point x="319.7" y="557.7" type="line" smooth="yes"/>
      <point x="319.7" y="728.7"/>
      <point x="412.5" y="874.5"/>
      <point x="571.6" y="874.5" type="curve" smooth="yes"/>
      <point x="731.5" y="874.5"/>
      <point x="796.3" y="751.9"/>
      <point x="796.3" y="535.3" type="curve" smooth="yes"/>
      <point x="796.3" y="0.0" type="line"/>
      <point x="984.5" y="0.0" type="line"/>
      <point x="984.5" y="573.0" type="line" smooth="yes"/>
      <point x="984.5" y="801.7"/>
      <point x="883.5" y="972.4"/>
      <point x="616.8" y="972.4" type="curve" smooth="yes"/>
      <point x="421.4" y="972.4"/>
      <point x="312.5" y="864.1"/>
      <point x="276.6" y="658.6" type="curve"/>
      <point x="317.7" y="547.2" type="line"/>
      <point x="319.7" y="1518.0" type="line"/>
      <point x="131.5" y="1518.0" type="line"/>
    </contour>
  </outline>
</glyph>
<glyph name="k" format="2">
  <advance width="1057.1"/>
  <unicode hex="006B"/>
  <note>
k
</note>
  <anchor x="528.0" y="0.0" name="bottom"/>
  <anchor x="521.0" y="1518.0" name="top"/>
  <outline>
    <contour>
      <point x="132.2" y="0.0" type="line"/>
      <point x="313.4" y="0.0" type="line"/>
      <point x="313.4" y="1518.0" type="line"/>
      <point x="132.2" y="1518.0" type="line"/>
    </contour>
    <contour>
      <point x="804.8" y="0.0" type="line"/>
      <point x="1014.5" y="0.0" type="line"/>
      <point x="487.2" y="577.0" type="line"/>
      <point x="376.1" y="451.9" type="line"/>
    </contour>
    <contour>
      <point x="272.9" y="337.8" type="line"/>
      <point x="889.0" y="946.4" type="line"/>
      <point x="736.5" y="946.4" type="line"/>
      <point x="293.6" y="510.8" type="line"/>
    </contour>
  </outline>
</glyph>
<glyph name="l" format="2">
  <advance width="445.7"/>
  <unicode hex="006C"/>
  <note>
l
</note>
  <anchor x="200.5" y="0.0" name="bottom"/>
  <anchor x="221.8" y="793.3" name="center"/>
  <anchor x="541.6" y="794.7" name="dot"/>
  <anchor x="266.3" y="1511.0" name="top"/>
  <anchor x="424.8" y="1484.1" name="topright"/>
  <outline>
    <contour>
      <point x="132.2" y="0.0" type="line"/>
      <point x="313.5" y="0.0" type="line"/>
      <point x="313.5" y="1518.0" type="line"/>
      <point x="132.2" y="1518.0" type="line"/>
    </contour>
  </outline>
</glyph>
<glyph name="m" format="2">
  <advance width="1749.8"/>
  <unicode hex="006D"/>
  <note>
m
</note>
  <anchor x="867.9" y="0.0" name="bottom"/>
  <anchor x="874.9" y="949.5" name="top"/>
  <outline>
    <contour>
      <point x="121.3" y="0.0" type="line"/>
      <point x="307.5" y="0.0" type="line"/>
      <point x="307.5" y="557.7" type="line" smooth="yes"/>
      <point x="307.5" y="727.6"/>
      <point x="400.1" y="874.8"/>
      <point x="580.3" y="874.8" type="curve" smooth="yes"/>
      <point x="727.2" y="874.8"/>
      <point x="788.5" y="778.7"/>
      <point x="788.5" y="570.6" type="curve" smooth="yes"/>
      <point x="788.5" y="0.0" type="line"/>
      <point x="974.7" y="0.0" type="line"/>
      <point x="974.7" y="557.7" type="line" smooth="yes"/>
      <point x="974.7" y="727.9"/>
      <point x="1065.1" y="874.9"/>
      <point x="1246.3" y="874.9" type="curve" smooth="yes"/>
      <point x="1392.2" y="874.9"/>
      <point x="1455.9" y="779.4"/>
      <point x="1455.9" y="570.6" type="curve" smooth="yes"/>
      <point x="1455.9" y="1.0" type="line"/>
      <point x="1642.1" y="1.0" type="line"/>
      <point x="1642.1" y="619.6" type="line" smooth="yes"/>
      <point x="1642.1" y="823.1"/>
      <point x="1539.6" y="973.4"/>
      <point x="1289.4" y="973.4" type="curve" smooth="yes"/>
      <point x="1080.8" y="973.4"/>
      <point x="968.0" y="868.3"/>
      <point x="930.5" y="664.8" type="curve"/>
      <point x="966.4" y="681.5" type="line"/>
      <point x="947.4" y="851.0"/>
      <point x="850.4" y="973.4"/>
      <point x="623.4" y="973.4" type="curve" smooth="yes"/>
      <point x="431.9" y="973.4"/>
      <point x="322.4" y="882.1"/>
      <point x="281.4" y="717.2" type="curve"/>
      <point x="306.5" y="689.2" type="line"/>
      <point x="307.5" y="946.4" type="line"/>
      <point x="121.3" y="946.4" type="line"/>
    </contour>
  </outline>
</glyph>
<glyph name="n" format="2">
  <advance width="1080.3"/>
  <unicode hex="006E"/>
  <note>
n
</note>
  <anchor x="537.5" y="0.0" name="bottom"/>
  <anchor x="537.5" y="949.5" name="top"/>
  <outline>
    <contour>
      <point x="122.0" y="0.0" type="line"/>
      <point x="309.5" y="0.0" type="line"/>
      <point x="309.5" y="557.7" type="line" smooth="yes"/>
      <point x="309.5" y="728.7"/>
      <point x="402.3" y="875.9"/>
      <point x="561.7" y="875.9" type="curve" smooth="yes"/>
      <point x="721.3" y="875.9"/>
      <point x="786.1" y="751.9"/>
      <point x="786.1" y="535.3" type="curve" smooth="yes"/>
      <point x="786.1" y="0.0" type="line"/>
      <point x="973.6" y="0.0" type="line"/>
      <point x="973.6" y="572.3" type="line" smooth="yes"/>
      <point x="973.6" y="801.7"/>
      <point x="873.3" y="973.4"/>
      <point x="606.6" y="973.4" type="curve" smooth="yes"/>
      <point x="412.2" y="973.4"/>
      <point x="304.8" y="866.2"/>
      <point x="266.4" y="658.9" type="curve"/>
      <point x="307.5" y="547.6" type="line"/>
      <point x="309.5" y="946.4" type="line"/>
      <point x="122.0" y="946.4" type="line"/>
    </contour>
  </outline>
</glyph>
<glyph name="o" format="2">
  <advance width="1093.5"/>
  <unicode hex="006F"/>
  <note>
o
</note>
  <anchor x="546.9" y="13.799999999999997" name="bottom"/>
  <anchor x="547.6" y="471.4" name="center"/>
  <anchor x="689.6" y="0.0" name="ogonek"/>
  <anchor x="547.6" y="949.5" name="top"/>
  <anchor x="1062.0" y="943.5" name="topright"/>
  <outline>
    <contour>
      <point x="546.6" y="-31.2" type="curve" smooth="yes"/>
      <point x="834.2" y="-31.2"/>
      <point x="1018.9" y="164.9"/>
      <point x="1018.9" y="461.4" type="curve" smooth="yes"/>
      <point x="1018.9" y="757.0"/>
      <point x="832.4" y="973.4"/>
      <point x="546.6" y="973.4" type="curve" smooth="yes"/>
      <point x="260.1" y="973.4"/>
      <point x="75.3" y="756.3"/>
      <point x="75.3" y="461.4" type="curve" smooth="yes"/>
      <point x="75.3" y="165.6"/>
      <point x="259.3" y="-31.2"/>
    </contour>
    <contour>
      <point x="546.6" y="65.0" type="curve" smooth="yes"/>
      <point x="388.8" y="65.0"/>
      <point x="271.5" y="210.1"/>
      <point x="271.5" y="465.7" type="curve" smooth="yes"/>
      <point x="271.5" y="713.3"/>
      <point x="387.6" y="877.5"/>
      <point x="546.6" y="877.5" type="curve" smooth="yes"/>
      <point x="706.3" y="877.5"/>
      <point x="822.0" y="705.2"/>
      <point x="822.0" y="461.4" type="curve" smooth="yes"/>
      <point x="822.0" y="206.7"/>
      <point x="704.3" y="65.0"/>
    </contour>
  </outline>
</glyph>
<glyph name="p" format="2">
  <advance width="1179.7"/>
  <unicode hex="0070"/>
  <note>
p
</note>
  <anchor x="591.1" y="33.0" name="bottom"/>
  <anchor x="591.1" y="943.5" name="top"/>
  <outline>
    <contour>
      <point x="132.2" y="-577.8" type="line"/>
      <point x="315.4" y="-577.8" type="line"/>
      <point x="315.4" y="356.1" type="line"/>
      <point x="266.4" y="316.8" type="line"/>
      <point x="314.9" y="101.2"/>
      <point x="452.6" y="-30.3"/>
      <point x="666.6" y="-30.3" type="curve" smooth="yes"/>
      <point x="938.3" y="-30.3"/>
      <point x="1105.1" y="185.9"/>
      <point x="1105.1" y="480.7" type="curve" smooth="yes"/>
      <point x="1105.1" y="775.1"/>
      <point x="935.8" y="973.4"/>
      <point x="664.3" y="973.4" type="curve" smooth="yes"/>
      <point x="449.1" y="973.4"/>
      <point x="314.9" y="853.9"/>
      <point x="263.4" y="641.2" type="curve"/>
      <point x="313.1" y="603.6" type="line"/>
      <point x="313.1" y="946.4" type="line"/>
      <point x="132.2" y="946.4" type="line"/>
    </contour>
    <contour>
      <point x="642.4" y="66.6" type="curve" smooth="yes"/>
      <point x="463.4" y="66.6"/>
      <point x="338.8" y="236.6"/>
      <point x="338.8" y="482.7" type="curve" smooth="yes"/>
      <point x="338.8" y="731.0"/>
      <point x="467.5" y="876.8"/>
      <point x="640.1" y="876.8" type="curve" smooth="yes"/>
      <point x="822.8" y="876.8"/>
      <point x="930.9" y="741.7"/>
      <point x="930.9" y="473.7" type="curve" smooth="yes"/>
      <point x="930.9" y="200.8"/>
      <point x="817.9" y="66.6"/>
    </contour>
  </outline>
</glyph>
<glyph name="q" format="2">
  <advance width="1170.5"/>
  <unicode hex="0071"/>
  <note>
q
</note>
  <anchor x="591.3" y="33.0" name="bottom"/>
  <anchor x="591.3" y="943.5" name="top"/>
  <outline>
    <contour>
      <point x="865.3" y="-577.8" type="line"/>
      <point x="1048.2" y="-577.8" type="line"/>
      <point x="1048.2" y="947.8" type="line"/>
      <point x="867.3" y="947.8" type="line"/>
      <point x="867.3" y="601.6" type="line"/>
      <point x="917.3" y="639.9" type="line"/>
      <point x="865.8" y="852.9"/>
      <point x="731.6" y="973.4"/>
      <point x="516.1" y="973.4" type="curve" smooth="yes"/>
      <point x="244.6" y="973.4"/>
      <point x="75.3" y="773.4"/>
      <point x="75.3" y="480.7" type="curve" smooth="yes"/>
      <point x="75.3" y="185.9"/>
      <point x="242.4" y="-30.3"/>
      <point x="513.8" y="-30.3" type="curve" smooth="yes"/>
      <point x="728.1" y="-30.3"/>
      <point x="865.5" y="100.9"/>
      <point x="914.0" y="317.5" type="curve"/>
      <point x="865.3" y="356.1" type="line"/>
    </contour>
    <contour>
      <point x="538.0" y="66.6" type="curve" smooth="yes"/>
      <point x="362.8" y="66.6"/>
      <point x="249.5" y="200.8"/>
      <point x="249.5" y="473.7" type="curve" smooth="yes"/>
      <point x="249.5" y="740.4"/>
      <point x="357.6" y="876.8"/>
      <point x="540.3" y="876.8" type="curve" smooth="yes"/>
      <point x="713.9" y="876.8"/>
      <point x="841.9" y="729.0"/>
      <point x="841.9" y="482.7" type="curve" smooth="yes"/>
      <point x="841.9" y="236.6"/>
      <point x="717.3" y="66.6"/>
    </contour>
  </outline>
</glyph>
<glyph name="r" format="2">
  <advance width="899.9"/>
  <unicode hex="0072"/>
  <note>
r
</note>
  <anchor x="189.9" y="0.0" name="bottom"/>
  <anchor x="570.9" y="949.5" name="top"/>
  <outline>
    <contour>
      <point x="121.3" y="0.0" type="line"/>
      <point x="309.5" y="0.0" type="line"/>
      <point x="309.5" y="566.5" type="line" smooth="yes"/>
      <point x="309.5" y="739.0"/>
      <point x="404.2" y="874.5"/>
      <point x="535.3" y="874.5" type="curve" smooth="yes"/>
      <point x="601.6" y="874.5"/>
      <point x="718.0" y="845.2"/>
      <point x="700.0" y="734.7" type="curve" smooth="yes"/>
      <point x="699.0" y="704.5"/>
      <point x="681.6" y="665.4"/>
      <point x="670.6" y="653.1" type="curve"/>
      <point x="811.7" y="621.0" type="line"/>
      <point x="835.2" y="665.9"/>
      <point x="845.0" y="736.4"/>
      <point x="845.0" y="776.5" type="curve" smooth="yes"/>
      <point x="845.0" y="929.1"/>
      <point x="692.9" y="973.4"/>
      <point x="582.6" y="973.4" type="curve" smooth="yes"/>
      <point x="404.5" y="973.4"/>
      <point x="318.2" y="862.0"/>
      <point x="275.5" y="660.3" type="curve"/>
      <point x="307.5" y="548.1" type="line"/>
      <point x="309.5" y="946.4" type="line"/>
      <point x="121.3" y="946.4" type="line"/>
    </contour>
  </outline>
</glyph>
<glyph name="s" format="2">
  <advance width="858.2"/>
  <unicode hex="0073"/>
  <note>
s
</note>
  <anchor x="424.3" y="3.0" name="bottom"/>
  <anchor x="416.3" y="945.5" name="top"/>
  <outline>
    <contour>
      <point x="413.5" y="-27.3" type="curve" smooth="yes"/>
      <point x="655.5" y="-26.3"/>
      <point x="794.9" y="74.2"/>
      <point x="793.9" y="262.9" type="curve" smooth="yes"/>
      <point x="793.9" y="444.5"/>
      <point x="661.6" y="503.0"/>
      <point x="431.3" y="553.1" type="curve" smooth="yes"/>
      <point x="264.3" y="589.3"/>
      <point x="220.0" y="619.7"/>
      <point x="220.0" y="720.6" type="curve" smooth="yes"/>
      <point x="220.0" y="811.7"/>
      <point x="296.0" y="869.1"/>
      <point x="424.0" y="868.0" type="curve" smooth="yes"/>
      <point x="539.9" y="865.9"/>
      <point x="631.7" y="841.9"/>
      <point x="734.4" y="747.5" type="curve"/>
      <point x="733.4" y="872.2" type="line"/>
      <point x="639.4" y="942.5"/>
      <point x="564.6" y="973.4"/>
      <point x="425.1" y="973.4" type="curve" smooth="yes"/>
      <point x="213.0" y="972.4"/>
      <point x="81.9" y="892.5"/>
      <point x="82.9" y="698.5" type="curve" smooth="yes"/>
      <point x="83.9" y="541.0"/>
      <point x="172.9" y="481.3"/>
      <point x="372.4" y="438.5" type="curve" smooth="yes"/>
      <point x="570.2" y="396.5"/>
      <point x="638.8" y="376.1"/>
      <point x="638.8" y="253.5" type="curve" smooth="yes"/>
      <point x="638.8" y="134.9"/>
      <point x="501.6" y="84.1"/>
      <point x="406.5" y="84.1" type="curve" smooth="yes"/>
      <point x="277.0" y="83.1"/>
      <point x="173.8" y="124.2"/>
      <point x="72.5" y="230.7" type="curve"/>
      <point x="74.2" y="90.4" type="line"/>
      <point x="155.0" y="5.199999999999999"/>
      <point x="252.1" y="-28.3"/>
    </contour>
  </outline>
</glyph>
<glyph name="t" format="2">
  <advance width="596.8"/>
  <unicode hex="0074"/>
  <note>
t
</note>
  <anchor x="320.4" y="-3.0" name="bottom"/>
  <anchor x="286.4" y="532.4" name="center"/>
  <anchor x="308.4" y="943.5" name="top"/>
  <anchor x="554.7" y="1331.5" name="topright"/>
  <outline>
    <contour>
      <point x="340.0" y="-28.3" type="curve" smooth="yes"/>
      <point x="404.9" y="-28.3"/>
      <point x="504.5" y="-12.0"/>
      <point x="543.3" y="9.899999999999999" type="curve"/>
      <point x="543.3" y="115.5" type="line"/>
      <point x="474.5" y="77.80000000000001"/>
      <point x="421.6" y="70.7"/>
      <point x="392.4" y="70.7" type="curve" smooth="yes"/>
      <point x="326.9" y="70.7"/>
      <point x="340.7" y="117.60000000000001"/>
      <point x="340.7" y="325.3" type="curve" smooth="yes"/>
      <point x="340.7" y="852.9" type="line"/>
      <point x="478.5" y="852.9" type="line"/>
      <point x="478.5" y="948.8" type="line"/>
      <point x="340.7" y="948.8" type="line"/>
      <point x="340.7" y="1232.9" type="line"/>
      <point x="254.8" y="1232.9" type="line"/>
      <point x="276.4" y="1010.1"/>
      <point x="206.4" y="947.5"/>
      <point x="55.3" y="948.8" type="curve"/>
      <point x="55.3" y="852.9" type="line"/>
      <point x="172.2" y="852.9" type="line"/>
      <point x="172.2" y="212.3" type="line" smooth="yes"/>
      <point x="172.2" y="29.200000000000003"/>
      <point x="211.8" y="-28.3"/>
    </contour>
  </outline>
</glyph>
<glyph name="u" format="2">
  <advance width="1103.5"/>
  <unicode hex="0075"/>
  <note>
u
</note>
  <anchor x="522.9" y="3.0" name="bottom"/>
  <anchor x="907.1" y="0.0" name="ogonek"/>
  <anchor x="547.9" y="948.5" name="top"/>
  <anchor x="1191.3" y="948.5" name="topright"/>
  <outline>
    <contour>
      <point x="470.4" y="-25.6" type="curve" smooth="yes"/>
      <point x="705.9" y="-25.6"/>
      <point x="787.7" y="155.6"/>
      <point x="822.9" y="327.0" type="curve"/>
      <point x="795.3" y="430.1" type="line"/>
      <point x="794.3" y="0.0" type="line"/>
      <point x="980.8" y="0.0" type="line"/>
      <point x="980.8" y="946.4" type="line"/>
      <point x="794.3" y="946.4" type="line"/>
      <point x="794.3" y="459.2" type="line" smooth="yes"/>
      <point x="794.3" y="250.3"/>
      <point x="701.4" y="70.9"/>
      <point x="494.0" y="70.9" type="curve" smooth="yes"/>
      <point x="359.7" y="70.9"/>
      <point x="294.9" y="163.6"/>
      <point x="294.9" y="375.7" type="curve" smooth="yes"/>
      <point x="294.9" y="946.4" type="line"/>
      <point x="107.4" y="946.4" type="line"/>
      <point x="107.4" y="328.3" type="line" smooth="yes"/>
      <point x="107.4" y="123.1"/>
      <point x="233.6" y="-25.6"/>
    </contour>
  </outline>
</glyph>
<glyph name="v" format="2">
  <advance width="1100.7"/>
  <unicode hex="0076"/>
  <note>
v
</note>
  <anchor x="550.7" y="33.0" name="bottom"/>
  <anchor x="550.7" y="943.5" name="top"/>
  <outline>
    <contour>
      <point x="529.7" y="-38.6" type="line"/>
      <point x="581.1" y="-38.6" type="line"/>
      <point x="1045.8" y="946.4" type="line"/>
      <point x="951.0" y="946.4" type="line"/>
      <point x="588.6" y="149.3" type="line"/>
      <point x="622.3" y="166.4" type="line"/>
      <point x="255.1" y="946.4" type="line"/>
      <point x="54.900000000000006" y="946.4" type="line"/>
    </contour>
  </outline>
</glyph>
<glyph name="w" format="2">
  <advance width="1659.9"/>
  <unicode hex="0077"/>
  <note>
w
</note>
  <anchor x="830.8" y="0.0" name="bottom"/>
  <anchor x="830.8" y="948.5" name="top"/>
  <outline>
    <contour>
      <point x="1087.5" y="-25.6" type="line"/>
      <point x="1139.9" y="-25.6" type="line"/>
      <point x="1610.7" y="947.1" type="line"/>
      <point x="1514.4" y="947.1" type="line"/>
      <point x="1153.6" y="171.3" type="line"/>
      <point x="1196.5" y="175.6" type="line"/>
      <point x="817.9" y="946.4" type="line"/>
      <point x="616.6" y="947.1" type="line"/>
    </contour>
    <contour>
      <point x="520.4" y="-25.6" type="line"/>
      <point x="572.8" y="-25.6" type="line"/>
      <point x="877.0" y="633.1" type="line"/>
      <point x="829.0" y="727.3" type="line"/>
      <point x="583.1" y="171.3" type="line"/>
      <point x="611.4" y="175.6" type="line"/>
      <point x="250.5" y="946.4" type="line"/>
      <point x="49.2" y="947.1" type="line"/>
    </contour>
    <contour>
      <point x="901.5" y="659.1" type="line"/>
      <point x="1041.3" y="947.1" type="line"/>
      <point x="943.0" y="947.1" type="line"/>
      <point x="828.8" y="707.3" type="line"/>
    </contour>
  </outline>
</glyph>
<glyph name="x" format="2">
  <advance width="997.9"/>
  <unicode hex="0078"/>
  <note>
x
</note>
  <anchor x="499.1" y="33.0" name="bottom"/>
  <anchor x="499.1" y="943.5" name="top"/>
  <outline>
    <contour>
      <point x="719.2" y="0.0" type="line"/>
      <point x="925.6" y="0.0" type="line"/>
      <point x="303.7" y="946.4" type="line"/>
      <point x="97.3" y="946.4" type="line"/>
    </contour>
    <contour>
      <point x="66.4" y="0.0" type="line"/>
      <point x="188.9" y="0.0" type="line"/>
      <point x="521.8" y="434.7" type="line"/>
      <point x="469.1" y="523.3" type="line"/>
    </contour>
    <contour>
      <point x="545.1" y="449.5" type="line"/>
      <point x="928.8" y="946.4" type="line"/>
      <point x="803.6" y="946.4" type="line"/>
      <point x="489.9" y="533.5" type="line"/>
    </contour>
  </outline>
</glyph>
<glyph name="y" format="2">
  <advance width="1038.3"/>
  <unicode hex="0079"/>
  <note>
y
</note>
  <anchor x="753.5" y="0.0" name="bottom"/>
  <anchor x="544.5" y="948.5" name="top"/>
  <outline>
    <contour>
      <point x="293.5" y="-561.8" type="curve" smooth="yes"/>
      <point x="406.6" y="-561.8"/>
      <point x="449.7" y="-459.6"/>
      <point x="496.3" y="-331.3" type="curve" smooth="yes"/>
      <point x="656.1" y="114.19999999999999"/>
      <point x="640.1" y="73.89999999999998"/>
      <point x="684.5" y="185.0" type="curve"/>
      <point x="986.0" y="947.1" type="line"/>
      <point x="891.5" y="947.1" type="line"/>
      <point x="562.4" y="96.5" type="line"/>
      <point x="644.9" y="109.10000000000001" type="line"/>
      <point x="248.1" y="946.4" type="line"/>
      <point x="49.2" y="947.1" type="line"/>
      <point x="557.7" y="-104.0" type="line"/>
      <point x="540.5" y="41.10000000000001" type="line"/>
      <point x="435.9" y="-284.0" type="line" smooth="yes"/>
      <point x="410.7" y="-362.6"/>
      <point x="372.7" y="-496.9"/>
      <point x="296.8" y="-496.9" type="curve" smooth="yes"/>
      <point x="235.0" y="-496.9"/>
      <point x="209.9" y="-462.8"/>
      <point x="205.4" y="-426.6" type="curve"/>
      <point x="128.5" y="-426.6" type="line"/>
      <point x="138.0" y="-517.0"/>
      <point x="196.7" y="-561.8"/>
    </contour>
  </outline>
</glyph>
<glyph name="z" format="2">
  <advance width="899.4"/>
  <unicode hex="007A"/>
  <note>
z
</note>
  <anchor x="449.7" y="0.0" name="bottom"/>
  <anchor x="449.7" y="474.4" name="center"/>
  <anchor x="449.7" y="948.5" name="top"/>
  <outline>
    <contour>
      <point x="56.900000000000006" y="0.0" type="line"/>
      <point x="836.7" y="0.0" type="line"/>
      <point x="836.7" y="99.6" type="line"/>
      <point x="261.7" y="99.6" type="line"/>
      <point x="257.6" y="34.2" type="line"/>
      <point x="837.8" y="946.4" type="line"/>
      <point x="79.9" y="946.4" type="line"/>
      <point x="79.9" y="847.8" type="line"/>
      <point x="646.3" y="847.8" type="line"/>
      <point x="636.1" y="909.8" type="line"/>
    </contour>
  </outline>
</glyph>
<glyph name="braceleft" format="2">
  <advance width="687.7"/>
  <unicode hex="007B"/>
  <note>
braceleft
</note>
  <outline>
    <contour>
      <point x="607.8" y="-392.5" type="curve"/>
      <point x="607.8" y="-269.9" type="line"/>
      <point x="433.8" y="-291.2"/>
      <point x="342.6" y="-176.2"/>
      <point x="342.6" y="30.5" type="curve" smooth="yes"/>
      <point x="342.6" y="340.9" type="line" smooth="yes"/>
      <point x="342.6" y="408.1"/>
      <point x="297.1" y="454.7"/>
      <point x="260.7" y="483.7" type="curve"/>
      <point x="297.1" y="514.7"/>
      <point x="342.6" y="560.3"/>
      <point x="342.6" y="626.9" type="curve" smooth="yes"/>
      <point x="342.6" y="1038.4" type="line" smooth="yes"/>
      <point x="342.6" y="1248.4"/>
      <point x="431.6" y="1360.1"/>
      <point x="607.8" y="1337.8" type="curve"/>
      <point x="607.8" y="1461.4" type="line"/>
      <point x="362.9" y="1476.7"/>
      <point x="220.3" y="1332.3"/>
      <point x="220.3" y="1105.8" type="curve" smooth="yes"/>
      <point x="220.3" y="626.9" type="line" smooth="yes"/>
      <point x="220.3" y="566.2"/>
      <point x="175.8" y="538.4"/>
      <point x="82.4" y="485.4" type="curve"/>
      <point x="176.3" y="428.8"/>
      <point x="220.3" y="403.0"/>
      <point x="220.3" y="340.9" type="curve" smooth="yes"/>
      <point x="220.3" y="-35.9" type="line" smooth="yes"/>
      <point x="220.3" y="-264.7"/>
      <point x="361.2" y="-407.5"/>
    </contour>
  </outline>
</glyph>
<glyph name="bar" format="2">
  <advance width="559.8"/>
  <unicode hex="007C"/>
  <note>
bar
</note>
  <outline>
    <contour>
      <point x="202.4" y="-300.0" type="line"/>
      <point x="357.4" y="-300.0" type="line"/>
      <point x="357.4" y="1664.0" type="line"/>
      <point x="202.4" y="1664.0" type="line"/>
    </contour>
  </outline>
</glyph>
<glyph name="braceright" format="2">
  <advance width="688.7"/>
  <unicode hex="007D"/>
  <note>
braceright
</note>
  <outline>
    <contour>
      <point x="79.9" y="-392.5" type="line"/>
      <point x="327.5" y="-407.5"/>
      <point x="467.4" y="-264.7"/>
      <point x="467.4" y="-35.9" type="curve" smooth="yes"/>
      <point x="467.4" y="340.9" type="line" smooth="yes"/>
      <point x="467.4" y="403.0"/>
      <point x="511.4" y="427.8"/>
      <point x="606.3" y="484.4" type="curve"/>
      <point x="510.9" y="538.4"/>
      <point x="467.4" y="566.2"/>
      <point x="467.4" y="626.9" type="curve" smooth="yes"/>
      <point x="467.4" y="1105.8" type="line" smooth="yes"/>
      <point x="467.4" y="1332.3"/>
      <point x="325.8" y="1476.7"/>
      <point x="79.9" y="1461.4" type="curve"/>
      <point x="79.9" y="1337.8" type="line"/>
      <point x="258.1" y="1360.1"/>
      <point x="346.1" y="1248.4"/>
      <point x="346.1" y="1038.4" type="curve" smooth="yes"/>
      <point x="346.1" y="626.9" type="line" smooth="yes"/>
      <point x="346.1" y="559.3"/>
      <point x="391.6" y="514.7"/>
      <point x="428.0" y="483.7" type="curve"/>
      <point x="391.6" y="454.7"/>
      <point x="346.1" y="408.1"/>
      <point x="346.1" y="340.9" type="curve" smooth="yes"/>
      <point x="346.1" y="30.5" type="line" smooth="yes"/>
      <point x="346.1" y="-176.2"/>
      <point x="254.9" y="-291.2"/>
      <point x="79.9" y="-269.9" type="curve"/>
    </contour>
  </outline>
</glyph>
<glyph name="asciitilde" format="2">
  <advance width="1279.0"/>
  <unicode hex="007E"/>
  <note>
asciitilde
</note>
  <outline>
    <contour>
      <point x="823.1" y="579.7" type="curve" smooth="yes"/>
      <point x="958.5" y="579.7"/>
      <point x="1090.7" y="662.0"/>
      <point x="1147.5" y="715.6" type="curve"/>
      <point x="1069.4" y="830.5" type="line"/>
      <point x="999.5" y="767.9"/>
      <point x="906.9" y="722.3"/>
      <point x="820.4" y="722.3" type="curve" smooth="yes"/>
      <point x="754.4" y="722.3"/>
      <point x="712.1" y="752.4"/>
      <point x="667.7" y="780.1" type="curve" smooth="yes"/>
      <point x="598.4" y="820.4"/>
      <point x="533.7" y="854.4"/>
      <point x="446.5" y="854.4" type="curve" smooth="yes"/>
      <point x="341.2" y="854.4"/>
      <point x="220.4" y="796.6"/>
      <point x="131.5" y="700.0" type="curve"/>
      <point x="205.9" y="592.0" type="line"/>
      <point x="295.9" y="671.4"/>
      <point x="379.7" y="709.5"/>
      <point x="448.2" y="709.5" type="curve" smooth="yes"/>
      <point x="505.2" y="709.5"/>
      <point x="555.8" y="680.0"/>
      <point x="620.6" y="642.6" type="curve" smooth="yes"/>
      <point x="683.7" y="607.0"/>
      <point x="738.6" y="579.7"/>
    </contour>
  </outline>
</glyph>
<glyph name=".notdef" format="2">
  <advance width="1260.9"/>
  <unicode hex="007F"/>
  <note>
.notdef
</note>
  <outline>
    <contour>
      <point x="89.1" y="-347.0" type="line"/>
      <point x="1171.8" y="-347.0" type="line"/>
      <point x="1171.8" y="1414.0" type="line"/>
      <point x="89.1" y="1414.0" type="line"/>
    </contour>
    <contour>
      <point x="277.0" y="-167.0" type="line"/>
      <point x="277.0" y="1234.0" type="line"/>
      <point x="985.2" y="1234.0" type="line"/>
      <point x="985.2" y="-167.0" type="line"/>
    </contour>
  </outline>
</glyph>
<glyph name="Euro" format="2">
  <advance width="1646.2"/>
  <unicode hex="0080"/>
  <note>
Euro
</note>
  <outline>
    <contour>
      <point x="978.5" y="-26.8" type="curve" smooth="yes"/>
      <point x="1233.5" y="-26.8"/>
      <point x="1405.0" y="109.4"/>
      <point x="1509.6" y="345.9" type="curve"/>
      <point x="1360.3" y="345.9" type="line"/>
      <point x="1253.7" y="110.4"/>
      <point x="1098.8" y="66.2"/>
      <point x="986.5" y="66.2" type="curve" smooth="yes"/>
      <point x="702.7" y="66.2"/>
      <point x="527.0" y="356.5"/>
      <point x="527.0" y="709.1" type="curve" smooth="yes"/>
      <point x="527.0" y="1086.1"/>
      <point x="723.6" y="1352.0"/>
      <point x="975.1" y="1352.0" type="curve" smooth="yes"/>
      <point x="1091.5" y="1352.0"/>
      <point x="1270.0" y="1295.0"/>
      <point x="1354.0" y="1065.7" type="curve"/>
      <point x="1500.4" y="1065.7" type="line"/>
      <point x="1408.0" y="1315.3"/>
      <point x="1222.4" y="1444.0"/>
      <point x="979.5" y="1444.0" type="curve" smooth="yes"/>
      <point x="611.1" y="1444.0"/>
      <point x="339.6" y="1156.1"/>
      <point x="339.9" y="708.4" type="curve" smooth="yes"/>
      <point x="339.2" y="251.4"/>
      <point x="614.6" y="-26.8"/>
    </contour>
    <contour>
      <point x="129.6" y="508.0" type="line"/>
      <point x="1011.4" y="508.0" type="line"/>
      <point x="1034.7" y="599.3" type="line"/>
      <point x="154.9" y="599.3" type="line"/>
    </contour>
    <contour>
      <point x="178.6" y="798.0" type="line"/>
      <point x="1060.4" y="798.0" type="line"/>
      <point x="1082.6" y="888.3" type="line"/>
      <point x="202.8" y="888.3" type="line"/>
    </contour>
  </outline>
</glyph>
<glyph name="sterling" format="2">
  <advance width="1279.9"/>
  <unicode hex="00A3"/>
  <note>
sterling
</note>
  <outline>
    <contour>
      <point x="365.5" y="80.6" type="curve" smooth="yes"/>
      <point x="538.7" y="80.6"/>
      <point x="743.0" y="256.0"/>
      <point x="743.0" y="464.8" type="curve" smooth="yes"/>
      <point x="743.0" y="649.1"/>
      <point x="658.8" y="727.8"/>
      <point x="531.2" y="824.7" type="curve" smooth="yes"/>
      <point x="412.5" y="915.6"/>
      <point x="359.7" y="1017.4"/>
      <point x="359.7" y="1143.0" type="curve" smooth="yes"/>
      <point x="359.7" y="1300.2"/>
      <point x="475.8" y="1377.9"/>
      <point x="614.7" y="1377.9" type="curve" smooth="yes"/>
      <point x="784.4" y="1377.9"/>
      <point x="929.5" y="1218.8"/>
      <point x="937.3" y="1052.8" type="curve"/>
      <point x="1092.0" y="1052.8" type="line"/>
      <point x="1068.0" y="1305.4"/>
      <point x="887.4" y="1466.6"/>
      <point x="625.3" y="1466.6" type="curve" smooth="yes"/>
      <point x="357.9" y="1466.6"/>
      <point x="181.9" y="1309.3"/>
      <point x="181.9" y="1095.1" type="curve" smooth="yes"/>
      <point x="181.9" y="905.1"/>
      <point x="296.3" y="811.8"/>
      <point x="426.7" y="719.3" type="curve" smooth="yes"/>
      <point x="526.7" y="648.7"/>
      <point x="560.9" y="600.0"/>
      <point x="560.9" y="446.3" type="curve" smooth="yes"/>
      <point x="560.9" y="298.6"/>
      <point x="387.0" y="142.1"/>
      <point x="159.0" y="144.4" type="curve"/>
      <point x="234.8" y="77.7"/>
      <point x="318.3" y="80.6"/>
    </contour>
    <contour>
      <point x="149.2" y="0.0" type="line"/>
      <point x="1141.7" y="0.0" type="line"/>
      <point x="1141.7" y="144.4" type="line"/>
      <point x="149.2" y="144.4" type="line"/>
    </contour>
    <contour>
      <point x="164.4" y="663.1" type="line"/>
      <point x="1012.9" y="663.1" type="line"/>
      <point x="1012.9" y="756.4" type="line"/>
      <point x="164.4" y="756.4" type="line"/>
    </contour>
  </outline>
</glyph>
<glyph name="currency" format="2">
  <advance width="1279.3"/>
  <unicode hex="00A4"/>
  <note>
currency
</note>
  <outline>
    <contour>
      <point x="218.7" y="201.4" type="line"/>
      <point x="403.1" y="392.8" type="line"/>
      <point x="469.9" y="342.2"/>
      <point x="554.0" y="311.9"/>
      <point x="644.4" y="311.9" type="curve" smooth="yes"/>
      <point x="732.7" y="311.9"/>
      <point x="813.3" y="340.1"/>
      <point x="878.7" y="386.5" type="curve"/>
      <point x="1058.5" y="201.4" type="line"/>
      <point x="1133.3" y="277.6" type="line"/>
      <point x="955.9" y="461.6" type="line"/>
      <point x="1011.4" y="530.1"/>
      <point x="1044.5" y="616.7"/>
      <point x="1044.5" y="712.0" type="curve" smooth="yes"/>
      <point x="1044.5" y="808.0"/>
      <point x="1010.0" y="896.3"/>
      <point x="953.8" y="964.5" type="curve"/>
      <point x="1134.0" y="1150.3" type="line"/>
      <point x="1056.8" y="1226.1" type="line"/>
      <point x="875.9" y="1038.9" type="line"/>
      <point x="811.2" y="1085.3"/>
      <point x="731.3" y="1112.1"/>
      <point x="644.4" y="1112.1" type="curve" smooth="yes"/>
      <point x="555.7" y="1112.1"/>
      <point x="472.3" y="1083.2"/>
      <point x="405.9" y="1033.3" type="curve"/>
      <point x="219.4" y="1225.8" type="line"/>
      <point x="143.2" y="1150.3" type="line"/>
      <point x="329.7" y="957.5" type="line"/>
      <point x="276.0" y="890.7"/>
      <point x="244.3" y="805.2"/>
      <point x="244.3" y="712.0" type="curve" smooth="yes"/>
      <point x="244.3" y="619.5"/>
      <point x="275.3" y="535.7"/>
      <point x="327.3" y="468.6" type="curve"/>
      <point x="143.2" y="277.9" type="line"/>
    </contour>
    <contour>
      <point x="644.4" y="420.5" type="curve" smooth="yes"/>
      <point x="483.5" y="420.5"/>
      <point x="352.9" y="551.1"/>
      <point x="352.9" y="712.0" type="curve" smooth="yes"/>
      <point x="352.9" y="872.9"/>
      <point x="483.5" y="1003.5"/>
      <point x="644.4" y="1003.5" type="curve" smooth="yes"/>
      <point x="805.3" y="1003.5"/>
      <point x="935.9" y="872.9"/>
      <point x="935.9" y="712.0" type="curve" smooth="yes"/>
      <point x="935.9" y="551.1"/>
      <point x="805.3" y="420.5"/>
    </contour>
  </outline>
</glyph>
<glyph name="brokenbar" format="2">
  <advance width="559.8"/>
  <unicode hex="00A6"/>
  <note>
brokenbar
</note>
  <outline>
    <contour>
      <point x="202.4" y="-300.0" type="line"/>
      <point x="357.4" y="-300.0" type="line"/>
      <point x="357.4" y="523.0" type="line"/>
      <point x="202.4" y="523.0" type="line"/>
    </contour>
    <contour>
      <point x="202.4" y="869.0" type="line"/>
      <point x="357.4" y="869.0" type="line"/>
      <point x="357.4" y="1664.0" type="line"/>
      <point x="202.4" y="1664.0" type="line"/>
    </contour>
  </outline>
</glyph>
<glyph name="section" format="2">
  <advance width="1127.1"/>
  <unicode hex="00A7"/>
  <note>
section
</note>
  <outline>
    <contour>
      <point x="535.2" y="-399.1" type="curve" smooth="yes"/>
      <point x="757.7" y="-399.1"/>
      <point x="932.8" y="-294.7"/>
      <point x="930.7" y="-90.7" type="curve" smooth="yes"/>
      <point x="928.6" y="103.8"/>
      <point x="774.0" y="180.4"/>
      <point x="575.5" y="230.0" type="curve"/>
      <point x="566.9" y="153.1" type="line"/>
      <point x="818.2" y="157.4"/>
      <point x="996.7" y="299.8"/>
      <point x="993.9" y="525.0" type="curve" smooth="yes"/>
      <point x="991.1" y="739.4"/>
      <point x="848.2" y="823.2"/>
      <point x="651.0" y="890.4" type="curve" smooth="yes"/>
      <point x="453.6" y="959.6"/>
      <point x="355.5" y="1010.6"/>
      <point x="352.70000000000005" y="1125.0" type="curve" smooth="yes"/>
      <point x="350.6" y="1280.0"/>
      <point x="440.20000000000005" y="1336.5"/>
      <point x="577.8" y="1336.5" type="curve" smooth="yes"/>
      <point x="735.7" y="1336.5"/>
      <point x="797.6" y="1260.5"/>
      <point x="789.3" y="1093.9" type="curve"/>
      <point x="932.9" y="1093.9" type="line"/>
      <point x="932.9" y="1144.0" type="line" smooth="yes"/>
      <point x="932.9" y="1328.1"/>
      <point x="815.2" y="1434.1"/>
      <point x="588.4" y="1434.1" type="curve" smooth="yes"/>
      <point x="361.6" y="1434.1"/>
      <point x="193.3" y="1332.0"/>
      <point x="195.4" y="1127.0" type="curve" smooth="yes"/>
      <point x="197.5" y="960.1"/>
      <point x="296.7" y="866.7"/>
      <point x="586.5" y="797.0" type="curve"/>
      <point x="545.0" y="878.4" type="line"/>
      <point x="321.1" y="886.5"/>
      <point x="131.1" y="756.7"/>
      <point x="133.9" y="510.0" type="curve" smooth="yes"/>
      <point x="135.3" y="340.2"/>
      <point x="242.1" y="218.4"/>
      <point x="514.7" y="135.3" type="curve" smooth="yes"/>
      <point x="669.1" y="88.6"/>
      <point x="773.5" y="5.099999999999998"/>
      <point x="774.9" y="-84.0" type="curve" smooth="yes"/>
      <point x="776.3" y="-218.5"/>
      <point x="687.9" y="-301.5"/>
      <point x="538.5" y="-301.5" type="curve" smooth="yes"/>
      <point x="379.6" y="-301.5"/>
      <point x="306.0" y="-216.2"/>
      <point x="316.3" y="-50.9" type="curve"/>
      <point x="172.5" y="-50.9" type="line"/>
      <point x="172.5" y="-102.0" type="line" smooth="yes"/>
      <point x="172.5" y="-275.7"/>
      <point x="300.0" y="-399.1"/>
    </contour>
    <contour>
      <point x="566.5" y="238.4" type="curve" smooth="yes"/>
      <point x="414.8" y="238.4"/>
      <point x="287.3" y="384.0"/>
      <point x="285.20000000000005" y="524.0" type="curve" smooth="yes"/>
      <point x="283.1" y="664.2"/>
      <point x="405.4" y="801.6"/>
      <point x="559.5" y="801.6" type="curve" smooth="yes"/>
      <point x="713.9" y="801.6"/>
      <point x="840.5" y="668.5"/>
      <point x="842.6" y="531.0" type="curve" smooth="yes"/>
      <point x="844.7" y="392.0"/>
      <point x="717.9" y="238.4"/>
    </contour>
  </outline>
</glyph>
<glyph name="copyright" format="2">
  <advance width="1760.9"/>
  <unicode hex="00A9"/>
  <note>
copyright
</note>
  <outline>
    <contour>
      <point x="879.1" y="-17.0" type="curve" smooth="yes"/>
      <point x="1071.9" y="-17.0"/>
      <point x="1260.4" y="55.3"/>
      <point x="1408.6" y="196.4" type="curve" smooth="yes"/>
      <point x="1548.2" y="329.9"/>
      <point x="1624.4" y="507.2"/>
      <point x="1624.4" y="706.0" type="curve" smooth="yes"/>
      <point x="1624.4" y="902.5"/>
      <point x="1546.2" y="1085.1"/>
      <point x="1409.6" y="1218.4" type="curve" smooth="yes"/>
      <point x="1267.7" y="1357.3"/>
      <point x="1081.7" y="1429.0"/>
      <point x="879.1" y="1429.0" type="curve" smooth="yes"/>
      <point x="675.9" y="1429.0"/>
      <point x="499.7" y="1361.8"/>
      <point x="358.3" y="1220.4" type="curve" smooth="yes"/>
      <point x="218.6" y="1080.0"/>
      <point x="135.8" y="902.2"/>
      <point x="135.8" y="706.0" type="curve" smooth="yes"/>
      <point x="135.8" y="513.8"/>
      <point x="213.9" y="333.3"/>
      <point x="356.9" y="195.4" type="curve" smooth="yes"/>
      <point x="503.7" y="53.4"/>
      <point x="685.0" y="-17.0"/>
    </contour>
    <contour>
      <point x="875.2" y="302.3" type="curve" smooth="yes"/>
      <point x="1076.8" y="302.3"/>
      <point x="1192.8" y="419.6"/>
      <point x="1212.3" y="570.8" type="curve"/>
      <point x="1103.0" y="570.8" type="line"/>
      <point x="1073.6" y="444.5"/>
      <point x="1001.6" y="378.8"/>
      <point x="882.9" y="378.8" type="curve" smooth="yes"/>
      <point x="727.2" y="378.8"/>
      <point x="629.2" y="489.1"/>
      <point x="629.2" y="703.3" type="curve" smooth="yes"/>
      <point x="629.2" y="911.9"/>
      <point x="719.2" y="1036.2"/>
      <point x="882.9" y="1036.2" type="curve" smooth="yes"/>
      <point x="992.7" y="1036.2"/>
      <point x="1059.5" y="980.3"/>
      <point x="1094.0" y="863.6" type="curve"/>
      <point x="1203.3" y="863.6" type="line"/>
      <point x="1183.5" y="1001.4"/>
      <point x="1078.1" y="1111.0"/>
      <point x="884.2" y="1111.0" type="curve" smooth="yes"/>
      <point x="653.4" y="1111.0"/>
      <point x="500.9" y="953.2"/>
      <point x="500.9" y="703.0" type="curve" smooth="yes"/>
      <point x="500.9" y="460.2"/>
      <point x="642.0" y="302.3"/>
    </contour>
    <contour>
      <point x="879.1" y="95.3" type="curve" smooth="yes"/>
      <point x="713.1" y="95.3"/>
      <point x="553.9" y="160.3"/>
      <point x="432.4" y="278.7" type="curve" smooth="yes"/>
      <point x="309.2" y="398.5"/>
      <point x="246.3" y="548.7"/>
      <point x="246.3" y="706.0" type="curve" smooth="yes"/>
      <point x="246.3" y="869.4"/>
      <point x="310.5" y="1018.9"/>
      <point x="434.8" y="1140.5" type="curve" smooth="yes"/>
      <point x="553.1" y="1256.4"/>
      <point x="703.0" y="1319.1"/>
      <point x="879.1" y="1319.1" type="curve" smooth="yes"/>
      <point x="1053.7" y="1319.1"/>
      <point x="1210.5" y="1256.0"/>
      <point x="1331.7" y="1138.5" type="curve" smooth="yes"/>
      <point x="1452.2" y="1022.0"/>
      <point x="1516.3" y="868.0"/>
      <point x="1516.3" y="706.0" type="curve" smooth="yes"/>
      <point x="1516.3" y="537.7"/>
      <point x="1452.2" y="391.7"/>
      <point x="1335.1" y="280.7" type="curve" smooth="yes"/>
      <point x="1214.0" y="166.4"/>
      <point x="1052.2" y="95.3"/>
    </contour>
  </outline>
</glyph>
<glyph name="ordfeminine" format="2">
  <advance width="851.2"/>
  <unicode hex="00AA"/>
  <note>
ordfeminine
</note>
  <outline>
    <contour>
      <point x="394.2" y="799.0" type="curve" smooth="yes"/>
      <point x="441.9" y="799.0"/>
      <point x="570.2" y="812.6"/>
      <point x="594.0" y="963.0" type="curve"/>
      <point x="594.0" y="811.0" type="line"/>
      <point x="693.5" y="811.0" type="line"/>
      <point x="693.5" y="1440.0" type="line"/>
      <point x="592.7" y="1440.0" type="line"/>
      <point x="592.7" y="1286.0" type="line"/>
      <point x="569.9" y="1439.4"/>
      <point x="439.5" y="1455.0"/>
      <point x="389.9" y="1455.0" type="curve" smooth="yes"/>
      <point x="220.7" y="1455.0"/>
      <point x="118.4" y="1321.0"/>
      <point x="118.4" y="1125.0" type="curve" smooth="yes"/>
      <point x="118.4" y="922.9"/>
      <point x="224.4" y="799.0"/>
    </contour>
    <contour>
      <point x="401.2" y="889.1" type="curve" smooth="yes"/>
      <point x="286.8" y="889.1"/>
      <point x="242.3" y="994.8"/>
      <point x="242.3" y="1131.0" type="curve" smooth="yes"/>
      <point x="242.3" y="1260.8"/>
      <point x="282.0" y="1364.9"/>
      <point x="398.2" y="1364.9" type="curve" smooth="yes"/>
      <point x="509.2" y="1364.9"/>
      <point x="566.0" y="1285.3"/>
      <point x="566.0" y="1124.0" type="curve" smooth="yes"/>
      <point x="566.0" y="966.0"/>
      <point x="511.6" y="889.1"/>
    </contour>
    <contour>
      <point x="120.8" y="648.0" type="line"/>
      <point x="725.8" y="648.0" type="line"/>
      <point x="725.8" y="722.0" type="line"/>
      <point x="120.8" y="722.0" type="line"/>
    </contour>
  </outline>
</glyph>
<glyph name="logicalnot" format="2">
  <advance width="1070.3"/>
  <unicode hex="00AC"/>
  <note>
logicalnot
</note>
  <outline>
    <contour>
      <point x="1105.5" y="330.1" type="line"/>
      <point x="1248.2" y="330.1" type="line"/>
      <point x="1248.2" y="874.5" type="line"/>
      <point x="127.3" y="874.5" type="line"/>
      <point x="127.3" y="750.0" type="line"/>
      <point x="1105.5" y="750.0" type="line"/>
    </contour>
  </outline>
</glyph>
<glyph name="registered" format="2">
  <advance width="1760.9"/>
  <unicode hex="00AE"/>
  <note>
registered
</note>
  <outline>
    <contour>
      <point x="879.1" y="-17.0" type="curve" smooth="yes"/>
      <point x="1071.9" y="-17.0"/>
      <point x="1260.4" y="55.3"/>
      <point x="1408.6" y="196.4" type="curve" smooth="yes"/>
      <point x="1548.2" y="329.9"/>
      <point x="1624.4" y="507.2"/>
      <point x="1624.4" y="706.0" type="curve" smooth="yes"/>
      <point x="1624.4" y="902.5"/>
      <point x="1546.2" y="1085.1"/>
      <point x="1409.6" y="1218.4" type="curve" smooth="yes"/>
      <point x="1267.7" y="1357.3"/>
      <point x="1081.7" y="1429.0"/>
      <point x="879.1" y="1429.0" type="curve" smooth="yes"/>
      <point x="675.9" y="1429.0"/>
      <point x="499.7" y="1361.8"/>
      <point x="358.3" y="1220.4" type="curve" smooth="yes"/>
      <point x="218.6" y="1080.0"/>
      <point x="135.8" y="902.2"/>
      <point x="135.8" y="706.0" type="curve" smooth="yes"/>
      <point x="135.8" y="513.8"/>
      <point x="213.9" y="333.3"/>
      <point x="356.9" y="195.4" type="curve" smooth="yes"/>
      <point x="503.7" y="53.4"/>
      <point x="685.0" y="-17.0"/>
    </contour>
    <contour>
      <point x="879.1" y="95.3" type="curve" smooth="yes"/>
      <point x="713.1" y="95.3"/>
      <point x="553.9" y="160.3"/>
      <point x="432.4" y="278.7" type="curve" smooth="yes"/>
      <point x="309.2" y="398.5"/>
      <point x="246.3" y="548.7"/>
      <point x="246.3" y="706.0" type="curve" smooth="yes"/>
      <point x="246.3" y="869.4"/>
      <point x="310.5" y="1018.9"/>
      <point x="434.8" y="1140.5" type="curve" smooth="yes"/>
      <point x="553.1" y="1256.4"/>
      <point x="703.0" y="1319.1"/>
      <point x="879.1" y="1319.1" type="curve" smooth="yes"/>
      <point x="1053.7" y="1319.1"/>
      <point x="1210.5" y="1256.0"/>
      <point x="1331.7" y="1138.5" type="curve" smooth="yes"/>
      <point x="1452.2" y="1022.0"/>
      <point x="1516.3" y="868.0"/>
      <point x="1516.3" y="706.0" type="curve" smooth="yes"/>
      <point x="1516.3" y="537.7"/>
      <point x="1452.2" y="391.7"/>
      <point x="1335.1" y="280.7" type="curve" smooth="yes"/>
      <point x="1214.0" y="166.4"/>
      <point x="1052.2" y="95.3"/>
    </contour>
    <contour>
      <point x="624.6" y="336.0" type="line"/>
      <point x="722.4" y="336.0" type="line"/>
      <point x="722.4" y="653.0" type="line"/>
      <point x="907.6" y="653.0" type="line"/>
      <point x="1084.6" y="336.0" type="line"/>
      <point x="1192.6" y="336.0" type="line"/>
      <point x="999.6" y="671.0" type="line"/>
      <point x="1116.6" y="704.0"/>
      <point x="1169.4" y="769.0"/>
      <point x="1169.4" y="876.0" type="curve" smooth="yes"/>
      <point x="1169.4" y="1029.0"/>
      <point x="1076.6" y="1102.0"/>
      <point x="850.6" y="1102.0" type="curve" smooth="yes"/>
      <point x="624.6" y="1102.0" type="line"/>
    </contour>
    <contour>
      <point x="722.4" y="724.6" type="line"/>
      <point x="722.4" y="1025.4" type="line"/>
      <point x="879.2" y="1025.4" type="line" smooth="yes"/>
      <point x="1021.1" y="1024.4"/>
      <point x="1074.6" y="981.4"/>
      <point x="1074.6" y="872.0" type="curve" smooth="yes"/>
      <point x="1074.6" y="771.6"/>
      <point x="1022.1" y="724.6"/>
      <point x="883.9" y="724.6" type="curve" smooth="yes"/>
    </contour>
  </outline>
</glyph>
<glyph name="degree" format="2">
  <advance width="760.2"/>
  <unicode hex="00B0"/>
  <note>
degree
</note>
  <outline>
    <contour>
      <point x="378.8" y="952.5" type="curve" smooth="yes"/>
      <point x="510.2" y="952.5"/>
      <point x="617.5" y="1058.8"/>
      <point x="617.5" y="1189.9" type="curve" smooth="yes"/>
      <point x="617.5" y="1320.0"/>
      <point x="510.2" y="1426.3"/>
      <point x="380.1" y="1426.3" type="curve" smooth="yes"/>
      <point x="248.0" y="1426.3"/>
      <point x="142.7" y="1321.0"/>
      <point x="142.7" y="1189.9" type="curve" smooth="yes"/>
      <point x="142.7" y="1057.8"/>
      <point x="248.0" y="952.5"/>
    </contour>
    <contour>
      <point x="380.1" y="1012.9" type="curve" smooth="yes"/>
      <point x="282.1" y="1012.9"/>
      <point x="204.1" y="1091.9"/>
      <point x="204.1" y="1189.9" type="curve" smooth="yes"/>
      <point x="204.1" y="1286.9"/>
      <point x="282.1" y="1364.9"/>
      <point x="380.1" y="1364.9" type="curve" smooth="yes"/>
      <point x="478.1" y="1364.9"/>
      <point x="556.1" y="1286.9"/>
      <point x="556.1" y="1189.9" type="curve" smooth="yes"/>
      <point x="556.1" y="1091.9"/>
      <point x="478.1" y="1012.9"/>
    </contour>
  </outline>
</glyph>
<glyph name="plusminus" format="2">
  <advance width="1070.3"/>
  <unicode hex="00B1"/>
  <note>
plusminus
</note>
  <outline>
    <contour>
      <point x="443.8" y="369.7" type="line"/>
      <point x="553.5" y="369.7" type="line"/>
      <point x="553.5" y="590.3" type="line"/>
      <point x="854.6" y="590.3" type="line"/>
      <point x="854.6" y="745.0" type="line"/>
      <point x="553.5" y="745.0" type="line"/>
      <point x="553.5" y="964.9" type="line"/>
      <point x="443.8" y="964.9" type="line"/>
      <point x="443.8" y="745.0" type="line"/>
      <point x="143.4" y="745.0" type="line"/>
      <point x="143.4" y="590.3" type="line"/>
      <point x="443.8" y="590.3" type="line"/>
    </contour>
    <contour>
      <point x="142.7" y="144.8" type="line"/>
      <point x="852.9" y="144.8" type="line"/>
      <point x="852.9" y="298.5" type="line"/>
      <point x="142.7" y="298.5" type="line"/>
    </contour>
  </outline>
</glyph>
<glyph name="paragraph" format="2">
  <advance width="1186.3"/>
  <unicode hex="00B6"/>
  <note>
paragraph
</note>
  <outline>
    <contour>
      <point x="495.4" y="0.0" type="line"/>
      <point x="645.2" y="0.0" type="line"/>
      <point x="645.2" y="1339.3" type="line"/>
      <point x="793.0" y="1339.3" type="line"/>
      <point x="793.0" y="0.0" type="line"/>
      <point x="941.8" y="0.0" type="line"/>
      <point x="941.8" y="1339.3" type="line"/>
      <point x="1065.0" y="1339.3" type="line"/>
      <point x="1065.0" y="1446.7" type="line"/>
      <point x="551.4" y="1446.7" type="line" smooth="yes"/>
      <point x="299.3" y="1446.7"/>
      <point x="126.1" y="1286.5"/>
      <point x="126.1" y="1058.8" type="curve" smooth="yes"/>
      <point x="126.1" y="845.8"/>
      <point x="277.9" y="682.9"/>
      <point x="495.4" y="672.9" type="curve"/>
    </contour>
  </outline>
</glyph>
<glyph name="ordmasculine" format="2">
  <advance width="900.1"/>
  <unicode hex="00BA"/>
  <note>
ordmasculine
</note>
  <outline>
    <contour>
      <point x="449.0" y="806.0" type="curve" smooth="yes"/>
      <point x="627.4" y="806.0"/>
      <point x="762.8" y="928.0"/>
      <point x="762.8" y="1126.0" type="curve" smooth="yes"/>
      <point x="762.8" y="1324.0"/>
      <point x="628.4" y="1449.0"/>
      <point x="449.0" y="1449.0" type="curve" smooth="yes"/>
      <point x="268.6" y="1449.0"/>
      <point x="136.5" y="1325.0"/>
      <point x="136.5" y="1126.0" type="curve" smooth="yes"/>
      <point x="136.5" y="927.0"/>
      <point x="269.6" y="806.0"/>
    </contour>
    <contour>
      <point x="449.0" y="894.6" type="curve" smooth="yes"/>
      <point x="341.3" y="894.6"/>
      <point x="258.0" y="985.1"/>
      <point x="258.0" y="1126.0" type="curve" smooth="yes"/>
      <point x="258.0" y="1266.9"/>
      <point x="342.3" y="1360.4"/>
      <point x="449.0" y="1360.4" type="curve" smooth="yes"/>
      <point x="555.7" y="1360.4"/>
      <point x="640.3" y="1266.9"/>
      <point x="640.3" y="1126.0" type="curve" smooth="yes"/>
      <point x="640.3" y="985.1"/>
      <point x="555.7" y="894.6"/>
    </contour>
    <contour>
      <point x="147.5" y="648.0" type="line"/>
      <point x="751.3" y="648.0" type="line"/>
      <point x="751.3" y="722.0" type="line"/>
      <point x="147.5" y="722.0" type="line"/>
    </contour>
  </outline>
</glyph>
<glyph name="AE" format="2">
  <advance width="1915.5"/>
  <unicode hex="00C6"/>
  <note>
AE
</note>
  <anchor x="1016.1" y="10.0" name="bottom"/>
  <anchor x="1016.1" y="1444.0" name="top"/>
  <outline>
    <contour>
      <point x="76.8" y="-7.0" type="line"/>
      <point x="218.0" y="-7.0" type="line"/>
      <point x="1121.4" y="1440.0" type="line"/>
      <point x="981.2" y="1440.0" type="line"/>
    </contour>
    <contour>
      <point x="457.1" y="437.5" type="line"/>
      <point x="1169.0" y="437.5" type="line"/>
      <point x="1169.0" y="529.8" type="line"/>
      <point x="457.1" y="529.8" type="line"/>
    </contour>
    <contour>
      <point x="1023.0" y="-7.0" type="line"/>
      <point x="1815.2" y="-7.0" type="line"/>
      <point x="1815.2" y="84.30000000000001" type="line"/>
      <point x="1062.3" y="84.30000000000001" type="line"/>
      <point x="1220.2" y="3.6000000000000014" type="line"/>
      <point x="1220.2" y="773.8" type="line"/>
      <point x="1114.2" y="683.2" type="line"/>
      <point x="1815.2" y="683.2" type="line"/>
      <point x="1815.2" y="774.5" type="line"/>
      <point x="1119.0" y="774.5" type="line"/>
      <point x="1220.2" y="689.7" type="line"/>
      <point x="1220.2" y="1434.9" type="line"/>
      <point x="1075.6" y="1348.7" type="line"/>
      <point x="1815.2" y="1348.7" type="line"/>
      <point x="1815.2" y="1440.0" type="line"/>
      <point x="1023.0" y="1440.0" type="line"/>
    </contour>
  </outline>
</glyph>
<glyph name="Thorn" format="2">
  <advance width="1129.3"/>
  <unicode hex="00DE"/>
  <note>
Thorn
</note>
  <anchor x="564.8" y="24.0" name="bottom"/>
  <anchor x="564.8" y="1430.0" name="top"/>
  <outline>
    <contour>
      <point x="253.5" y="315.8" type="line"/>
      <point x="522.5" y="315.8" type="line" smooth="yes"/>
      <point x="673.9" y="315.8"/>
      <point x="802.1" y="348.9"/>
      <point x="873.0" y="396.2" type="curve" smooth="yes"/>
      <point x="993.8" y="478.7"/>
      <point x="1034.3" y="580.2"/>
      <point x="1034.3" y="733.4" type="curve" smooth="yes"/>
      <point x="1034.3" y="877.9"/>
      <point x="997.9" y="965.9"/>
      <point x="904.1" y="1046.8" type="curve" smooth="yes"/>
      <point x="831.1" y="1109.6"/>
      <point x="690.1" y="1149.0"/>
      <point x="522.8" y="1149.0" type="curve" smooth="yes"/>
      <point x="259.5" y="1149.0" type="line"/>
      <point x="259.5" y="1064.7" type="line"/>
      <point x="465.7" y="1064.7" type="line" smooth="yes"/>
      <point x="752.7" y="1064.7"/>
      <point x="846.1" y="978.7"/>
      <point x="846.1" y="732.8" type="curve" smooth="yes"/>
      <point x="846.1" y="484.6"/>
      <point x="751.3" y="400.1"/>
      <point x="465.7" y="400.1" type="curve" smooth="yes"/>
      <point x="253.5" y="400.1" type="line"/>
    </contour>
    <contour>
      <point x="163.4" y="0.0" type="line"/>
      <point x="356.3" y="0.0" type="line"/>
      <point x="356.3" y="1433.0" type="line"/>
      <point x="163.4" y="1433.0" type="line"/>
    </contour>
  </outline>
</glyph>
<glyph name="germandbls" format="2">
  <advance width="1173.9"/>
  <unicode hex="00DF"/>
  <note>
germandbls
</note>
  <anchor x="587.3" y="33.0" name="bottom"/>
  <anchor x="587.3" y="943.5" name="top"/>
  <outline>
    <contour>
      <point x="749.4" y="-28.2" type="curve" smooth="yes"/>
      <point x="975.6" y="-28.2"/>
      <point x="1113.8" y="68.4"/>
      <point x="1113.8" y="264.2" type="curve" smooth="yes"/>
      <point x="1113.8" y="439.6"/>
      <point x="1032.3" y="494.9"/>
      <point x="801.1" y="547.5" type="curve" smooth="yes"/>
      <point x="655.2" y="579.8"/>
      <point x="634.1" y="617.0"/>
      <point x="634.1" y="711.5" type="curve" smooth="yes"/>
      <point x="634.1" y="795.6"/>
      <point x="690.7" y="828.5"/>
      <point x="778.1" y="895.5" type="curve" smooth="yes"/>
      <point x="850.9" y="956.1"/>
      <point x="945.4" y="1029.7"/>
      <point x="945.4" y="1193.7" type="curve" smooth="yes"/>
      <point x="945.4" y="1383.4"/>
      <point x="815.6" y="1557.3"/>
      <point x="556.5" y="1557.3" type="curve" smooth="yes"/>
      <point x="339.8" y="1557.3"/>
      <point x="203.4" y="1351.0"/>
      <point x="203.4" y="1125.7" type="curve" smooth="yes"/>
      <point x="203.4" y="0.0" type="line"/>
      <point x="382.6" y="0.0" type="line"/>
      <point x="382.6" y="1074.7" type="line" smooth="yes"/>
      <point x="382.6" y="1321.3"/>
      <point x="438.9" y="1459.7"/>
      <point x="565.8" y="1459.7" type="curve" smooth="yes"/>
      <point x="694.1" y="1459.7"/>
      <point x="793.7" y="1351.6"/>
      <point x="793.7" y="1181.9" type="curve" smooth="yes"/>
      <point x="793.7" y="1067.8"/>
      <point x="741.3" y="995.5"/>
      <point x="669.4" y="939.5" type="curve" smooth="yes"/>
      <point x="598.3" y="882.3"/>
      <point x="502.0" y="830.9"/>
      <point x="502.0" y="673.8" type="curve" smooth="yes"/>
      <point x="502.0" y="553.3"/>
      <point x="553.3" y="481.4"/>
      <point x="743.8" y="439.2" type="curve" smooth="yes"/>
      <point x="890.9" y="408.3"/>
      <point x="958.1" y="386.6"/>
      <point x="958.1" y="255.5" type="curve" smooth="yes"/>
      <point x="958.1" y="138.3"/>
      <point x="887.3" y="80.4"/>
      <point x="752.1" y="80.4" type="curve" smooth="yes"/>
      <point x="658.9" y="80.4"/>
      <point x="579.3" y="113.7"/>
      <point x="490.4" y="202.2" type="curve"/>
      <point x="483.4" y="72.9" type="line"/>
      <point x="560.4" y="2.3999999999999986"/>
      <point x="655.0" y="-28.2"/>
    </contour>
    <contour>
      <point x="46.900000000000006" y="853.6" type="line"/>
      <point x="297.4" y="853.6" type="line"/>
      <point x="297.4" y="949.5" type="line"/>
      <point x="46.900000000000006" y="949.5" type="line"/>
    </contour>
  </outline>
</glyph>
<glyph name="ae" format="2">
  <advance width="1895.6"/>
  <unicode hex="00E6"/>
  <note>
ae
</note>
  <anchor x="934.5" y="33.0" name="bottom"/>
  <anchor x="936.5" y="943.5" name="top"/>
  <outline>
    <contour>
      <point x="519.1" y="-28.2" type="curve" smooth="yes"/>
      <point x="735.7" y="-28.2"/>
      <point x="871.9" y="92.6"/>
      <point x="924.7" y="305.4" type="curve"/>
      <point x="879.0" y="344.5" type="line"/>
      <point x="873.7" y="0.0" type="line"/>
      <point x="1038.2" y="0.0" type="line"/>
      <point x="1038.2" y="952.0" type="line"/>
      <point x="871.7" y="952.0" type="line"/>
      <point x="871.7" y="596.0" type="line"/>
      <point x="921.7" y="636.0" type="line"/>
      <point x="872.2" y="852.9"/>
      <point x="726.5" y="978.3"/>
      <point x="516.8" y="978.3" type="curve" smooth="yes"/>
      <point x="238.5" y="978.3"/>
      <point x="75.3" y="758.3"/>
      <point x="75.3" y="464.4" type="curve" smooth="yes"/>
      <point x="75.3" y="163.8"/>
      <point x="246.3" y="-28.2"/>
    </contour>
    <contour>
      <point x="532.3" y="68.7" type="curve" smooth="yes"/>
      <point x="361.7" y="68.7"/>
      <point x="257.5" y="202.7"/>
      <point x="257.5" y="471.4" type="curve" smooth="yes"/>
      <point x="257.5" y="742.6"/>
      <point x="362.7" y="880.7"/>
      <point x="530.0" y="880.7" type="curve" smooth="yes"/>
      <point x="707.2" y="880.7"/>
      <point x="832.9" y="717.3"/>
      <point x="832.9" y="467.4" type="curve" smooth="yes"/>
      <point x="832.9" y="214.2"/>
      <point x="708.3" y="68.7"/>
    </contour>
    <contour>
      <point x="1390.8" y="-25.2" type="curve" smooth="yes"/>
      <point x="1604.7" y="-25.2"/>
      <point x="1746.9" y="95.6"/>
      <point x="1816.0" y="325.7" type="curve"/>
      <point x="1673.7" y="325.7" type="line"/>
      <point x="1666.8" y="191.6"/>
      <point x="1536.6" y="70.7"/>
      <point x="1394.1" y="70.7" type="curve" smooth="yes"/>
      <point x="1230.0" y="70.7"/>
      <point x="1124.7" y="232.6"/>
      <point x="1124.7" y="470.1" type="curve" smooth="yes"/>
      <point x="1124.7" y="711.2"/>
      <point x="1230.2" y="875.8"/>
      <point x="1390.8" y="875.8" type="curve" smooth="yes"/>
      <point x="1527.7" y="875.8"/>
      <point x="1636.1" y="758.1"/>
      <point x="1660.3" y="494.5" type="curve"/>
      <point x="1829.5" y="494.5" type="line"/>
      <point x="1801.7" y="807.6"/>
      <point x="1632.8" y="973.4"/>
      <point x="1388.5" y="973.4" type="curve" smooth="yes"/>
      <point x="1111.2" y="973.4"/>
      <point x="946.8" y="753.2"/>
      <point x="946.8" y="466.4" type="curve" smooth="yes"/>
      <point x="946.8" y="168.6"/>
      <point x="1120.2" y="-25.2"/>
    </contour>
    <contour>
      <point x="1105.2" y="493.5" type="line"/>
      <point x="1782.9" y="494.5" type="line"/>
      <point x="1783.0" y="585.1" type="line"/>
      <point x="1076.1" y="585.1" type="line"/>
    </contour>
  </outline>
</glyph>
<glyph name="eth" format="2">
  <advance width="1127.9"/>
  <unicode hex="00F0"/>
  <note>
eth
</note>
  <outline>
    <contour>
      <point x="556.2" y="-31.2" type="curve" smooth="yes"/>
      <point x="718.1" y="-31.2"/>
      <point x="833.7" y="18.7"/>
      <point x="912.6" y="112.3" type="curve" smooth="yes"/>
      <point x="969.9" y="177.0"/>
      <point x="1038.4" y="263.0"/>
      <point x="1038.4" y="471.1" type="curve" smooth="yes"/>
      <point x="1037.4" y="614.6"/>
      <point x="1023.7" y="810.5"/>
      <point x="940.1" y="980.0" type="curve" smooth="yes"/>
      <point x="824.2" y="1216.5"/>
      <point x="530.5" y="1457.1"/>
      <point x="181.5" y="1521.8" type="curve"/>
      <point x="137.2" y="1452.3" type="line"/>
      <point x="548.7" y="1373.1"/>
      <point x="832.4" y="1088.5"/>
      <point x="869.2" y="680.8" type="curve"/>
      <point x="962.6" y="724.8" type="line"/>
      <point x="858.2" y="864.3"/>
      <point x="740.7" y="946.8"/>
      <point x="556.2" y="946.8" type="curve" smooth="yes"/>
      <point x="425.4" y="946.8"/>
      <point x="315.6" y="907.7"/>
      <point x="234.9" y="840.6" type="curve" smooth="yes"/>
      <point x="131.4" y="753.3"/>
      <point x="75.0" y="617.4"/>
      <point x="75.0" y="448.4" type="curve" smooth="yes"/>
      <point x="75.0" y="303.5"/>
      <point x="118.3" y="188.3"/>
      <point x="192.9" y="107.6" type="curve" smooth="yes"/>
      <point x="277.3" y="13.1"/>
      <point x="405.5" y="-31.2"/>
    </contour>
    <contour>
      <point x="559.0" y="60.7" type="curve" smooth="yes"/>
      <point x="392.2" y="60.7"/>
      <point x="262.3" y="216.4"/>
      <point x="262.3" y="455.1" type="curve" smooth="yes"/>
      <point x="262.3" y="699.0"/>
      <point x="399.4" y="855.6"/>
      <point x="559.0" y="855.6" type="curve" smooth="yes"/>
      <point x="723.6" y="855.6"/>
      <point x="852.9" y="688.3"/>
      <point x="852.9" y="449.4" type="curve" smooth="yes"/>
      <point x="852.9" y="204.3"/>
      <point x="717.5" y="60.7"/>
    </contour>
    <contour>
      <point x="222.0" y="1101.2" type="line"/>
      <point x="358.9" y="1101.2" type="line"/>
      <point x="846.9" y="1546.0" type="line"/>
      <point x="711.0" y="1546.0" type="line"/>
    </contour>
  </outline>
</glyph>
<glyph name="divide" format="2">
  <advance width="1070.3"/>
  <unicode hex="00F7"/>
  <note>
divide
</note>
  <outline>
    <contour>
      <point x="126.1" y="570.1" type="line"/>
      <point x="1158.8" y="570.1" type="line"/>
      <point x="1158.8" y="699.8" type="line"/>
      <point x="126.1" y="699.8" type="line"/>
    </contour>
    <contour>
      <point x="642.3" y="192.5" type="curve" smooth="yes"/>
      <point x="707.9" y="192.5"/>
      <point x="756.5" y="252.1"/>
      <point x="756.5" y="325.4" type="curve" smooth="yes"/>
      <point x="756.5" y="399.4"/>
      <point x="706.2" y="458.6"/>
      <point x="642.3" y="458.6" type="curve" smooth="yes"/>
      <point x="578.7" y="458.6"/>
      <point x="529.4" y="399.4"/>
      <point x="529.4" y="325.4" type="curve" smooth="yes"/>
      <point x="529.4" y="252.4"/>
      <point x="578.0" y="192.5"/>
    </contour>
    <contour>
      <point x="642.3" y="817.2" type="curve" smooth="yes"/>
      <point x="706.9" y="817.2"/>
      <point x="756.5" y="876.8"/>
      <point x="756.5" y="950.1" type="curve" smooth="yes"/>
      <point x="756.5" y="1023.1"/>
      <point x="706.2" y="1082.3"/>
      <point x="642.3" y="1082.3" type="curve" smooth="yes"/>
      <point x="578.7" y="1082.3"/>
      <point x="529.4" y="1023.1"/>
      <point x="529.4" y="950.1" type="curve" smooth="yes"/>
      <point x="529.4" y="876.8"/>
      <point x="578.7" y="817.2"/>
    </contour>
  </outline>
</glyph>
<glyph name="thorn" format="2">
  <advance width="1190.9"/>
  <unicode hex="00FE"/>
  <note>
thorn
</note>
  <anchor x="602.4" y="33.0" name="bottom"/>
  <anchor x="602.4" y="943.5" name="top"/>
  <outline>
    <contour>
      <point x="143.4" y="-577.8" type="line"/>
      <point x="325.6" y="-577.8" type="line"/>
      <point x="325.6" y="356.1" type="line"/>
      <point x="277.6" y="316.8" type="line"/>
      <point x="326.1" y="100.9"/>
      <point x="463.5" y="-30.3"/>
      <point x="677.8" y="-30.3" type="curve" smooth="yes"/>
      <point x="949.5" y="-30.3"/>
      <point x="1116.3" y="185.9"/>
      <point x="1116.3" y="480.7" type="curve" smooth="yes"/>
      <point x="1116.3" y="774.1"/>
      <point x="947.0" y="973.4"/>
      <point x="675.5" y="973.4" type="curve" smooth="yes"/>
      <point x="459.0" y="973.4"/>
      <point x="325.1" y="852.2"/>
      <point x="274.6" y="640.2" type="curve"/>
      <point x="324.3" y="601.6" type="line"/>
      <point x="324.3" y="1518.0" type="line"/>
      <point x="143.4" y="1518.0" type="line"/>
    </contour>
    <contour>
      <point x="653.6" y="66.6" type="curve" smooth="yes"/>
      <point x="473.6" y="66.6"/>
      <point x="349.0" y="236.6"/>
      <point x="349.0" y="482.7" type="curve" smooth="yes"/>
      <point x="349.0" y="729.0"/>
      <point x="477.7" y="876.8"/>
      <point x="651.3" y="876.8" type="curve" smooth="yes"/>
      <point x="833.0" y="876.8"/>
      <point x="942.1" y="739.7"/>
      <point x="942.1" y="473.7" type="curve" smooth="yes"/>
      <point x="942.1" y="200.8"/>
      <point x="828.1" y="66.6"/>
    </contour>
  </outline>
</glyph>
<glyph name="idotless" format="2">
  <advance width="424.2"/>
  <unicode hex="0131"/>
  <note>
dotlessi
</note>
  <anchor x="212.1" y="3.0" name="bottom"/>
  <anchor x="236.8" y="0.0" name="ogonek"/>
  <anchor x="214.9" y="945.7" name="top"/>
  <outline>
    <contour>
      <point x="122.0" y="0.0" type="line"/>
      <point x="302.2" y="0.0" type="line"/>
      <point x="302.2" y="946.4" type="line"/>
      <point x="122.0" y="946.4" type="line"/>
    </contour>
  </outline>
</glyph>
<glyph name="kgreenlandic" format="2">
  <advance width="1046.9"/>
  <unicode hex="0138"/>
  <anchor x="529.1" y="33.0" name="bottom"/>
  <anchor x="529.1" y="943.5" name="top"/>
  <outline>
    <contour>
      <point x="122.0" y="0.0" type="line"/>
      <point x="303.2" y="0.0" type="line"/>
      <point x="303.2" y="945.0" type="line"/>
      <point x="122.0" y="945.0" type="line"/>
    </contour>
    <contour>
      <point x="794.6" y="0.0" type="line"/>
      <point x="1004.3" y="0.0" type="line"/>
      <point x="477.0" y="577.0" type="line"/>
      <point x="365.9" y="451.9" type="line"/>
    </contour>
    <contour>
      <point x="262.7" y="337.8" type="line"/>
      <point x="878.8" y="945.7" type="line"/>
      <point x="726.3" y="945.7" type="line"/>
      <point x="283.4" y="510.8" type="line"/>
    </contour>
  </outline>
</glyph>
<glyph name="lslash" format="2">
  <advance width="742.7"/>
  <unicode hex="0142"/>
  <outline>
    <contour>
      <point x="280.1" y="0.0" type="line"/>
      <point x="469.7" y="0.0" type="line"/>
      <point x="469.7" y="1518.0" type="line"/>
      <point x="280.1" y="1518.0" type="line"/>
    </contour>
    <contour>
      <point x="99.2" y="497.6" type="line"/>
      <point x="699.1" y="849.1" type="line"/>
      <point x="644.5" y="939.3" type="line"/>
      <point x="43.6" y="587.8" type="line"/>
    </contour>
  </outline>
</glyph>
<glyph name="Eng" format="2">
  <advance width="1514.0"/>
  <unicode hex="014A"/>
  <outline>
    <contour>
      <point x="1062.3" y="-427.3" type="curve" smooth="yes"/>
      <point x="1222.4" y="-427.3"/>
      <point x="1343.8" y="-311.9"/>
      <point x="1343.8" y="-126.8" type="curve" smooth="yes"/>
      <point x="1343.8" y="1433.0" type="line"/>
      <point x="1207.7" y="1433.0" type="line"/>
      <point x="1207.7" y="181.1" type="line"/>
      <point x="1264.0" y="201.4" type="line"/>
      <point x="332.3" y="1433.0" type="line"/>
      <point x="160.7" y="1433.0" type="line"/>
      <point x="165.7" y="0.0" type="line"/>
      <point x="300.8" y="0.0" type="line"/>
      <point x="300.8" y="1238.6" type="line"/>
      <point x="243.5" y="1219.7" type="line"/>
      <point x="1180.3" y="-5.700000000000003" type="line" smooth="yes"/>
      <point x="1213.2" y="-47.7"/>
      <point x="1219.8" y="-83.9"/>
      <point x="1219.8" y="-142.3" type="curve" smooth="yes"/>
      <point x="1219.8" y="-307.9"/>
      <point x="1110.4" y="-333.5"/>
      <point x="1056.5" y="-333.5" type="curve" smooth="yes"/>
      <point x="981.8" y="-333.5"/>
      <point x="900.8" y="-281.2"/>
      <point x="837.4" y="-193.0" type="curve"/>
      <point x="837.4" y="-333.7" type="line"/>
      <point x="895.7" y="-405.7"/>
      <point x="973.1" y="-427.3"/>
    </contour>
  </outline>
</glyph>
<glyph name="eng" format="2">
  <advance width="1095.7"/>
  <unicode hex="014B"/>
  <outline>
    <contour>
      <point x="735.9" y="-492.3" type="curve" smooth="yes"/>
      <point x="943.3" y="-492.3"/>
      <point x="989.0" y="-275.8"/>
      <point x="989.0" y="4.300000000000004" type="curve" smooth="yes"/>
      <point x="989.0" y="628.3" type="line" smooth="yes"/>
      <point x="989.0" y="825.8"/>
      <point x="888.0" y="973.4"/>
      <point x="635.3" y="973.4" type="curve" smooth="yes"/>
      <point x="433.9" y="973.4"/>
      <point x="322.2" y="880.1"/>
      <point x="281.2" y="710.7" type="curve"/>
      <point x="309.2" y="676.8" type="line"/>
      <point x="310.2" y="946.4" type="line"/>
      <point x="122.0" y="946.4" type="line"/>
      <point x="122.0" y="0.0" type="line"/>
      <point x="310.2" y="0.0" type="line"/>
      <point x="310.2" y="557.7" type="line" smooth="yes"/>
      <point x="310.2" y="728.7"/>
      <point x="405.1" y="874.5"/>
      <point x="590.4" y="874.5" type="curve" smooth="yes"/>
      <point x="736.7" y="874.5"/>
      <point x="800.8" y="782.3"/>
      <point x="800.8" y="577.3" type="curve" smooth="yes"/>
      <point x="800.8" y="14.300000000000004" type="line" smooth="yes"/>
      <point x="800.8" y="-211.5"/>
      <point x="821.8" y="-403.4"/>
      <point x="718.6" y="-403.4" type="curve" smooth="yes"/>
      <point x="657.7" y="-396.4"/>
      <point x="633.8" y="-341.6"/>
      <point x="633.8" y="-296.0" type="curve" smooth="yes"/>
      <point x="633.8" y="-271.4"/>
      <point x="640.0" y="-235.4"/>
      <point x="647.5" y="-214.2" type="curve"/>
      <point x="531.3" y="-214.2" type="line"/>
      <point x="519.9" y="-256.0"/>
      <point x="518.9" y="-294.5"/>
      <point x="518.9" y="-309.9" type="curve" smooth="yes"/>
      <point x="521.9" y="-427.0"/>
      <point x="609.0" y="-492.3"/>
    </contour>
  </outline>
</glyph>
<glyph name="OE" format="2">
  <advance width="2107.5"/>
  <unicode hex="0152"/>
  <note>
OE
</note>
  <anchor x="1058.8" y="24.0" name="bottom"/>
  <anchor x="1058.8" y="1430.0" name="top"/>
  <outline>
    <contour>
      <point x="764.7" y="-22.2" type="curve" smooth="yes"/>
      <point x="1181.3" y="-21.2"/>
      <point x="1422.0" y="295.8"/>
      <point x="1422.0" y="713.6" type="curve" smooth="yes"/>
      <point x="1422.0" y="1131.4"/>
      <point x="1179.6" y="1450.2"/>
      <point x="764.7" y="1450.2" type="curve" smooth="yes"/>
      <point x="349.5" y="1450.2"/>
      <point x="105.4" y="1130.1"/>
      <point x="105.4" y="710.6" type="curve" smooth="yes"/>
      <point x="105.4" y="294.5"/>
      <point x="346.4" y="-23.2"/>
    </contour>
    <contour>
      <point x="764.7" y="68.5" type="curve"/>
      <point x="474.8" y="76.3"/>
      <point x="312.0" y="336.4"/>
      <point x="312.0" y="712.7" type="curve" smooth="yes"/>
      <point x="312.0" y="1095.2"/>
      <point x="480.7" y="1354.5"/>
      <point x="764.7" y="1359.5" type="curve"/>
      <point x="1047.7" y="1354.5"/>
      <point x="1217.4" y="1093.2"/>
      <point x="1217.4" y="712.7" type="curve" smooth="yes"/>
      <point x="1217.4" y="337.4"/>
      <point x="1054.6" y="76.3"/>
    </contour>
    <contour>
      <point x="1228.8" y="0.0" type="line"/>
      <point x="2008.2" y="0.0" type="line"/>
      <point x="2008.2" y="91.30000000000001" type="line"/>
      <point x="1225.4" y="91.30000000000001" type="line"/>
      <point x="1426.7" y="10.2" type="line"/>
      <point x="1426.7" y="769.7" type="line"/>
      <point x="1278.2" y="682.2" type="line"/>
      <point x="2008.2" y="682.2" type="line"/>
      <point x="2008.2" y="773.5" type="line"/>
      <point x="1272.4" y="773.5" type="line"/>
      <point x="1426.7" y="692.4" type="line"/>
      <point x="1426.7" y="1416.7" type="line"/>
      <point x="1253.8" y="1341.7" type="line"/>
      <point x="2008.2" y="1341.7" type="line"/>
      <point x="2008.2" y="1433.0" type="line"/>
      <point x="1228.8" y="1433.0" type="line"/>
    </contour>
  </outline>
</glyph>
<glyph name="Schwa" format="2">
  <advance width="1576.2"/>
  <unicode hex="018F"/>
  <anchor x="787.9" y="24.0" name="bottom"/>
  <anchor x="787.89" y="1430.0" name="top"/>
  <outline>
    <contour>
      <point x="771.0" y="-22.2" type="curve" smooth="yes"/>
      <point x="1199.9" y="-22.2"/>
      <point x="1470.8" y="291.9"/>
      <point x="1470.8" y="714.7" type="curve" smooth="yes"/>
      <point x="1470.8" y="1127.8"/>
      <point x="1191.6" y="1450.9"/>
      <point x="772.0" y="1450.9" type="curve" smooth="yes"/>
      <point x="504.5" y="1450.9"/>
      <point x="269.6" y="1309.4"/>
      <point x="174.4" y="1098.6" type="curve"/>
      <point x="367.4" y="1098.6" type="line"/>
      <point x="457.4" y="1264.1"/>
      <point x="596.3" y="1357.5"/>
      <point x="771.0" y="1359.2" type="curve"/>
      <point x="1063.4" y="1354.8"/>
      <point x="1266.2" y="1095.2"/>
      <point x="1266.2" y="713.7" type="curve" smooth="yes"/>
      <point x="1266.2" y="337.4"/>
      <point x="1068.2" y="76.9"/>
      <point x="772.0" y="69.5" type="curve"/>
      <point x="484.2" y="76.2"/>
      <point x="288.8" y="324.9"/>
      <point x="282.8" y="716.2" type="curve"/>
      <point x="90.2" y="716.2" type="line"/>
      <point x="85.2" y="278.7"/>
      <point x="356.2" y="-22.2"/>
    </contour>
    <contour>
      <point x="247.5" y="624.9" type="line"/>
      <point x="1324.8" y="624.9" type="line"/>
      <point x="1324.8" y="716.2" type="line"/>
      <point x="247.5" y="716.2" type="line"/>
    </contour>
  </outline>
</glyph>
<glyph name="florin" format="2">
  <advance width="1376.6"/>
  <unicode hex="0192"/>
  <note>
florin
</note>
  <outline>
    <contour>
      <point x="549.1" y="378.5" type="line"/>
      <point x="739.8" y="378.5" type="line"/>
      <point x="917.7" y="1072.4" type="line" smooth="yes"/>
      <point x="946.9" y="1348.5"/>
      <point x="986.5" y="1431.3"/>
      <point x="1099.0" y="1440.2" type="curve"/>
      <point x="1122.4" y="1432.2"/>
      <point x="1128.0" y="1409.6"/>
      <point x="1106.0" y="1334.0" type="curve"/>
      <point x="1252.9" y="1416.7" type="line"/>
      <point x="1228.1" y="1504.3"/>
      <point x="1169.6" y="1544.0"/>
      <point x="1062.6" y="1544.0" type="curve" smooth="yes"/>
      <point x="872.7" y="1544.0"/>
      <point x="809.4" y="1404.4"/>
      <point x="746.6" y="1157.0" type="curve" smooth="yes"/>
    </contour>
    <contour>
      <point x="312.3" y="-457.1" type="curve" smooth="yes"/>
      <point x="503.4" y="-457.1"/>
      <point x="555.7" y="-317.4"/>
      <point x="624.0" y="-62.8" type="curve" smooth="yes"/>
      <point x="797.9" y="594.7" type="line"/>
      <point x="606.2" y="594.7" type="line"/>
      <point x="458.9" y="15.200000000000003" type="line" smooth="yes"/>
      <point x="428.0" y="-263.6"/>
      <point x="388.4" y="-343.4"/>
      <point x="275.6" y="-353.3" type="curve"/>
      <point x="251.8" y="-344.6"/>
      <point x="247.2" y="-322.0"/>
      <point x="269.0" y="-247.4" type="curve"/>
      <point x="123.0" y="-328.8" type="line"/>
      <point x="145.8" y="-416.7"/>
      <point x="205.3" y="-457.1"/>
    </contour>
    <contour>
      <point x="486.3" y="840.0" type="line"/>
      <point x="1043.5" y="840.0" type="line"/>
      <point x="1069.8" y="933.8" type="line"/>
      <point x="510.5" y="933.8" type="line"/>
    </contour>
  </outline>
</glyph>
<glyph name="jdotless" format="2">
  <advance width="446.0"/>
  <unicode hex="0237"/>
  <anchor x="222.3" y="-493.0" name="bottom"/>
  <anchor x="222.3" y="943.5" name="top"/>
  <outline>
    <contour>
      <point x="46.0" y="-568.3" type="curve" smooth="yes"/>
      <point x="246.4" y="-568.3"/>
      <point x="320.1" y="-414.8"/>
      <point x="320.1" y="-153.7" type="curve" smooth="yes"/>
      <point x="320.1" y="946.4" type="line"/>
      <point x="131.9" y="946.4" type="line"/>
      <point x="131.9" y="-103.7" type="line" smooth="yes"/>
      <point x="131.9" y="-330.5"/>
      <point x="141.9" y="-471.4"/>
      <point x="42.7" y="-471.4" type="curve" smooth="yes"/>
      <point x="-1.2000000000000028" y="-464.4"/>
      <point x="-52.1" y="-424.6"/>
      <point x="-52.1" y="-372.0" type="curve" smooth="yes"/>
      <point x="-52.1" y="-348.4"/>
      <point x="-46.900000000000006" y="-315.4"/>
      <point x="-36.400000000000006" y="-288.2" type="curve"/>
      <point x="-159.6" y="-288.2" type="line"/>
      <point x="-171.0" y="-330.0"/>
      <point x="-173.0" y="-373.5"/>
      <point x="-173.0" y="-385.9" type="curve" smooth="yes"/>
      <point x="-173.0" y="-515.0"/>
      <point x="-86.9" y="-568.3"/>
    </contour>
  </outline>
</glyph>
<glyph name="primemod" format="2">
  <advance width="225.39"/>
  <unicode hex="02B9"/>
  <outline>
    <contour>
      <point x="225.7" y="1340.2" type="curve"/>
      <point x="70.2" y="1340.2" type="line"/>
      <point x="43.0" y="1255.9"/>
      <point x="8.5" y="1089.5"/>
      <point x="0.0" y="1025.0" type="curve"/>
      <point x="121.0" y="1025.0" type="line"/>
      <point x="167.7" y="1133.4"/>
      <point x="207.0" y="1255.5"/>
    </contour>
  </outline>
</glyph>
<glyph name="gravecomb" format="2">
  <unicode hex="0300"/>
  <note>
grave
</note>
  <anchor x="220.7" y="940.5" name="_top"/>
  <anchor x="220.7" y="1331.5" name="top"/>
  <outline>
    <contour>
      <point x="282.6" y="1075.1" type="curve"/>
      <point x="363.3" y="1075.1" type="line"/>
      <point x="316.1" y="1165.9"/>
      <point x="263.1" y="1262.9"/>
      <point x="218.4" y="1329.5" type="curve"/>
      <point x="77.1" y="1329.5" type="line"/>
      <point x="126.9" y="1259.9"/>
      <point x="188.7" y="1179.0"/>
    </contour>
  </outline>
</glyph>
<glyph name="acutecomb" format="2">
  <unicode hex="0301"/>
  <note>
acute
</note>
  <anchor x="215.6" y="940.5" name="_top"/>
  <anchor x="215.6" y="1337.5" name="top"/>
  <outline>
    <contour>
      <point x="83.0" y="1084.1" type="curve"/>
      <point x="142.7" y="1084.1" type="line"/>
      <point x="235.6" y="1186.0"/>
      <point x="298.4" y="1267.9"/>
      <point x="348.2" y="1338.5" type="curve"/>
      <point x="206.9" y="1338.5" type="line"/>
      <point x="162.2" y="1271.9"/>
      <point x="118.2" y="1174.9"/>
    </contour>
  </outline>
</glyph>
<glyph name="circumflexcomb" format="2">
  <unicode hex="0302"/>
  <note>
circumflex
</note>
  <anchor x="302.2" y="940.5" name="_top"/>
  <anchor x="302.2" y="1408.6" name="top"/>
  <outline>
    <contour>
      <point x="62.099999999999994" y="1090.6" type="line"/>
      <point x="128.5" y="1090.6" type="line"/>
      <point x="296.5" y="1318.4" type="line"/>
      <point x="476.9" y="1090.6" type="line"/>
      <point x="542.3" y="1090.6" type="line"/>
      <point x="353.9" y="1399.6" type="line"/>
      <point x="248.8" y="1399.6" type="line"/>
    </contour>
  </outline>
</glyph>
<glyph name="tildecomb" format="2">
  <unicode hex="0303"/>
  <note>
tilde
</note>
  <anchor x="374.2" y="940.5" name="_top"/>
  <anchor x="374.2" y="1332.6" name="top"/>
  <outline>
    <contour>
      <point x="486.8" y="1125.9" type="curve" smooth="yes"/>
      <point x="571.8" y="1125.9"/>
      <point x="643.1" y="1191.9"/>
      <point x="676.6" y="1285.9" type="curve"/>
      <point x="654.0" y="1310.6" type="line"/>
      <point x="597.7" y="1231.9"/>
      <point x="554.3" y="1202.3"/>
      <point x="496.1" y="1202.3" type="curve" smooth="yes"/>
      <point x="406.8" y="1202.3"/>
      <point x="389.3" y="1331.6"/>
      <point x="259.6" y="1331.6" type="curve" smooth="yes"/>
      <point x="177.9" y="1331.6"/>
      <point x="103.8" y="1265.1"/>
      <point x="70.1" y="1169.7" type="curve"/>
      <point x="94.8" y="1144.9" type="line"/>
      <point x="152.4" y="1225.0"/>
      <point x="186.2" y="1254.6"/>
      <point x="248.3" y="1254.6" type="curve" smooth="yes"/>
      <point x="341.1" y="1254.6"/>
      <point x="361.2" y="1125.9"/>
    </contour>
  </outline>
</glyph>
<glyph name="macroncomb" format="2">
  <unicode hex="0304"/>
  <note>
macron
</note>
  <anchor x="373.3" y="940.5" name="_top"/>
  <anchor x="373.3" y="1215.3" name="top"/>
  <outline>
    <contour>
      <point x="71.8" y="1154.3" type="line"/>
      <point x="674.5" y="1154.3" type="line"/>
      <point x="674.5" y="1214.3" type="line"/>
      <point x="71.8" y="1214.3" type="line"/>
    </contour>
  </outline>
</glyph>
<glyph name="brevecomb" format="2">
  <unicode hex="0306"/>
  <note>
breve
</note>
  <anchor x="335.6" y="940.5" name="_top"/>
  <anchor x="335.6" y="1341.2" name="top"/>
  <outline>
    <contour>
      <point x="335.6" y="1088.8" type="curve" smooth="yes"/>
      <point x="465.3" y="1088.8"/>
      <point x="557.2" y="1155.3"/>
      <point x="595.9" y="1340.2" type="curve"/>
      <point x="548.2" y="1340.2" type="line"/>
      <point x="494.6" y="1215.8"/>
      <point x="432.5" y="1171.0"/>
      <point x="335.6" y="1171.0" type="curve" smooth="yes"/>
      <point x="239.7" y="1171.0"/>
      <point x="173.6" y="1213.8"/>
      <point x="119.0" y="1340.2" type="curve"/>
      <point x="74.3" y="1340.2" type="line"/>
      <point x="111.3" y="1158.3"/>
      <point x="202.9" y="1088.8"/>
    </contour>
  </outline>
</glyph>
<glyph name="dotaccentcomb" format="2">
  <unicode hex="0307"/>
  <anchor x="166.6" y="940.5" name="_top"/>
  <anchor x="166.6" y="1314.1" name="top"/>
  <outline>
    <contour>
      <point x="166.6" y="1125.4" type="curve" smooth="yes"/>
      <point x="219.3" y="1125.4"/>
      <point x="262.6" y="1166.6"/>
      <point x="262.6" y="1219.6" type="curve" smooth="yes"/>
      <point x="262.6" y="1272.3"/>
      <point x="218.6" y="1312.1"/>
      <point x="166.6" y="1312.1" type="curve" smooth="yes"/>
      <point x="115.6" y="1312.1"/>
      <point x="71.6" y="1272.3"/>
      <point x="71.6" y="1219.6" type="curve" smooth="yes"/>
      <point x="71.6" y="1166.6"/>
      <point x="114.9" y="1125.4"/>
    </contour>
  </outline>
</glyph>
<glyph name="dieresiscomb" format="2">
  <unicode hex="0308"/>
  <note>
dieresis
</note>
  <anchor x="301.4" y="940.5" name="_top"/>
  <anchor x="301.4" y="1290.7" name="top"/>
  <outline>
    <contour>
      <point x="461.2" y="1110.4" type="curve" smooth="yes"/>
      <point x="511.3" y="1110.4"/>
      <point x="552.5" y="1149.5"/>
      <point x="552.5" y="1199.9" type="curve" smooth="yes"/>
      <point x="552.5" y="1251.3"/>
      <point x="511.6" y="1289.7"/>
      <point x="461.2" y="1289.7" type="curve" smooth="yes"/>
      <point x="411.8" y="1289.7"/>
      <point x="369.9" y="1251.3"/>
      <point x="369.9" y="1199.9" type="curve" smooth="yes"/>
      <point x="369.9" y="1149.5"/>
      <point x="411.1" y="1110.4"/>
    </contour>
    <contour>
      <point x="141.6" y="1110.4" type="curve" smooth="yes"/>
      <point x="191.7" y="1110.4"/>
      <point x="232.9" y="1149.5"/>
      <point x="232.9" y="1199.9" type="curve" smooth="yes"/>
      <point x="232.9" y="1251.3"/>
      <point x="191.0" y="1289.7"/>
      <point x="141.6" y="1289.7" type="curve" smooth="yes"/>
      <point x="91.2" y="1289.7"/>
      <point x="50.3" y="1251.3"/>
      <point x="50.3" y="1199.9" type="curve" smooth="yes"/>
      <point x="50.3" y="1149.5"/>
      <point x="91.5" y="1110.4"/>
    </contour>
  </outline>
</glyph>
<glyph name="hookabovecomb" format="2">
  <unicode hex="0309"/>
  <anchor x="228.8" y="940.5" name="_top"/>
  <anchor x="228.8" y="1407.2" name="top"/>
  <outline>
    <contour>
      <point x="172.1" y="1122.4" type="line"/>
      <point x="296.5" y="1138.8"/>
      <point x="385.8" y="1184.9"/>
      <point x="385.8" y="1271.2" type="curve" smooth="yes"/>
      <point x="385.8" y="1350.9"/>
      <point x="310.9" y="1406.2"/>
      <point x="213.3" y="1406.2" type="curve" smooth="yes"/>
      <point x="147.8" y="1406.2"/>
      <point x="104.4" y="1378.5"/>
      <point x="71.5" y="1349.5" type="curve"/>
      <point x="89.8" y="1326.8" type="line"/>
      <point x="119.5" y="1354.3"/>
      <point x="163.3" y="1373.3"/>
      <point x="208.6" y="1373.3" type="curve" smooth="yes"/>
      <point x="267.1" y="1373.3"/>
      <point x="303.4" y="1340.1"/>
      <point x="303.4" y="1272.2" type="curve" smooth="yes"/>
      <point x="303.4" y="1184.3"/>
      <point x="244.2" y="1164.0"/>
      <point x="172.1" y="1147.6" type="curve"/>
    </contour>
    <contour>
      <point x="172.1" y="1047.6" type="line"/>
      <point x="237.1" y="1047.6" type="line"/>
      <point x="237.1" y="1147.2" type="line"/>
      <point x="172.1" y="1136.2" type="line"/>
    </contour>
  </outline>
</glyph>
<glyph name="ringcomb" format="2">
  <unicode hex="030A"/>
  <note>
ring
</note>
  <anchor x="255.3" y="940.5" name="_top"/>
  <anchor x="255.3" y="1412.9" name="top"/>
  <outline>
    <contour>
      <point x="254.6" y="1066.2" type="curve" smooth="yes"/>
      <point x="348.7" y="1066.2"/>
      <point x="428.0" y="1146.1"/>
      <point x="428.0" y="1239.6" type="curve" smooth="yes"/>
      <point x="428.0" y="1331.7"/>
      <point x="348.7" y="1413.0"/>
      <point x="254.6" y="1413.0" type="curve" smooth="yes"/>
      <point x="159.8" y="1413.0"/>
      <point x="81.2" y="1332.4"/>
      <point x="81.2" y="1239.6" type="curve" smooth="yes"/>
      <point x="81.2" y="1145.4"/>
      <point x="159.8" y="1066.2"/>
    </contour>
    <contour>
      <point x="254.6" y="1125.9" type="curve" smooth="yes"/>
      <point x="191.9" y="1125.9"/>
      <point x="141.9" y="1178.1"/>
      <point x="141.9" y="1239.6" type="curve" smooth="yes"/>
      <point x="141.9" y="1301.8"/>
      <point x="192.6" y="1353.3"/>
      <point x="254.6" y="1353.3" type="curve" smooth="yes"/>
      <point x="317.3" y="1353.3"/>
      <point x="367.3" y="1301.1"/>
      <point x="367.3" y="1239.6" type="curve" smooth="yes"/>
      <point x="367.3" y="1177.4"/>
      <point x="316.6" y="1125.9"/>
    </contour>
  </outline>
</glyph>
<glyph name="horncomb" format="2">
  <unicode hex="031B"/>
  <anchor x="331.0" y="1247.5" name="_topright"/>
  <anchor x="333.2" y="1302.5" name="topright"/>
  <outline>
    <contour>
      <point x="313.2" y="1316.5" type="curve"/>
      <point x="236.6" y="1316.5" type="line"/>
      <point x="235.9" y="1268.7"/>
      <point x="199.5" y="1178.7"/>
      <point x="111.0" y="1170.7" type="curve"/>
      <point x="111.0" y="1123.5" type="line"/>
      <point x="206.0" y="1121.8"/>
      <point x="312.9" y="1209.9"/>
    </contour>
  </outline>
</glyph>
<glyph name="cedillacomb" format="2">
  <unicode hex="0327"/>
  <anchor x="225.3" y="0.0" name="_bottom"/>
  <anchor x="224.65" y="-375.1" name="bottom"/>
  <outline>
    <contour>
      <point x="209.4" y="-377.2" type="curve" smooth="yes"/>
      <point x="337.4" y="-377.2"/>
      <point x="409.3" y="-326.8"/>
      <point x="409.3" y="-247.1" type="curve" smooth="yes"/>
      <point x="409.3" y="-158.7"/>
      <point x="335.0" y="-102.0"/>
      <point x="243.0" y="-125.0" type="curve" smooth="yes"/>
      <point x="233.8" y="-120.0"/>
      <point x="185.2" y="-144.5"/>
      <point x="144.6" y="-165.0" type="curve"/>
      <point x="83.9" y="-204.9" type="line"/>
      <point x="152.4" y="-187.0"/>
      <point x="175.7" y="-181.9"/>
      <point x="214.8" y="-181.9" type="curve" smooth="yes"/>
      <point x="269.8" y="-181.9"/>
      <point x="297.3" y="-207.4"/>
      <point x="297.3" y="-248.1" type="curve" smooth="yes"/>
      <point x="297.3" y="-299.8"/>
      <point x="265.5" y="-329.9"/>
      <point x="197.1" y="-329.9" type="curve" smooth="yes"/>
      <point x="152.3" y="-329.9"/>
      <point x="113.0" y="-322.0"/>
      <point x="41.8" y="-297.9" type="curve"/>
      <point x="41.8" y="-335.6" type="line"/>
      <point x="98.0" y="-361.8"/>
      <point x="155.4" y="-377.2"/>
    </contour>
    <contour>
      <point x="82.9" y="-204.9" type="line"/>
      <point x="203.8" y="-154.7" type="line"/>
      <point x="289.5" y="-1.0" type="line"/>
      <point x="200.9" y="-1.0" type="line"/>
    </contour>
  </outline>
</glyph>
<glyph name="ogonekcomb" format="2">
  <unicode hex="0328"/>
  <anchor x="333.3" y="0.0" name="_ogonek"/>
  <outline>
    <contour>
      <point x="228.8" y="-352.0" type="curve" smooth="yes"/>
      <point x="281.5" y="-352.0"/>
      <point x="357.9" y="-337.1"/>
      <point x="446.6" y="-293.4" type="curve"/>
      <point x="446.6" y="-251.7" type="line"/>
      <point x="328.0" y="-300.7"/>
      <point x="289.9" y="-306.4"/>
      <point x="264.1" y="-306.4" type="curve" smooth="yes"/>
      <point x="219.7" y="-306.4"/>
      <point x="174.2" y="-277.1"/>
      <point x="174.2" y="-213.2" type="curve" smooth="yes"/>
      <point x="174.2" y="-150.6"/>
      <point x="228.0" y="-72.3"/>
      <point x="375.7" y="0.0" type="curve"/>
      <point x="299.3" y="0.0" type="line" smooth="yes"/>
      <point x="227.1" y="0.0"/>
      <point x="43.0" y="-94.1"/>
      <point x="43.0" y="-206.2" type="curve" smooth="yes"/>
      <point x="43.0" y="-274.1"/>
      <point x="98.8" y="-352.0"/>
    </contour>
  </outline>
</glyph>
<glyph name="strokelongcomb" format="2">
  <unicode hex="0336"/>
  <anchor x="382.95" y="751.05" name="_center"/>
  <outline>
    <contour>
      <point x="55.6" y="731.9" type="line"/>
      <point x="712.0" y="731.9" type="line"/>
      <point x="712.0" y="771.2" type="line"/>
      <point x="55.6" y="771.2" type="line"/>
    </contour>
  </outline>
</glyph>
<glyph name="slashshortcomb" format="2">
  <unicode hex="0337"/>
  <anchor x="329.7" y="709.65" name="_center"/>
  <outline>
    <contour>
      <point x="57.2" y="508.4" type="line"/>
      <point x="632.5" y="858.2" type="line"/>
      <point x="601.5" y="910.9" type="line"/>
      <point x="25.9" y="561.8" type="line"/>
    </contour>
  </outline>
</glyph>
<glyph name="slashlongcomb" format="2">
  <unicode hex="0338"/>
  <anchor x="391.9" y="468.05" name="_center"/>
  <outline>
    <contour>
      <point x="14.799999999999997" y="-106.1" type="line"/>
      <point x="90.0" y="-106.1" type="line"/>
      <point x="767.3" y="1041.2" type="line"/>
      <point x="693.1" y="1041.2" type="line"/>
    </contour>
  </outline>
</glyph>
<glyph name="Dje-cy" format="2">
  <advance width="1483.2"/>
  <unicode hex="0402"/>
  <outline>
    <contour>
      <point x="880.6" y="-31.7" type="line"/>
      <point x="1241.4" y="-31.7"/>
      <point x="1368.8" y="175.2"/>
      <point x="1368.8" y="445.0" type="curve" smooth="yes"/>
      <point x="1368.8" y="712.8"/>
      <point x="1238.6" y="860.0"/>
      <point x="989.9" y="860.0" type="curve" smooth="yes"/>
      <point x="820.4" y="860.0"/>
      <point x="678.3" y="792.4"/>
      <point x="601.9" y="624.4" type="curve"/>
      <point x="602.9" y="1433.0" type="line"/>
      <point x="408.0" y="1433.0" type="line"/>
      <point x="408.0" y="0.0" type="line"/>
      <point x="601.9" y="0.0" type="line"/>
      <point x="601.9" y="411.0" type="line" smooth="yes"/>
      <point x="601.9" y="589.0"/>
      <point x="742.7" y="761.0"/>
      <point x="941.9" y="761.0" type="curve" smooth="yes"/>
      <point x="1107.2" y="761.0"/>
      <point x="1187.9" y="646.8"/>
      <point x="1187.9" y="431.0" type="curve" smooth="yes"/>
      <point x="1187.9" y="234.3"/>
      <point x="1127.7" y="59.2"/>
      <point x="889.2" y="59.2" type="curve"/>
    </contour>
    <contour>
      <point x="76.2" y="1340.7" type="line"/>
      <point x="932.3" y="1340.7" type="line"/>
      <point x="932.3" y="1433.0" type="line"/>
      <point x="76.2" y="1433.0" type="line"/>
    </contour>
  </outline>
</glyph>
<glyph name="Lje-cy" format="2">
  <advance width="2090.1"/>
  <unicode hex="0409"/>
  <outline>
    <contour>
      <point x="1137.7" y="86.30000000000001" type="line"/>
      <point x="1113.6" y="0.0" type="line"/>
      <point x="1506.4" y="-2.0" type="line" smooth="yes"/>
      <point x="1653.8" y="-3.0"/>
      <point x="1762.4" y="29.8"/>
      <point x="1851.6" y="93.8" type="curve" smooth="yes"/>
      <point x="1944.9" y="161.7"/>
      <point x="1998.2" y="303.1"/>
      <point x="1998.2" y="441.1" type="curve" smooth="yes"/>
      <point x="1998.2" y="578.1"/>
      <point x="1945.9" y="720.5"/>
      <point x="1851.6" y="787.4" type="curve" smooth="yes"/>
      <point x="1762.1" y="850.4"/>
      <point x="1653.8" y="883.9"/>
      <point x="1506.4" y="883.2" type="curve" smooth="yes"/>
      <point x="1221.1" y="884.5" type="line"/>
      <point x="1256.0" y="795.2" type="line"/>
      <point x="1475.6" y="796.9" type="line" smooth="yes"/>
      <point x="1713.9" y="797.6"/>
      <point x="1802.0" y="659.0"/>
      <point x="1802.0" y="441.1" type="curve" smooth="yes"/>
      <point x="1802.0" y="222.2"/>
      <point x="1713.9" y="86.30000000000001"/>
      <point x="1475.6" y="86.30000000000001" type="curve" smooth="yes"/>
    </contour>
    <contour>
      <point x="465.0" y="1433.0" type="line"/>
      <point x="464.2" y="776.9"/>
      <point x="447.2" y="770.1"/>
      <point x="448.5" y="675.6" type="curve" smooth="yes"/>
      <point x="397.3" y="323.5"/>
      <point x="292.8" y="110.1"/>
      <point x="140.9" y="110.1" type="curve" smooth="yes"/>
      <point x="78.4" y="110.1" type="line"/>
      <point x="78.4" y="0.0" type="line"/>
      <point x="166.9" y="0.0" type="line" smooth="yes"/>
      <point x="356.9" y="0.0"/>
      <point x="500.3" y="228.2"/>
      <point x="545.3" y="668.5" type="curve" smooth="yes"/>
      <point x="549.4" y="878.6"/>
      <point x="559.5" y="1102.1"/>
      <point x="560.5" y="1393.2" type="curve"/>
      <point x="474.6" y="1340.7" type="line"/>
      <point x="1187.9" y="1340.7" type="line"/>
      <point x="1102.0" y="1419.6" type="line"/>
      <point x="1102.0" y="0.30000000000000004" type="line"/>
      <point x="1299.9" y="0.30000000000000004" type="line"/>
      <point x="1299.9" y="1433.0" type="line"/>
    </contour>
  </outline>
</glyph>
<glyph name="Nje-cy" format="2">
  <advance width="2121.1"/>
  <unicode hex="040A"/>
  <outline>
    <contour>
      <point x="163.4" y="0.0" type="line"/>
      <point x="359.3" y="0.0" type="line"/>
      <point x="359.3" y="775.5" type="line"/>
      <point x="222.6" y="688.2" type="line"/>
      <point x="1284.5" y="688.2" type="line"/>
      <point x="1144.9" y="775.5" type="line"/>
      <point x="1144.9" y="0.0" type="line"/>
      <point x="1341.5" y="0.0" type="line"/>
      <point x="1341.5" y="1433.0" type="line"/>
      <point x="1144.9" y="1433.0" type="line"/>
      <point x="1144.9" y="693.2" type="line"/>
      <point x="1284.5" y="780.5" type="line"/>
      <point x="222.6" y="780.5" type="line"/>
      <point x="359.3" y="693.2" type="line"/>
      <point x="359.3" y="1433.0" type="line"/>
      <point x="163.4" y="1433.0" type="line"/>
    </contour>
    <contour>
      <point x="1169.7" y="84.30000000000001" type="line"/>
      <point x="1145.6" y="0.0" type="line"/>
      <point x="1538.4" y="-2.0" type="line" smooth="yes"/>
      <point x="1685.8" y="-3.0"/>
      <point x="1794.4" y="29.8"/>
      <point x="1882.6" y="93.8" type="curve" smooth="yes"/>
      <point x="1976.9" y="161.7"/>
      <point x="2029.2" y="303.1"/>
      <point x="2029.2" y="441.1" type="curve" smooth="yes"/>
      <point x="2029.2" y="578.1"/>
      <point x="1977.9" y="720.5"/>
      <point x="1882.6" y="787.4" type="curve" smooth="yes"/>
      <point x="1794.1" y="850.4"/>
      <point x="1685.8" y="883.9"/>
      <point x="1538.4" y="883.2" type="curve" smooth="yes"/>
      <point x="1252.1" y="884.5" type="line"/>
      <point x="1288.0" y="795.2" type="line"/>
      <point x="1507.6" y="796.9" type="line" smooth="yes"/>
      <point x="1745.9" y="797.6"/>
      <point x="1834.0" y="659.0"/>
      <point x="1834.0" y="441.1" type="curve" smooth="yes"/>
      <point x="1834.0" y="222.2"/>
      <point x="1745.9" y="85.30000000000001"/>
      <point x="1507.6" y="84.30000000000001" type="curve" smooth="yes"/>
    </contour>
  </outline>
</glyph>
<glyph name="Tshe-cy" format="2">
  <advance width="1483.2"/>
  <unicode hex="040B"/>
  <outline>
    <contour>
      <point x="602.9" y="1433.0" type="line"/>
      <point x="408.0" y="1433.0" type="line"/>
      <point x="408.0" y="0.0" type="line"/>
      <point x="601.9" y="0.0" type="line"/>
      <point x="601.9" y="411.0" type="line" smooth="yes"/>
      <point x="601.9" y="589.0"/>
      <point x="757.7" y="761.0"/>
      <point x="941.9" y="761.0" type="curve" smooth="yes"/>
      <point x="1105.2" y="761.0"/>
      <point x="1174.9" y="623.0"/>
      <point x="1174.9" y="429.0" type="curve" smooth="yes"/>
      <point x="1174.9" y="0.0" type="line"/>
      <point x="1368.8" y="0.0" type="line"/>
      <point x="1368.8" y="472.0" type="line" smooth="yes"/>
      <point x="1368.8" y="706.3"/>
      <point x="1241.9" y="860.0"/>
      <point x="989.9" y="860.0" type="curve" smooth="yes"/>
      <point x="778.5" y="860.0"/>
      <point x="591.9" y="751.0"/>
      <point x="546.9" y="465.0" type="curve"/>
      <point x="600.9" y="397.0" type="line"/>
    </contour>
    <contour>
      <point x="76.2" y="1340.7" type="line"/>
      <point x="932.3" y="1340.7" type="line"/>
      <point x="932.3" y="1433.0" type="line"/>
      <point x="76.2" y="1433.0" type="line"/>
    </contour>
  </outline>
</glyph>
<glyph name="Be-cy" format="2">
  <advance width="1225.6"/>
  <unicode hex="0411"/>
  <outline>
    <contour>
      <point x="175.3" y="0.0" type="line"/>
      <point x="724.6" y="1.4" type="line" smooth="yes"/>
      <point x="974.1" y="0.7"/>
      <point x="1136.3" y="166.3"/>
      <point x="1136.3" y="400.9" type="curve" smooth="yes"/>
      <point x="1136.3" y="636.5"/>
      <point x="974.1" y="802.1"/>
      <point x="724.6" y="801.4" type="curve" smooth="yes"/>
      <point x="286.3" y="798.6" type="line"/>
      <point x="373.2" y="711.7" type="line"/>
      <point x="373.2" y="1433.7" type="line"/>
      <point x="175.3" y="1433.7" type="line"/>
    </contour>
    <contour>
      <point x="373.2" y="11.400000000000002" type="line"/>
      <point x="373.2" y="796.7" type="line"/>
      <point x="286.3" y="708.7" type="line"/>
      <point x="622.0" y="710.4" type="line" smooth="yes"/>
      <point x="826.6" y="711.1"/>
      <point x="942.3" y="590.3"/>
      <point x="942.3" y="400.9" type="curve" smooth="yes"/>
      <point x="942.3" y="211.5"/>
      <point x="826.6" y="92.4"/>
      <point x="622.0" y="92.4" type="curve" smooth="yes"/>
      <point x="286.3" y="92.4" type="line"/>
    </contour>
    <contour>
      <point x="982.3" y="1340.7" type="line"/>
      <point x="982.3" y="1433.0" type="line"/>
      <point x="177.3" y="1433.0" type="line"/>
      <point x="177.3" y="1340.7" type="line"/>
    </contour>
  </outline>
</glyph>
<glyph name="De-cy" format="2">
  <advance width="1581.0"/>
  <unicode hex="0414"/>
  <outline>
    <contour>
      <point x="111.5" y="0.0" type="line"/>
      <point x="1459.4" y="0.0" type="line"/>
      <point x="1459.4" y="92.30000000000001" type="line"/>
      <point x="1128.5" y="92.30000000000001" type="line"/>
      <point x="1289.4" y="17.0" type="line"/>
      <point x="1289.4" y="1430.0" type="line"/>
      <point x="490.5" y="1430.0" type="line"/>
      <point x="490.5" y="1337.7" type="line"/>
      <point x="1252.4" y="1337.7" type="line"/>
      <point x="1091.5" y="1416.0" type="line"/>
      <point x="1091.5" y="17.0" type="line"/>
      <point x="1252.4" y="92.30000000000001" type="line"/>
      <point x="111.5" y="92.30000000000001" type="line"/>
    </contour>
    <contour>
      <point x="352.2" y="57.3" type="line"/>
      <point x="552.4" y="436.1"/>
      <point x="592.7" y="805.0"/>
      <point x="593.7" y="1414.3" type="curve"/>
      <point x="490.5" y="1414.3" type="line"/>
      <point x="490.1" y="805.3"/>
      <point x="437.5" y="433.29999999999995"/>
      <point x="221.5" y="55.300000000000004" type="curve"/>
    </contour>
    <component base="_cyrillicdescender01.case" xOffset="1206.9"/>
    <component base="_cyrillicdescender01.case" xScale="-1.0" xOffset="374.1"/>
  </outline>
</glyph>
<glyph name="Zhe-cy" format="2">
  <advance width="1993.4"/>
  <unicode hex="0416"/>
  <anchor x="1959.4" y="-3.5" name="bottomright"/>
  <anchor x="997.4" y="1433.5" name="top"/>
  <outline>
    <contour>
      <point x="1662.0" y="0.0" type="line"/>
      <point x="1850.0" y="0.0" type="line"/>
      <point x="1259.0" y="788.0" type="line"/>
      <point x="1138.0" y="721.0" type="line"/>
    </contour>
    <contour>
      <point x="901.1" y="0.0" type="line"/>
      <point x="1062.9" y="0.0" type="line"/>
      <point x="1062.9" y="1430.0" type="line"/>
      <point x="901.1" y="1430.0" type="line"/>
    </contour>
    <contour>
      <point x="968.0" y="679.0" type="line"/>
      <point x="1262.0" y="679.0" type="line"/>
      <point x="1262.0" y="786.0" type="line"/>
      <point x="968.0" y="786.0" type="line"/>
    </contour>
    <contour>
      <point x="1149.0" y="748.0" type="line"/>
      <point x="1264.0" y="723.0" type="line"/>
      <point x="1789.0" y="1430.0" type="line"/>
      <point x="1650.0" y="1430.0" type="line"/>
    </contour>
    <contour>
      <point x="301.0" y="0.0" type="line"/>
      <point x="826.0" y="721.0" type="line"/>
      <point x="705.0" y="788.0" type="line"/>
      <point x="114.0" y="0.0" type="line"/>
    </contour>
    <contour>
      <point x="996.0" y="679.0" type="line"/>
      <point x="996.0" y="786.0" type="line"/>
      <point x="709.0" y="786.0" type="line"/>
      <point x="709.0" y="679.0" type="line"/>
    </contour>
    <contour>
      <point x="815.0" y="748.0" type="line"/>
      <point x="314.0" y="1430.0" type="line"/>
      <point x="174.0" y="1430.0" type="line"/>
      <point x="699.0" y="723.0" type="line"/>
    </contour>
  </outline>
</glyph>
<glyph name="Ze-cy" format="2">
  <advance width="1235.2"/>
  <unicode hex="0417"/>
  <anchor x="618.1" y="0.0" name="bottom"/>
  <anchor x="618.1" y="1430.0" name="top"/>
  <outline>
    <contour>
      <point x="574.9" y="-28.0" type="curve" smooth="yes"/>
      <point x="939.6" y="-28.0"/>
      <point x="1130.4" y="104.2"/>
      <point x="1130.4" y="390.8" type="curve" smooth="yes"/>
      <point x="1130.4" y="640.0"/>
      <point x="1012.3" y="727.4"/>
      <point x="758.7" y="785.4" type="curve"/>
      <point x="736.2" y="731.8" type="line"/>
      <point x="960.6" y="762.9"/>
      <point x="1056.6" y="870.0"/>
      <point x="1056.6" y="1089.9" type="curve" smooth="yes"/>
      <point x="1056.6" y="1347.6"/>
      <point x="906.8" y="1459.0"/>
      <point x="611.2" y="1459.0" type="curve" smooth="yes"/>
      <point x="388.3" y="1459.0"/>
      <point x="250.0" y="1376.0"/>
      <point x="177.8" y="1242.3" type="curve"/>
      <point x="306.6" y="1195.7" type="line"/>
      <point x="351.7" y="1305.1"/>
      <point x="462.0" y="1372.3"/>
      <point x="606.9" y="1372.3" type="curve" smooth="yes"/>
      <point x="784.3" y="1372.3"/>
      <point x="868.0" y="1284.3"/>
      <point x="868.0" y="1083.3" type="curve" smooth="yes"/>
      <point x="868.0" y="878.3"/>
      <point x="775.6" y="791.4"/>
      <point x="559.5" y="791.4" type="curve" smooth="yes"/>
      <point x="442.6" y="791.4" type="line"/>
      <point x="442.6" y="724.1" type="line"/>
      <point x="564.2" y="724.1" type="line" smooth="yes"/>
      <point x="814.7" y="724.1"/>
      <point x="921.6" y="623.8"/>
      <point x="921.6" y="390.4" type="curve" smooth="yes"/>
      <point x="921.6" y="157.0"/>
      <point x="803.7" y="55.7"/>
      <point x="581.2" y="55.7" type="curve" smooth="yes"/>
      <point x="389.3" y="55.7"/>
      <point x="260.3" y="143.4"/>
      <point x="231.1" y="304.8" type="curve"/>
      <point x="79.9" y="266.9" type="line"/>
      <point x="141.4" y="82.0"/>
      <point x="268.7" y="-28.0"/>
    </contour>
  </outline>
</glyph>
<glyph name="Ii-cy" format="2">
  <advance width="1509.9"/>
  <unicode hex="0418"/>
  <anchor x="754.8" y="24.0" name="bottom"/>
  <anchor x="1489.9" y="0.0" name="bottomright"/>
  <anchor x="755.1" y="1430.0" name="top"/>
  <outline>
    <contour>
      <point x="1341.5" y="0.0" type="line"/>
      <point x="1346.5" y="1433.0" type="line"/>
      <point x="1174.9" y="1433.0" type="line"/>
      <point x="211.9" y="164.1" type="line"/>
      <point x="299.5" y="145.2" type="line"/>
      <point x="299.5" y="1433.0" type="line"/>
      <point x="163.4" y="1433.0" type="line"/>
      <point x="163.4" y="0.0" type="line"/>
      <point x="330.3" y="0.0" type="line"/>
      <point x="1305.7" y="1268.6" type="line"/>
      <point x="1206.4" y="1222.4" type="line"/>
      <point x="1206.4" y="0.0" type="line"/>
    </contour>
  </outline>
</glyph>
<glyph name="Ka-cy" format="2">
  <advance width="1296.5"/>
  <unicode hex="041A"/>
  <anchor x="1290.5" y="0.0" name="bottomright"/>
  <anchor x="648.4" y="1430.0" name="top"/>
  <outline>
    <contour>
      <point x="163.4" y="0.0" type="line"/>
      <point x="361.3" y="0.0" type="line"/>
      <point x="361.3" y="1430.0" type="line"/>
      <point x="163.4" y="1430.0" type="line"/>
    </contour>
    <contour>
      <point x="423.3" y="668.0" type="line"/>
      <point x="1157.3" y="1430.0" type="line"/>
      <point x="991.2" y="1430.0" type="line"/>
      <point x="307.3" y="717.0" type="line"/>
    </contour>
    <contour>
      <point x="971.0" y="0.0" type="line"/>
      <point x="1218.3" y="0.0" type="line"/>
      <point x="497.3" y="753.0" type="line"/>
      <point x="292.3" y="710.0" type="line"/>
    </contour>
  </outline>
</glyph>
<glyph name="El-cy" format="2">
  <advance width="1463.3"/>
  <unicode hex="041B"/>
  <outline>
    <contour>
      <point x="465.0" y="1430.0" type="line"/>
      <point x="464.2" y="773.9"/>
      <point x="447.2" y="769.1"/>
      <point x="448.5" y="675.6" type="curve" smooth="yes"/>
      <point x="415.0" y="320.5"/>
      <point x="292.8" y="110.1"/>
      <point x="140.9" y="110.1" type="curve" smooth="yes"/>
      <point x="78.4" y="110.1" type="line"/>
      <point x="78.4" y="0.0" type="line"/>
      <point x="166.9" y="0.0" type="line" smooth="yes"/>
      <point x="356.9" y="0.0"/>
      <point x="500.3" y="228.2"/>
      <point x="545.3" y="668.5" type="curve" smooth="yes"/>
      <point x="561.4" y="874.6"/>
      <point x="561.5" y="1099.1"/>
      <point x="560.5" y="1391.2" type="curve"/>
      <point x="474.6" y="1337.7" type="line"/>
      <point x="1187.9" y="1337.7" type="line"/>
      <point x="1102.0" y="1416.6" type="line"/>
      <point x="1102.0" y="0.0" type="line"/>
      <point x="1299.9" y="0.0" type="line"/>
      <point x="1299.9" y="1430.0" type="line"/>
    </contour>
  </outline>
</glyph>
<glyph name="Pe-cy" format="2">
  <advance width="1445.9"/>
  <unicode hex="041F"/>
  <anchor x="1425.9" y="0.0" name="bottomright"/>
  <outline>
    <contour>
      <point x="163.4" y="0.0" type="line"/>
      <point x="359.3" y="0.0" type="line"/>
      <point x="359.3" y="1337.7" type="line"/>
      <point x="1085.9" y="1337.7" type="line"/>
      <point x="1085.9" y="0.0" type="line"/>
      <point x="1282.5" y="0.0" type="line"/>
      <point x="1282.5" y="1430.0" type="line"/>
      <point x="163.4" y="1430.0" type="line"/>
    </contour>
  </outline>
</glyph>
<glyph name="U-cy" format="2">
  <advance width="1096.0"/>
  <unicode hex="0423"/>
  <guideline x="368.0" y="400.5" angle="251.4875999999999"/>
  <anchor x="548.0" y="1433.0" name="top"/>
  <outline>
    <contour>
      <point x="238.3" y="0.0" type="line"/>
      <point x="291.4" y="0.0" type="line"/>
      <point x="436.3" y="0.0"/>
      <point x="486.8" y="36.1"/>
      <point x="559.1" y="218.1" type="curve" smooth="yes"/>
      <point x="1014.7" y="1433.0" type="line"/>
      <point x="896.3" y="1433.0" type="line"/>
      <point x="455.7" y="254.1" type="line" smooth="yes"/>
      <point x="411.5" y="132.9"/>
      <point x="375.3" y="92.0"/>
      <point x="292.3" y="92.0" type="curve" smooth="yes"/>
      <point x="238.3" y="92.0" type="line"/>
    </contour>
    <contour>
      <point x="535.7" y="437.0" type="line"/>
      <point x="632.7" y="649.1" type="line"/>
      <point x="280.3" y="1433.0" type="line"/>
      <point x="81.3" y="1433.0" type="line"/>
    </contour>
  </outline>
</glyph>
<glyph name="Ef-cy" format="2">
  <advance width="1443.8"/>
  <unicode hex="0424"/>
  <outline>
    <contour>
      <point x="682.4" y="200.0" type="curve"/>
      <point x="682.4" y="281.2" type="line"/>
      <point x="440.4" y="281.2"/>
      <point x="284.4" y="449.6"/>
      <point x="284.4" y="712.0" type="curve" smooth="yes"/>
      <point x="284.4" y="977.0"/>
      <point x="440.2" y="1151.8"/>
      <point x="682.4" y="1151.8" type="curve"/>
      <point x="682.4" y="1233.0" type="line"/>
      <point x="333.4" y="1233.0"/>
      <point x="96.4" y="1019.7"/>
      <point x="96.4" y="708.0" type="curve" smooth="yes"/>
      <point x="96.4" y="405.9"/>
      <point x="332.0" y="200.0"/>
    </contour>
    <contour>
      <point x="623.1" y="0.0" type="line"/>
      <point x="821.7" y="0.0" type="line"/>
      <point x="821.7" y="1433.0" type="line"/>
      <point x="623.1" y="1433.0" type="line"/>
    </contour>
    <contour>
      <point x="760.4" y="200.0" type="line"/>
      <point x="1111.5" y="200.0"/>
      <point x="1347.4" y="405.9"/>
      <point x="1347.4" y="708.0" type="curve" smooth="yes"/>
      <point x="1347.4" y="1020.1"/>
      <point x="1109.4" y="1233.0"/>
      <point x="760.4" y="1233.0" type="curve"/>
      <point x="760.4" y="1151.8" type="line"/>
      <point x="1004.3" y="1151.8"/>
      <point x="1160.4" y="975.1"/>
      <point x="1160.4" y="708.0" type="curve" smooth="yes"/>
      <point x="1160.4" y="449.1"/>
      <point x="1003.3" y="281.2"/>
      <point x="760.4" y="281.2" type="curve"/>
    </contour>
  </outline>
</glyph>
<glyph name="Che-cy" format="2">
  <advance width="1238.3"/>
  <unicode hex="0427"/>
  <anchor x="1263.3" y="0.0" name="bottomright"/>
  <anchor x="619.3" y="1433.0" name="top"/>
  <outline>
    <contour>
      <point x="880.1" y="0.0" type="line"/>
      <point x="1075.0" y="0.0" type="line"/>
      <point x="1075.0" y="1430.0" type="line"/>
      <point x="882.1" y="1430.0" type="line"/>
      <point x="882.1" y="1019.0" type="line" smooth="yes"/>
      <point x="882.1" y="841.0"/>
      <point x="725.3" y="669.0"/>
      <point x="541.1" y="669.0" type="curve" smooth="yes"/>
      <point x="378.8" y="669.0"/>
      <point x="309.1" y="807.0"/>
      <point x="309.1" y="1001.0" type="curve" smooth="yes"/>
      <point x="309.1" y="1430.0" type="line"/>
      <point x="115.2" y="1430.0" type="line"/>
      <point x="115.2" y="958.0" type="line" smooth="yes"/>
      <point x="115.2" y="723.7"/>
      <point x="241.1" y="570.0"/>
      <point x="493.1" y="570.0" type="curve" smooth="yes"/>
      <point x="705.5" y="570.0"/>
      <point x="891.1" y="679.0"/>
      <point x="936.1" y="965.0" type="curve"/>
      <point x="882.1" y="1033.0" type="line"/>
    </contour>
  </outline>
</glyph>
<glyph name="Sha-cy" format="2">
  <advance width="1754.6"/>
  <unicode hex="0428"/>
  <outline>
    <contour>
      <point x="163.4" y="0.0" type="line"/>
      <point x="1591.2" y="0.0" type="line"/>
      <point x="1591.2" y="1433.0" type="line"/>
      <point x="1403.6" y="1433.0" type="line"/>
      <point x="1403.6" y="92.30000000000001" type="line"/>
      <point x="351.3" y="92.30000000000001" type="line"/>
      <point x="351.3" y="1433.0" type="line"/>
      <point x="163.4" y="1433.0" type="line"/>
    </contour>
    <contour>
      <point x="783.0" y="0.0" type="line"/>
      <point x="971.9" y="0.0" type="line"/>
      <point x="971.9" y="1433.0" type="line"/>
      <point x="783.0" y="1433.0" type="line"/>
    </contour>
  </outline>
</glyph>
<glyph name="Softsign-cy" format="2">
  <advance width="1137.7"/>
  <unicode hex="042C"/>
  <outline>
    <contour>
      <point x="174.9" y="0.0" type="line"/>
      <point x="554.0" y="-2.0" type="line" smooth="yes"/>
      <point x="701.4" y="-3.0"/>
      <point x="810.0" y="29.8"/>
      <point x="899.2" y="93.8" type="curve" smooth="yes"/>
      <point x="993.5" y="160.7"/>
      <point x="1045.8" y="303.1"/>
      <point x="1045.8" y="440.1" type="curve" smooth="yes"/>
      <point x="1045.8" y="578.1"/>
      <point x="993.5" y="720.5"/>
      <point x="899.2" y="787.4" type="curve" smooth="yes"/>
      <point x="810.7" y="851.4"/>
      <point x="701.4" y="882.9"/>
      <point x="554.0" y="883.2" type="curve" smooth="yes"/>
      <point x="277.7" y="884.5" type="line"/>
      <point x="363.8" y="840.1" type="line"/>
      <point x="363.8" y="1433.0" type="line"/>
      <point x="170.9" y="1433.0" type="line"/>
    </contour>
    <contour>
      <point x="363.8" y="15.6" type="line"/>
      <point x="363.8" y="865.6" type="line"/>
      <point x="312.6" y="795.2" type="line"/>
      <point x="524.2" y="796.9" type="line" smooth="yes"/>
      <point x="762.5" y="798.6"/>
      <point x="849.6" y="659.0"/>
      <point x="849.6" y="440.1" type="curve" smooth="yes"/>
      <point x="849.6" y="222.2"/>
      <point x="762.5" y="87.30000000000001"/>
      <point x="524.2" y="86.30000000000001" type="curve" smooth="yes"/>
      <point x="196.0" y="85.30000000000001" type="line"/>
    </contour>
  </outline>
</glyph>
<glyph name="be-cy" format="2">
  <advance width="1105.7"/>
  <unicode hex="0431"/>
  <outline>
    <contour>
      <point x="558.0" y="-31.2" type="curve" smooth="yes"/>
      <point x="844.6" y="-31.2"/>
      <point x="1030.3" y="157.9"/>
      <point x="1030.3" y="443.2" type="curve" smooth="yes"/>
      <point x="1030.3" y="727.3"/>
      <point x="843.8" y="936.7"/>
      <point x="558.0" y="936.7" type="curve" smooth="yes"/>
      <point x="409.1" y="936.7"/>
      <point x="340.0" y="882.4"/>
      <point x="240.8" y="769.0" type="curve"/>
      <point x="278.5" y="715.1" type="line"/>
      <point x="338.7" y="960.3"/>
      <point x="428.6" y="1175.1"/>
      <point x="608.7" y="1231.6" type="curve" smooth="yes"/>
      <point x="760.2" y="1274.8"/>
      <point x="901.7" y="1258.1"/>
      <point x="1006.7" y="1429.2" type="curve"/>
      <point x="927.7" y="1450.2" type="line"/>
      <point x="852.0" y="1336.3"/>
      <point x="753.3" y="1348.4"/>
      <point x="622.7" y="1310.3" type="curve" smooth="yes"/>
      <point x="305.0" y="1239.0"/>
      <point x="85.7" y="930.5"/>
      <point x="85.7" y="443.2" type="curve" smooth="yes"/>
      <point x="85.7" y="157.9"/>
      <point x="269.7" y="-31.2"/>
    </contour>
    <contour>
      <point x="558.0" y="57.6" type="curve" smooth="yes"/>
      <point x="400.2" y="57.6"/>
      <point x="280.8" y="198.5"/>
      <point x="280.8" y="447.5" type="curve" smooth="yes"/>
      <point x="280.8" y="689.2"/>
      <point x="399.0" y="848.6"/>
      <point x="558.0" y="848.6" type="curve" smooth="yes"/>
      <point x="716.7" y="848.6"/>
      <point x="835.2" y="682.1"/>
      <point x="835.2" y="443.2" type="curve" smooth="yes"/>
      <point x="835.2" y="194.4"/>
      <point x="714.7" y="57.6"/>
    </contour>
  </outline>
</glyph>
<glyph name="ve-cy" format="2">
  <advance width="960.8"/>
  <unicode hex="0432"/>
  <outline>
    <contour>
      <point x="122.7" y="0.0" type="line"/>
      <point x="498.3" y="0.0" type="line" smooth="yes"/>
      <point x="748.8" y="0.0"/>
      <point x="886.0" y="70.1"/>
      <point x="886.0" y="258.8" type="curve" smooth="yes"/>
      <point x="886.0" y="406.5"/>
      <point x="801.2" y="494.4"/>
      <point x="643.2" y="517.8" type="curve"/>
      <point x="636.7" y="477.5" type="line"/>
      <point x="764.1" y="508.9"/>
      <point x="848.9" y="587.7"/>
      <point x="848.9" y="708.9" type="curve" smooth="yes"/>
      <point x="848.9" y="866.9"/>
      <point x="701.3" y="946.4"/>
      <point x="499.5" y="946.4" type="curve" smooth="yes"/>
      <point x="122.7" y="946.4" type="line"/>
    </contour>
    <contour>
      <point x="310.1" y="8.7" type="line"/>
      <point x="310.1" y="515.5" type="line"/>
      <point x="261.6" y="461.6" type="line"/>
      <point x="510.9" y="461.6" type="line" smooth="yes"/>
      <point x="630.9" y="461.6"/>
      <point x="705.3" y="394.0"/>
      <point x="706.3" y="276.8" type="curve" smooth="yes"/>
      <point x="706.3" y="152.3"/>
      <point x="627.5" y="80.7"/>
      <point x="483.6" y="80.7" type="curve" smooth="yes"/>
      <point x="181.3" y="80.7" type="line"/>
    </contour>
    <contour>
      <point x="310.1" y="477.8" type="line"/>
      <point x="310.1" y="932.1" type="line"/>
      <point x="186.8" y="867.0" type="line"/>
      <point x="483.2" y="867.0" type="line" smooth="yes"/>
      <point x="629.4" y="867.0"/>
      <point x="666.2" y="775.2"/>
      <point x="666.2" y="688.6" type="curve" smooth="yes"/>
      <point x="666.2" y="578.1"/>
      <point x="598.0" y="532.0"/>
      <point x="485.7" y="532.0" type="curve" smooth="yes"/>
      <point x="282.1" y="532.0" type="line"/>
    </contour>
  </outline>
</glyph>
<glyph name="ge-cy" format="2">
  <advance width="767.8"/>
  <unicode hex="0433"/>
  <anchor x="747.8" y="0.0" name="bottomright"/>
  <anchor x="219.6" y="495.0" name="center"/>
  <anchor x="383.9" y="946.4" name="top"/>
  <outline>
    <contour>
      <point x="124.0" y="946.4" type="line"/>
      <point x="124.0" y="-0.30000000000000004" type="line"/>
      <point x="311.0" y="-0.30000000000000004" type="line"/>
      <point x="311.0" y="932.5" type="line"/>
      <point x="159.9" y="854.6" type="line"/>
      <point x="722.9" y="854.6" type="line"/>
      <point x="722.9" y="946.4" type="line"/>
    </contour>
  </outline>
</glyph>
